<?xml version="1.0" encoding="UTF-8"?>
<svg width="37px" height="36px" viewBox="0 0 37 36" version="1.1" xmlns="http://www.w3.org/2000/svg" xmlns:xlink="http://www.w3.org/1999/xlink">
    <title>cosine</title>
    <defs>
        <circle id="path-1" cx="18" cy="18" r="18"></circle>
    </defs>
    <g id="Page-1" stroke="none" stroke-width="1" fill="none" fill-rule="evenodd">
        <g id="Artboard" transform="translate(-1054.000000, -438.000000)">
            <g id="cosine" transform="translate(1054.000000, 438.000000)">
                <g id="Oval"></g>
                <g id="Path-Clipped" fill-rule="nonzero">
                    <path d="M18,0 C25.1270466,0 31.2866498,4.14211815 34.2028041,10.1503492 L21.0095215,23.3620605 L11.0566406,13.6035156 L0.950325162,23.786608 C0.981538214,23.8786036 1.01347493,23.9702651 1.04612853,24.0615858 C0.368876529,22.167564 0,20.1268598 0,18 C0,8.0588745 8.0588745,0 18,0 Z" id="path-1--Path-∩-path-1" fill="#00BE54"></path>
                    <path d="M34.2028041,10.1503492 C34.2118755,10.1690394 34.2209156,10.1877476 34.2299243,10.2064739 L34.2023181,10.1493479 C34.3451699,10.4436229 34.4802408,10.7423751 34.6072633,11.0453372 L34.6071857,11.0451522 C34.7294843,11.3368473 34.8442539,11.6322549 34.9513338,11.9313219 L34.9513435,11.931349 C35.270798,12.8235641 35.5218177,13.7483769 35.6980662,14.6994337 L35.6980478,14.6993346 C35.8135832,15.3227763 35.8969802,15.9573927 35.946476,16.6015015 L35.9464502,16.6011665 C35.9703192,16.9117832 35.9862954,17.2242677 35.9942055,17.5387559 L35.9941882,17.5380711 L36,18 L36,18 C36,27.8306685 28.1192167,35.8206815 18.3306652,35.9970237 L18,36 C17.7524821,36 17.5061311,35.9950041 17.2610423,35.9851075 L17.5687744,35.9949359 C17.4521158,35.9921932 17.3357318,35.9883406 17.2196326,35.9833883 L17.2610423,35.9851075 C17.1501658,35.9806304 17.0395475,35.9751503 16.9291964,35.9686761 L17.2196326,35.9833883 C17.0780788,35.9773502 16.9369483,35.9696773 16.7962595,35.9603879 L16.9291964,35.9686761 C16.8035097,35.9613022 16.6781695,35.9526386 16.5531889,35.9426985 L16.7962595,35.9603879 C16.6909867,35.953437 16.5859612,35.945581 16.4811908,35.9368277 L16.4812887,35.9368359 C16.236092,35.9163503 15.9923889,35.890962 15.7501803,35.8607615 L15.7504136,35.8607906 C15.5234999,35.8324972 15.2981285,35.8000179 15.0741469,35.7634046 C14.8461951,35.7261442 14.6195392,35.6845726 14.3944101,35.6387992 L14.5551613,35.6707179 C14.4267845,35.6458374 14.2988945,35.6195927 14.1715069,35.5919995 L14.3944101,35.6387992 C14.3008435,35.6197751 14.2075406,35.6000252 14.1145076,35.5795557 L14.1715069,35.5919995 C14.0789253,35.5719456 13.9866092,35.5511794 13.8945644,35.529707 L14.1145076,35.5795557 C13.9782176,35.5495685 13.8425068,35.5180368 13.7073945,35.4849799 L13.8945644,35.529707 C13.7914926,35.5056621 13.6887611,35.4807316 13.5863783,35.454924 L13.5865007,35.4549548 C13.4010433,35.4082066 13.2168512,35.3586149 13.0338523,35.306199 C12.9747552,35.2892734 12.9153994,35.2719393 12.8561715,35.2543086 C12.621916,35.1845731 12.3898669,35.1102684 12.1599194,35.0314378 L12.2805147,35.0723004 C12.1673004,35.0343882 12.0545879,34.9953814 11.9423897,34.9552925 L12.1599194,35.0314378 C12.0467349,34.992636 11.9340596,34.9527376 11.8219061,34.9117554 L11.9423897,34.9552925 C11.8553044,34.9241765 11.7685289,34.8924087 11.6820692,34.8599948 L11.8219061,34.9117554 C11.7144599,34.8724932 11.6074927,34.8322364 11.5010155,34.7909959 L11.6820692,34.8599948 C11.5459183,34.8089517 11.4105503,34.7563067 11.2759882,34.7020827 L11.5010155,34.7909959 C11.4101162,34.755789 11.3195741,34.7198652 11.229396,34.6832315 L11.2759882,34.7020827 C11.1802771,34.6635143 11.0849737,34.6241471 10.9900863,34.5839894 L11.229396,34.6832315 C11.1176181,34.6378231 11.0063996,34.5913239 10.8957537,34.5437472 L10.8951922,34.5435058 C10.7566808,34.4839471 10.6185125,34.4224447 10.4812752,34.3592662 C10.3127376,34.2816813 10.145371,34.2014524 9.97946103,34.1187373 L10.1040692,34.1802595 C10.0176301,34.1379982 9.93157958,34.0950647 9.84592461,34.0514657 L9.97946103,34.1187373 C9.88711367,34.0726972 9.79521762,34.0258868 9.7037813,33.9783145 L9.84592461,34.0514657 C9.7301534,33.9925373 9.61510471,33.9323933 9.50079537,33.8710504 L9.7037813,33.9783145 C9.60936544,33.9291921 9.51543975,33.8792574 9.4220135,33.8285196 L9.50079537,33.8710504 C9.42111429,33.8282903 9.34179246,33.7849478 9.26283556,33.7410285 L9.4220135,33.8285196 C9.30886926,33.7670734 9.19645752,33.7044495 9.08479473,33.6406643 L9.26283556,33.7410285 C9.16708543,33.687768 9.07187198,33.6336591 8.97720538,33.5787122 L9.08479473,33.6406643 C8.98697046,33.584784 8.88972101,33.5280124 8.79305744,33.4703606 L8.97720538,33.5787122 C8.8854311,33.5254441 8.79417076,33.4713882 8.70343362,33.4165539 L8.79305744,33.4703606 C8.68745691,33.4073787 8.58255561,33.3433462 8.47836796,33.2782776 L8.70343362,33.4165539 C8.60479918,33.3569471 8.50678296,33.2964204 8.40939686,33.2349858 L8.40953218,33.2350712 C8.09582477,33.0371734 7.78878552,32.8299475 7.48867591,32.613705 L7.48895734,32.6139078 C7.29999968,32.4777553 7.11406242,32.3382417 6.93096272,32.1952629 L7.02127712,32.2653291 C6.95555152,32.214671 6.8901858,32.1635689 6.82518446,32.1120271 L6.93096272,32.1952629 C6.84037902,32.1245279 6.75048982,32.0529449 6.66130707,31.9805256 L6.82518446,32.1120271 C6.72837822,32.0352663 6.63238019,31.9575304 6.53720518,31.8788343 L6.66130707,31.9805256 C6.583124,31.9170384 6.50548385,31.8529087 6.42839468,31.7881443 L6.42862269,31.7883358 C6.1837593,31.5826205 5.94467243,31.3707061 5.71139115,31.1526581 C5.46605391,30.9233509 5.22687617,30.6869871 4.99443367,30.4441242 L5.09655508,30.5499601 C5.02330227,30.4746571 4.95070297,30.3987151 4.87876634,30.3221432 L4.87830145,30.3216484 C4.4043958,29.8172068 3.95884118,29.2848824 3.5447282,28.7277957 L3.54473304,28.7278023 C3.44160439,28.5890682 3.34043037,28.448805 3.24124666,28.3070468 C3.14626862,28.1712996 3.05311398,28.0341789 2.96182012,27.8957228 C2.75628706,27.5840055 2.56026905,27.2656648 2.37408015,26.9409675 L2.43310165,27.0431178 C2.37523302,26.943717 2.31828918,26.8437115 2.26228191,26.7431131 L2.37408015,26.9409675 C2.3121485,26.8329641 2.25130435,26.7242573 2.19156264,26.6148622 L2.26228191,26.7431131 C2.21662268,26.6611015 2.17158591,26.5786958 2.12717799,26.4959024 L2.19156264,26.6148622 C2.13850061,26.5176985 2.08630829,26.4199917 2.03499612,26.3217524 L2.0348047,26.3213859 C1.75882009,25.7930015 1.50814131,25.2488223 1.28459128,24.6908464 L1.34334937,24.8356687 C1.29965323,24.7293065 1.25694623,24.6224335 1.21523981,24.5150611 L1.21523144,24.5150396 C1.15690626,24.3648824 1.10053012,24.2137268 1.04614272,24.0616255 L0.950325162,23.786608 L0.950325162,23.786608 L11.0566406,13.6035156 L21.0095215,23.3620605 L34.2028041,10.1503492 Z" id="Path-∩-path-1-∩-path-1" fill="#323A5D"></path>
                </g>
                <g id="Combined-Shape-Clipped">
                    <mask id="mask-2" fill="white">
                        <use xlink:href="#path-1"></use>
                    </mask>
                    <g id="path-1"></g>
                    <polygon id="Combined-Shape" fill="#FFFFFF" fill-rule="nonzero" mask="url(#mask-2)" points="76.8656493 -33.84 78.2798628 -32.4257864 21.0042136 24.8498628 21.002 24.848 20.9687771 24.8829906 11.072 14.986 -44.7857864 70.8449314 -46.2 69.4307179 9.658 13.572 9.65506858 13.5692821 11.0692821 12.1550686 11.072 12.158 11.0756493 12.1550686 12.4898628 13.5692821 12.486 13.572 20.969 22.055"></polygon>
                </g>
            </g>
        </g>
    </g>
</svg>