<?xml version="1.0" encoding="UTF-8"?>
<svg width="79px" height="79px" viewBox="0 0 79 79" version="1.1" xmlns="http://www.w3.org/2000/svg" xmlns:xlink="http://www.w3.org/1999/xlink">
    <title>l2</title>
    <g id="l2" stroke="none" stroke-width="1" fill="none" fill-rule="evenodd">
        <g id="002-codecanyon" transform="translate(18.000000, 22.000000)" fill="#37383C" fill-rule="nonzero">
            <path d="M39.8034861,16.3744685 C38.7109723,15.2359798 37.4477078,14.3107708 36.1177935,13.4829521 C35.9961914,13.4039698 35.9533904,13.3247154 35.923194,13.184796 C35.7189824,12.2656625 35.8014106,11.3341965 35.7982368,10.4090781 C35.7860856,8.50370781 35.8043123,6.59842821 35.7860856,4.69940554 C35.7676776,3.29313854 34.6962922,2.22184383 33.2902972,2.14893703 C33.2051486,2.14286146 33.1199093,2.14286146 33.0348514,2.14286146 C28.2929169,2.14286146 23.5541562,2.14286146 18.8152141,2.14893703 C18.3162922,2.14893703 17.853461,2.00267003 17.3786599,1.89920403 C15.6774106,1.53403526 14.0369169,0.973994962 12.3873552,0.438256927 C11.9581662,0.298337531 11.5168262,0.200856423 11.0846448,0.0851486146 C10.9751033,0.0851486146 10.8623879,0.0851486146 10.752937,0.0851486146 C10.7803224,0.146176322 10.7924736,0.218992443 10.8350932,0.273944584 C11.2855919,0.840060453 11.7420756,1.40608564 12.1986499,1.97220151 C12.2352846,2.02098741 12.2716474,2.06950126 12.3265088,2.14258942 C12.2228615,2.14258942 12.1559395,2.14258942 12.0829421,2.14258942 C9.5933199,2.14258942 7.09762217,2.14258942 4.60183375,2.14258942 C3.25051889,2.14258942 2.18838287,3.02517884 1.96621662,4.32172292 C1.93592947,4.49220151 1.92967254,4.66249874 1.92967254,4.83923426 C1.92967254,7.00014106 1.92658942,9.16104786 1.93284635,11.3281209 C1.93284635,11.4863577 1.89013602,11.571597 1.75021662,11.6384282 C1.54908816,11.735728 1.35757179,11.8515264 1.1688665,11.9791134 C1.41234257,11.9672343 1.65881108,11.9490076 1.92967254,11.9303275 C1.92967254,12.0033249 1.92967254,12.0644433 1.92967254,12.1191234 C1.92967254,12.9348816 1.92658942,13.7505491 1.92967254,14.5599597 C1.93284635,14.6817431 1.89321914,14.7609975 1.79265491,14.827738 C1.4427204,15.0713048 1.09877078,15.308796 0.760987406,15.5582569 C0.499284635,15.7530378 0.252816121,15.9539849 0.000181360202,16.1548413 C0.000181360202,16.1792343 0.000181360202,16.2037179 0.000181360202,16.2279295 C0.575274559,16.3434559 1.15054912,16.4652393 1.72591436,16.5747809 C1.88714358,16.605068 1.93284635,16.6781562 1.93284635,16.8425592 C1.92967254,19.9044635 1.92967254,22.9601108 1.92967254,26.0220151 C1.92967254,28.4627607 1.92658942,30.9099446 1.92967254,33.3566751 C1.92967254,34.665461 2.7879597,35.7124534 4.05412594,35.9500353 C4.22451385,35.9861259 4.40714358,35.9987305 4.58351637,35.9987305 C14.0977632,35.9987305 23.6119194,35.9987305 33.1320605,35.9987305 C34.6293703,35.9987305 35.7617834,34.9148312 35.785995,33.4237783 C35.8103879,31.9325441 35.7917985,30.447204 35.7917985,28.9620453 C35.7917985,27.1905189 35.7917985,25.4190831 35.7917985,23.6416625 C35.7917985,23.5687557 35.7917985,23.5019244 35.7917985,23.4166851 C36.4036171,23.5384685 36.9118791,23.800262 37.2983577,24.2629118 C37.9344786,25.0114761 38.5616222,25.7662972 39.1915768,26.5272846 C39.5110428,26.916937 39.8245239,27.3125743 40.1472544,27.7080302 C40.241471,27.8178438 40.3511033,27.9091587 40.4638186,28.0185189 C40.4971889,27.9758992 40.5184081,27.9639295 40.5278388,27.9395365 C41.0450781,26.8253501 41.5838992,25.7358287 42.0738438,24.603869 C42.2899345,24.1046751 42.4452695,23.5444534 42.5548111,23.0030932 C42.6948212,22.3152846 42.5578035,21.6151436 42.3996574,20.9393955 C41.9827103,19.1620655 41.0514257,17.6708312 39.8034861,16.3744685 Z M41.2644332,23.8310025 C41.0881511,24.7380756 40.9176725,25.638801 40.5126952,26.4971788 C40.4517582,26.363335 40.3938136,26.2294005 40.327073,26.1017229 C39.8643325,25.1888463 39.2676574,24.3728161 38.6469521,23.5634962 C38.07467,22.8210076 37.3383476,22.3095718 36.5408161,21.8589824 C34.9550932,20.9639698 33.2690781,20.2948413 31.5645642,19.6676071 C31.5340957,19.6556373 31.497461,19.6493804 31.4579244,19.6618035 C32.5322116,20.2462368 33.6065894,20.8307607 34.6840504,21.4150126 C34.6746196,21.4330579 34.6658237,21.4574509 34.6567557,21.4757683 C34.0510126,21.3116373 33.4361108,21.165461 32.8366247,20.976937 C31.896272,20.6966448 32.182005,20.8308514 30.0241814,20.1794055 C26.1134207,19.1140957 25.4894509,19.8202217 25.4894509,19.8202217 C29.2541259,20.2157683 29.9968866,20.995073 31.9386196,21.9995365 C31.8414106,22.254801 31.7499144,22.5047154 31.6585995,22.754267 C31.5186801,23.1314055 31.3815718,23.5088161 31.232403,23.8859547 C31.1410882,24.1235365 31.1532393,24.3427103 31.2416524,24.5801108 C32.0178741,26.6071738 32.8272846,28.6338741 33.5974307,30.6612091 C33.6400504,30.7707506 33.6644433,30.8984282 33.6735113,31.0143174 L33.6735113,34.5020554 C33.6676171,34.5689773 33.6676171,34.6481411 33.6371486,34.715335 C33.6371486,34.7212292 33.6277179,34.7273955 33.6248161,34.7336524 C33.2838589,35.1350932 32.8580252,35.2265894 32.3314458,35.2265894 C26.0190227,35.2083627 19.7069622,35.2207859 13.3975315,35.2207859 C10.38133,35.2207859 7.36521914,35.2207859 4.35210076,35.2147103 C4.19993955,35.2147103 4.04170277,35.2084534 3.89561713,35.1840605 C3.18949118,35.0684433 2.77263476,34.5693401 2.72684131,33.7719899 C2.71169773,33.4310327 2.72684131,33.0900756 2.72684131,32.7433149 C2.72684131,32.7004232 2.74506801,32.651728 2.76637783,32.6092897 C3.54250882,31.0996474 4.14516877,29.5170076 4.74166247,27.9342771 C4.78718388,27.8126751 4.83306801,27.6970579 4.86961209,27.569199 C4.33396474,28.5674962 3.57306801,29.3709219 2.76347607,30.132 C2.7391738,30.1259244 2.7177733,30.1195768 2.69664484,30.1137733 C2.73010579,29.61467 2.73627204,29.1094005 2.8061864,28.6102065 C3.0800403,26.6441713 3.37230227,24.678136 3.65821662,22.7118287 C3.65821662,22.6997683 3.65223174,22.6875264 3.6400806,22.6389219 C3.34183375,23.6249773 3.04966247,24.580927 2.76048363,25.5303476 C2.75132494,25.5303476 2.7391738,25.5303476 2.72702267,25.5303476 C2.72702267,25.4331385 2.72702267,25.341461 2.72702267,25.2500554 C2.72702267,23.417864 2.72403023,21.5917481 2.72702267,19.7598287 C2.72702267,19.6499244 2.75141562,19.5281411 2.79992947,19.4308413 C3.21379345,18.5182368 3.6400806,17.6108917 4.05992947,16.7039093 C4.17572796,16.4604332 4.0903073,16.229471 3.82869521,16.168262 C3.40249874,16.0770378 2.97657431,16.0040403 2.55046851,15.9372091 C2.27652393,15.8883325 2.00257935,15.8640302 1.67993955,15.8273048 C1.78349622,15.7604736 1.85041814,15.7180353 1.91743073,15.6693401 C4.05403526,14.2508312 5.95922418,12.5770579 7.63925441,10.6350529 C7.72431234,10.5377531 7.88572292,10.440272 7.79758186,10.275869 C7.71542569,10.1238892 7.53578841,10.1481008 7.39895214,10.1784786 C6.85704786,10.2942771 6.31840806,10.4220453 5.77967758,10.5621461 C5.52087657,10.6230831 5.27141562,10.7142166 5.00345592,10.7689874 C6.87527456,9.18036272 8.7470932,7.59146599 10.640131,5.98461461 C9.01478086,4.85836776 7.40457431,3.74436272 5.7946398,2.63044836 C5.80062469,2.61222166 5.80688161,2.60007053 5.8128665,2.58175315 C8.93860957,3.1356272 12.0643526,3.68351637 15.2356171,4.23739043 C14.2617128,3.1844131 13.3212695,2.16779849 12.3504484,1.12080605 C12.4295214,1.13903275 12.4722317,1.14519899 12.5086851,1.15725945 C15.7195768,2.22864484 18.9243929,3.30610579 22.1383678,4.35899244 C25.2123325,5.36336524 28.1280605,6.70252897 30.7881612,8.55902267 C31.8627204,9.30785894 32.836806,10.1722217 33.5942569,11.2494106 C33.9685844,11.7850579 34.2639295,12.3574307 34.397864,13.0086952 C34.406932,13.0574811 34.3795466,13.1546902 34.3402821,13.1791738 C34.078398,13.3251688 33.8987607,13.5443426 33.758932,13.8000605 C33.5091083,14.2686952 33.3842418,14.7680705 33.4056423,15.2975516 C33.4179748,15.5897229 33.3084332,15.7419748 33.0100957,15.7419748 C32.766529,15.7419748 32.5198791,15.7176725 32.2858338,15.6565542 C31.9752544,15.5775718 31.670932,15.4617733 31.3633451,15.3584887 C31.3115668,15.3463375 31.2659547,15.3282015 31.214267,15.3097028 C31.8898338,15.7480504 32.5778237,16.1376121 33.3934005,16.2106096 C33.7463275,16.2408967 34.105602,16.2165038 34.3916977,15.9549824 C34.4861864,15.8698338 34.5224584,15.7845038 34.4708615,15.6506599 C34.3245945,15.2610076 34.4279698,14.9202317 34.7202317,14.6279698 C34.8239698,14.5246851 34.9090277,14.5061864 35.0490378,14.5851688 C36.4245642,15.4130781 37.696806,16.3625894 38.8231436,17.507063 C39.480665,18.1705693 40.0617431,18.888937 40.5487859,19.6926348 C41.3314458,20.9763023 41.5506196,22.3578136 41.2644332,23.8310025 Z" id="Shape"></path>
            <path d="M23.0670227,13.8483023 C22.5681008,13.7692292 22.0689068,13.6779144 21.572796,13.5746297 C21.4510126,13.5501461 21.3931587,13.5684635 21.323063,13.6719295 C21.1465088,13.9214811 20.8847154,14.0005542 20.5926348,13.9456927 C20.3248564,13.8970882 20.0935315,13.7388514 20.0691385,13.4709824 C20.0478287,13.203204 19.8926751,13.1725542 19.7040605,13.1238589 C19.6430327,13.1119798 19.5820957,13.0995567 19.5275063,13.0751637 C19.4361914,13.0326348 19.3753451,13.063194 19.3084232,13.1361914 C18.8762418,13.6413703 18.7057632,14.2194559 18.8517582,14.8768866 C19.0647657,15.8447154 19.9900655,16.5266297 21.0673451,16.5266297 C21.0735113,16.5386902 21.0765945,16.5568262 21.0795869,16.5754156 C21.393068,16.4964332 21.7188816,16.4536322 22.0109622,16.3318489 C22.954398,15.9543476 23.4689169,15.0353955 23.3014307,14.0917783 C23.2770378,13.9455113 23.2285239,13.8785894 23.0670227,13.8483023 Z" id="Path"></path>
        </g>
    </g>
</svg>