<?xml version="1.0" encoding="UTF-8"?>
<svg width="79px" height="79px" viewBox="0 0 79 79" version="1.1" xmlns="http://www.w3.org/2000/svg" xmlns:xlink="http://www.w3.org/1999/xlink">
    <title>l5</title>
    <g id="l5" stroke="none" stroke-width="1" fill="none" fill-rule="evenodd">
        <g id="006-microlancer" transform="translate(22.000000, 22.000000)" fill="#37383C" fill-rule="nonzero">
            <path d="M26.0788571,2.05673469 C19.4382041,-1.26195918 12.9518367,-0.500489796 6.94604082,3.87877551 L5.98759184,4.61828571 L4.74538776,4.79428571 C4.74538776,4.79428571 2.7802449,5.08914286 1.79755102,5.23885714 L3.70995918,7.03004082 L3.05853061,7.98073469 C1.10979592,10.8637551 0.00620408163,14.0459592 0.00283530267,17.5142041 C-0.00693877551,24.965551 3.27853061,30.6345306 9.93444898,33.9442449 C16.6069388,37.2626939 23.1099592,36.4531429 29.156,32.0562449 L30.0352653,31.4532245 L34.3796735,30.7093878 L32.2977143,28.8740408 C34.744898,25.5555102 36.0301224,22.043102 35.9771429,18.165551 C35.8804898,10.8681633 32.5982857,5.31363265 26.0788571,2.05673469 Z M31.3635918,26.5720816 C31.2216327,26.7921633 31.0610612,26.9946122 30.7782857,27.3818776 L29.1189388,25.7489796 L28.5248163,29.9259592 L27.6941224,30.5509388 C22.4321633,34.3007347 16.7875102,35.0094694 10.997551,32.1662041 C5.25167347,29.3493061 2.25436735,24.5343673 2.08595918,18.0774694 C2.00114286,14.8601633 2.9475102,11.92 4.72457143,9.244 C4.83346939,9.08114286 4.97102041,8.84783673 5.28571429,8.45616327 L6.86138776,10.2122449 C7.02971429,9.09436735 7.15306122,7.96759184 7.38840816,6.86285714 L7.5402449,6.10595918 L8.0717551,5.63934694 C14.0299592,0.731918367 22.8789388,1.05763265 28.7920816,6.36995918 C34.4588571,11.4622857 35.5680816,20.176898 31.3635918,26.5720816 Z" id="Shape"></path>
            <path d="M21.2746939,21.5106122 C21.5618776,20.2606531 21.8732245,19.0150204 22.1330612,17.7564082 C22.302449,16.9333061 22.0186122,16.5019592 21.3870204,16.4755918 C20.5772245,16.4490612 19.790449,17.0345306 19.6031837,17.8266939 C19.3017959,19.1030204 19.0244082,20.3883265 18.6965714,21.6559184 L18.5546939,22.2499592 L15.7433469,22.2588571 C15.8049796,21.9771429 15.8346939,21.8406531 15.8666122,21.7043265 C16.1625306,20.4235918 16.475102,19.1515918 16.7512653,17.8663673 C16.9426939,16.9816327 16.6819592,16.5151837 16.0371429,16.48 C15.2515102,16.4315102 14.4338776,17.0389388 14.2513469,17.8090612 C13.9499592,19.0854694 13.6714286,20.3707755 13.3435102,21.638449 L13.1894694,22.2589388 L10.3726531,22.2633469 C10.8534694,20.1551837 11.2980408,18.2098776 11.7536327,16.2115918 C10.2164082,16.2115918 8.76955102,16.2115918 7.33795918,16.2115918 C6.33665306,20.436898 8.76171429,26.612 14.9819592,28.3856327 C21.323102,30.1945306 26.607102,26.0573061 27.8746122,22.2765714 C25.6431837,22.2765714 23.4404082,22.2765714 21.1251429,22.2765714 C21.1977143,21.9022857 21.229551,21.7042449 21.2746939,21.5106122 Z" id="Path"></path>
            <path d="M19.4349388,7.28546939 C14.2787755,6.51085714 8.85404082,9.73257143 7.856,13.9490612 L15.0103673,13.9490612 L15.0037551,14.376 C17.4277551,13.1657143 18.5138776,13.7378776 19.826449,14.9966531 C20.1324082,14.780898 20.4272653,14.5432653 20.7506939,14.3539592 C21.9072653,13.6718367 23.1231837,13.4252245 24.2938776,14.2351837 C25.4205714,15.0142857 25.2786122,16.1804898 25.0190204,17.3336327 C24.8220408,18.209551 24.6305306,19.080898 24.4256327,20.0011429 C25.8814694,20.0011429 27.2446531,20.0011429 28.6444082,20.0011429 C29.832,13.8918367 25.6826122,8.21861224 19.4349388,7.28546939 Z" id="Path"></path>
        </g>
    </g>
</svg>