<?xml version="1.0" encoding="UTF-8"?>
<svg width="79px" height="79px" viewBox="0 0 79 79" version="1.1" xmlns="http://www.w3.org/2000/svg" xmlns:xlink="http://www.w3.org/1999/xlink">
    <title>l8</title>
    <g id="l8" stroke="none" stroke-width="1" fill="none" fill-rule="evenodd">
        <g id="009-website-1" transform="translate(16.000000, 22.000000)" fill="#37383C" fill-rule="nonzero">
            <path d="M43.3149385,25.8463911 C42.7362235,25.5887598 41.8833855,25.474324 40.2929497,25.2706927 C39.1890168,25.1276983 37.0797989,24.8603128 36.0841676,24.5229385 C36.2336983,23.6038324 36.3831285,22.5855754 35.851676,21.6884916 L35.851676,18.8920559 C36.5517654,19.2039888 37.1497877,19.3569385 37.6778212,19.3569385 C38.5241229,19.3569385 39.255486,18.9750168 39.6882905,18.3101229 C40.381743,17.2382682 40.2035531,15.7651844 39.0710615,13.2233631 C38.1549721,11.1586927 37.1019218,8.94459218 35.851676,6.80058101 L35.851676,2.7987486 C35.851676,1.28463687 34.6204358,0.0502793296 33.1062235,0.0502793296 L2.74846927,0.0502793296 C1.23415642,0.0502793296 0,1.28463687 0,2.7987486 L0,33.1567039 C0,34.6710168 1.23425698,35.9020559 2.74846927,35.9020559 L33.106324,35.9020559 C34.1851173,35.9020559 35.1075419,35.272257 35.5589497,34.368838 C37.9451061,34.1462011 40.1495531,33.8122458 41.9913855,33.5036313 C44.7463911,33.0421676 47.3325587,32.3199553 47.5967263,30.2172737 C47.8575754,28.1496872 45.5770056,26.8451397 43.3149385,25.8463911 Z M41.7086145,31.8142458 C38.018514,32.4315754 34.3058883,32.9057095 30.4597207,32.9057095 C28.6754078,32.9057095 26.8620335,32.8036425 25.010648,32.5652179 C15.5561229,31.3563017 9.39710615,28.814581 2.39239106,23.3712402 L2.39239106,5.60131844 L2.41159777,4.98750838 C2.41159777,2.27071508 3.35624581,2.27071508 6.05705028,2.27071508 C6.23503911,2.27071508 6.38798883,2.27071508 6.52776536,2.27071508 C7.38351955,2.27071508 7.67312849,2.27071508 7.67312849,2.27071508 L29.1048939,2.27071508 C30.5206592,2.27071508 30.6730056,2.52191061 30.6730056,2.52191061 C33.6446145,5.7507486 35.7375419,9.9435419 37.5064693,13.9198324 C38.5179888,16.1977877 38.7502793,17.6421117 37.6782235,17.6421117 C37.137419,17.6421117 36.2594413,17.2729609 34.9870726,16.4553184 C34.1981899,15.9495084 31.3352849,11.8524469 30.0559777,11.8524469 C29.9385251,11.8524469 29.8333408,11.8873408 29.7441453,11.9668827 C29.0572291,12.5650056 28.5989832,13.1216983 28.1027263,13.1216983 C27.7495642,13.1216983 27.3804134,12.8450615 26.8970279,12.1101788 C25.8439777,11.0506927 20.6652067,8.82693855 19.0553631,8.82693855 C18.915486,8.82693855 18.8043687,8.84292737 18.7246257,8.87802235 C18.1518436,9.1196648 17.6876648,9.25330726 17.2741676,9.31052514 C17.3311844,9.37769832 17.3822682,9.44748603 17.4392849,9.51093855 C20.2166145,12.6094525 22.5579218,11.1302346 23.382,15.6189721 C23.6364134,17.0027598 30.4472514,21.5484134 32.4483687,21.9461229 C32.4547039,21.9461229 32.4674749,21.9461229 32.4736089,21.9461229 C35.1139777,21.9461229 34.5285251,23.0915866 34.2677765,25.0319665 C34.0388045,26.7495084 41.4381117,26.8899888 42.6218883,27.4116872 C47.8065922,29.7053296 46.3494972,31.032 41.7086145,31.8142458 Z" id="Shape"></path>
        </g>
    </g>
</svg>