<?xml version="1.0" encoding="UTF-8"?>
<svg width="31px" height="32px" viewBox="0 0 31 32" version="1.1" xmlns="http://www.w3.org/2000/svg" xmlns:xlink="http://www.w3.org/1999/xlink">
    <title>app</title>
    <g id="Page-1" stroke="none" stroke-width="1" fill="none" fill-rule="evenodd">
        <g id="Artboard" transform="translate(-882.000000, -396.000000)" fill-rule="nonzero">
            <g id="app" transform="translate(882.000000, 396.000000)">
                <path d="M30.2261818,5.94327273 C30.0254545,5.80727273 29.7701818,5.77963636 29.5483636,5.86981818 L15.0029091,11.688 C14.7265455,11.7992727 14.5454545,12.0661818 14.5454545,12.3636364 L14.5454545,31.2727273 C14.5454545,31.5141818 14.6654545,31.7396364 14.8647273,31.8749091 C14.9869091,31.9570909 15.1294545,32 15.2727273,32 C15.3643636,32 15.456,31.9832727 15.5425455,31.9483636 L30.088,26.1301818 C30.3643636,26.0189091 30.5454545,25.752 30.5454545,25.4545455 L30.5454545,6.54545455 C30.5454545,6.304 30.4254545,6.07854545 30.2261818,5.94327273 Z" id="Path" fill="#458BC4"></path>
                <path d="M15.2727273,11.5803636 L0.997090909,5.86981818 C0.774545455,5.78181818 0.52,5.808 0.319272727,5.94327273 C0.12,6.07854545 0,6.304 0,6.54545455 L0,25.4545455 C0,25.752 0.181090909,26.0189091 0.457454545,26.1301818 L15.0029091,31.9483636 C15.0894545,31.9832727 15.1810909,32 15.2727273,32 L15.2727273,11.5803636 Z" id="Path" fill="#43A6DD"></path>
                <path d="M30.088,5.86981818 L15.5425455,0.0516363636 C15.3694545,-0.0181818182 15.176,-0.0181818182 15.0029091,0.0516363636 L0.457454545,5.86981818 C0.181090909,5.98109091 0,6.248 0,6.54545455 C0,6.84290909 0.181090909,7.10981818 0.457454545,7.22109091 L15.0029091,13.0392727 C15.0894545,13.0741818 15.1810909,13.0909091 15.2727273,13.0909091 C15.3643636,13.0909091 15.456,13.0741818 15.5425455,13.0392727 L30.088,7.22109091 C30.3643636,7.10981818 30.5454545,6.84290909 30.5454545,6.54545455 C30.5454545,6.248 30.3643636,5.98109091 30.088,5.86981818 Z" id="Path" fill="#BADEFC"></path>
            </g>
        </g>
    </g>
</svg>