<?xml version="1.0" encoding="UTF-8"?>
<svg width="128px" height="51px" viewBox="0 0 128 51" version="1.1" xmlns="http://www.w3.org/2000/svg" xmlns:xlink="http://www.w3.org/1999/xlink">
    <title>a1</title>
    <defs>
        <path d="M24.7745,27 L26.1425,22.77 L27.5015,27 L28.9685,27 L30.7055,20.619 L29.2475,20.619 L28.2125,24.714 L26.8895,20.619 L25.4315,20.619 L24.1085,24.705 L23.0555,20.619 L21.5435,20.619 L23.2805,27 L24.7745,27 Z M35.5385,27 L35.5385,25.65 L32.9105,25.65 L32.9105,24.426 L35.2865,24.426 L35.2865,23.175 L32.9105,23.175 L32.9105,21.96 L35.5295,21.96 L35.5295,20.619 L31.4885,20.619 L31.4885,27 L35.5385,27 Z M39.3095,27 C40.5155,27 41.3075,26.235 41.3075,25.191 C41.3075,24.363 40.7495,23.832 40.1735,23.697 C40.6955,23.526 41.1095,22.986 41.1095,22.329 C41.1095,21.348 40.3805,20.619 39.1205,20.619 L36.7355,20.619 L36.7355,27 L39.3095,27 Z M38.8955,23.175 L38.1215,23.175 L38.1215,21.798 L38.8775,21.798 C39.4355,21.798 39.7145,22.068 39.7145,22.482 C39.7145,22.914 39.3905,23.175 38.8955,23.175 Z M39.0125,25.839 L38.1215,25.839 L38.1215,24.345 L39.0125,24.345 C39.5705,24.345 39.8945,24.651 39.8945,25.092 C39.8945,25.551 39.5615,25.839 39.0125,25.839 Z M45.3935,27 L45.8525,25.704 L48.3185,25.704 L48.7775,27 L50.3255,27 L47.9495,20.619 L46.3025,20.619 L43.8995,27 L45.3935,27 Z M47.8685,24.408 L46.3205,24.408 L47.1035,22.203 L47.8685,24.408 Z M53.3765,27 L54.7445,22.77 L56.1035,27 L57.5705,27 L59.3075,20.619 L57.8495,20.619 L56.8145,24.714 L55.4915,20.619 L54.0335,20.619 L52.7105,24.705 L51.6575,20.619 L50.1455,20.619 L51.8825,27 L53.3765,27 Z M60.6125,27 L61.0715,25.704 L63.5375,25.704 L63.9965,27 L65.5445,27 L63.1685,20.619 L61.5215,20.619 L59.1185,27 L60.6125,27 Z M63.0875,24.408 L61.5395,24.408 L62.3225,22.203 L63.0875,24.408 Z M67.7495,27 L67.7495,24.624 L68.2535,24.624 L69.3965,27 L70.9625,27 L69.6665,24.417 C70.4495,24.138 70.9265,23.481 70.9265,22.617 C70.9265,21.483 70.1165,20.619 68.8565,20.619 L66.3275,20.619 L66.3275,27 L67.7495,27 Z M68.5865,23.4 L67.7495,23.4 L67.7495,21.852 L68.5865,21.852 C69.1715,21.852 69.4865,22.149 69.4865,22.626 C69.4865,23.076 69.1715,23.4 68.5865,23.4 Z M74.2835,27 C76.2095,27 77.4965,25.785 77.4965,23.814 C77.4965,21.843 76.2095,20.619 74.2925,20.619 L71.9795,20.619 L71.9795,27 L74.2835,27 Z M74.2295,25.659 L73.4015,25.659 L73.4015,21.96 L74.2295,21.96 C75.2105,21.96 76.0115,22.536 76.0115,23.814 C76.0115,25.092 75.2105,25.659 74.2295,25.659 Z M84.7505,27 L84.7505,25.812 L82.0505,25.812 C82.1315,25.641 82.2755,25.524 82.4465,25.416 L83.5535,24.759 C84.3005,24.318 84.7055,23.697 84.7055,22.941 C84.7055,21.897 83.8775,21.024 82.5365,21.024 C81.1325,21.024 80.3495,21.96 80.3495,23.004 C80.3495,23.184 80.3765,23.418 80.4035,23.49 L81.7355,23.499 C81.6995,23.382 81.6815,23.256 81.6815,23.139 C81.6815,22.653 81.9515,22.275 82.5005,22.275 C83.0225,22.275 83.2835,22.599 83.2835,22.968 C83.2835,23.355 83.1035,23.598 82.6445,23.868 L81.6905,24.426 C80.6195,25.047 80.3135,25.929 80.3135,27 L84.7505,27 Z M87.8195,27.144 C88.7735,27.144 89.4215,26.721 89.8085,26.145 C90.2135,25.533 90.3215,24.804 90.3215,24.084 C90.3215,23.364 90.2135,22.635 89.8085,22.023 C89.4215,21.438 88.7735,21.024 87.8195,21.024 C86.8745,21.024 86.2265,21.438 85.8395,22.023 C85.4345,22.635 85.3265,23.364 85.3265,24.084 C85.3265,24.804 85.4345,25.533 85.8395,26.145 C86.2265,26.721 86.8745,27.144 87.8195,27.144 Z M87.8195,25.893 C87.3875,25.893 87.1265,25.677 86.9645,25.353 C86.8025,25.011 86.7485,24.552 86.7485,24.084 C86.7485,23.616 86.8025,23.157 86.9645,22.815 C87.1265,22.491 87.3875,22.275 87.8195,22.275 C88.2605,22.275 88.5125,22.491 88.6745,22.815 C88.8455,23.157 88.8995,23.616 88.8995,24.084 C88.8995,24.552 88.8455,25.011 88.6745,25.353 C88.5125,25.677 88.2605,25.893 87.8195,25.893 Z M93.6335,27 L93.6335,21.159 L92.4185,21.159 C92.3195,21.753 91.6985,22.248 90.8255,22.257 L90.8255,23.202 L92.2205,23.202 L92.2205,27 L93.6335,27 Z M96.9725,27.135 C98.3045,27.135 99.2315,26.442 99.2315,25.416 C99.2315,24.813 98.8445,24.237 98.2325,23.994 C98.8355,23.778 99.1235,23.175 99.1235,22.716 C99.1235,21.735 98.2415,21.024 96.9725,21.024 C95.7125,21.024 94.8305,21.735 94.8305,22.716 C94.8305,23.175 95.1095,23.778 95.7125,23.994 C95.1005,24.237 94.7225,24.813 94.7225,25.416 C94.7225,26.442 95.6495,27.135 96.9725,27.135 Z M96.9725,23.508 C96.4685,23.499 96.2255,23.175 96.2255,22.824 C96.2255,22.518 96.4865,22.194 96.9725,22.194 C97.4585,22.194 97.7195,22.518 97.7195,22.824 C97.7195,23.175 97.4855,23.499 96.9725,23.508 Z M96.9725,25.983 C96.4055,25.983 96.1085,25.605 96.1085,25.254 C96.1085,24.894 96.3785,24.507 96.9725,24.507 C97.5755,24.507 97.8455,24.894 97.8455,25.254 C97.8455,25.605 97.5485,25.983 96.9725,25.983 Z" id="path-1"></path>
        <path d="M53.295,45.135 C53.781,45.135 54.195,45.0075 54.537,44.7525 C54.879,44.4975 55.113,44.169 55.239,43.767 L55.239,43.767 L54.51,43.515 C54.318,44.097 53.913,44.388 53.295,44.388 C52.929,44.388 52.6215,44.265 52.3725,44.019 C52.1235,43.773 51.996,43.458 51.99,43.074 L51.99,43.074 L55.248,43.074 C55.26,43.002 55.266,42.912 55.266,42.804 C55.266,42.114 55.083,41.5635 54.717,41.1525 C54.351,40.7415 53.841,40.536 53.187,40.536 C52.623,40.536 52.137,40.752 51.729,41.184 C51.321,41.616 51.117,42.162 51.117,42.822 C51.117,43.53 51.3285,44.0925 51.7515,44.5095 C52.1745,44.9265 52.689,45.135 53.295,45.135 Z M54.384,42.39 L52.017,42.39 C52.035,42.09 52.152,41.8305 52.368,41.6115 C52.584,41.3925 52.86,41.283 53.196,41.283 C53.568,41.283 53.856,41.3865 54.06,41.5935 C54.264,41.8005 54.372,42.066 54.384,42.39 L54.384,42.39 Z M57.192,45 L57.192,42.498 C57.192,42.156 57.2805,41.8725 57.4575,41.6475 C57.6345,41.4225 57.882,41.31 58.2,41.31 C58.872,41.31 59.208,41.673 59.208,42.399 L59.208,42.399 L59.208,45 L60.054,45 L60.054,42.255 C60.054,41.751 59.9205,41.34 59.6535,41.022 C59.3865,40.704 59.004,40.545 58.506,40.545 C57.906,40.545 57.462,40.794 57.174,41.292 L57.174,41.292 L57.174,40.671 L56.346,40.671 L56.346,45 L57.192,45 Z M63.384,45 L65.112,40.671 L64.203,40.671 L62.961,44.01 L61.728,40.671 L60.774,40.671 L62.529,45 L63.384,45 Z M67.056,45.135 C67.404,45.135 67.6935,45.063 67.9245,44.919 C68.1555,44.775 68.331,44.607 68.451,44.415 C68.451,44.625 68.466,44.82 68.496,45 L68.496,45 L69.324,45 C69.288,44.784 69.27,44.547 69.27,44.289 L69.27,44.289 L69.27,42.12 C69.27,41.658 69.123,41.2785 68.829,40.9815 C68.535,40.6845 68.082,40.536 67.47,40.536 C67.002,40.536 66.6,40.6665 66.264,40.9275 C65.928,41.1885 65.739,41.526 65.697,41.94 L65.697,41.94 L66.507,42.129 C66.537,41.865 66.636,41.6535 66.804,41.4945 C66.972,41.3355 67.2,41.256 67.488,41.256 C67.8,41.256 68.034,41.328 68.19,41.472 C68.346,41.616 68.424,41.802 68.424,42.03 C68.424,42.216 68.313,42.324 68.091,42.354 L68.091,42.354 L66.921,42.525 C66.525,42.579 66.207,42.7185 65.967,42.9435 C65.727,43.1685 65.607,43.467 65.607,43.839 C65.607,44.193 65.742,44.4975 66.012,44.7525 C66.282,45.0075 66.63,45.135 67.056,45.135 Z M67.173,44.424 C66.963,44.424 66.7935,44.361 66.6645,44.235 C66.5355,44.109 66.471,43.962 66.471,43.794 C66.471,43.608 66.528,43.461 66.642,43.353 C66.756,43.245 66.909,43.176 67.101,43.146 L67.101,43.146 L68.424,42.948 L68.424,43.146 C68.424,43.59 68.31,43.914 68.082,44.118 C67.854,44.322 67.551,44.424 67.173,44.424 Z M72.078,45.045 C72.318,45.045 72.51,45.018 72.654,44.964 L72.654,44.964 L72.654,44.244 C72.558,44.268 72.447,44.28 72.321,44.28 C72.105,44.28 71.9505,44.232 71.8575,44.136 C71.7645,44.04 71.718,43.89 71.718,43.686 L71.718,43.686 L71.718,41.436 L72.654,41.436 L72.654,40.671 L71.718,40.671 L71.718,39.303 L70.944,39.303 L70.944,40.005 C70.944,40.203 70.8885,40.3635 70.7775,40.4865 C70.6665,40.6095 70.5,40.671 70.278,40.671 L70.278,40.671 L70.044,40.671 L70.044,41.436 L70.872,41.436 L70.872,43.812 C70.872,44.202 70.98,44.505 71.196,44.721 C71.412,44.937 71.706,45.045 72.078,45.045 Z M75.588,45.135 C76.236,45.135 76.767,44.9175 77.181,44.4825 C77.595,44.0475 77.802,43.497 77.802,42.831 C77.802,42.171 77.5935,41.6235 77.1765,41.1885 C76.7595,40.7535 76.23,40.536 75.588,40.536 C74.946,40.536 74.415,40.755 73.995,41.193 C73.581,41.625 73.374,42.171 73.374,42.831 C73.374,43.497 73.581,44.0475 73.995,44.4825 C74.409,44.9175 74.94,45.135 75.588,45.135 Z M75.588,44.379 C75.21,44.379 74.889,44.244 74.625,43.974 C74.367,43.698 74.238,43.317 74.238,42.831 C74.238,42.351 74.3685,41.9745 74.6295,41.7015 C74.8905,41.4285 75.21,41.292 75.588,41.292 C75.966,41.292 76.2855,41.4285 76.5465,41.7015 C76.8075,41.9745 76.938,42.351 76.938,42.831 C76.938,43.317 76.8075,43.6965 76.5465,43.9695 C76.2855,44.2425 75.966,44.379 75.588,44.379 Z" id="path-2"></path>
    </defs>
    <g id="Page-1" stroke="none" stroke-width="1" fill="none" fill-rule="evenodd">
        <g id="a1" fill-rule="nonzero">
            <path d="M4.67321361,27 C2.83548497,26.9094175 1.51654307,26.3118414 0.716387908,25.2072719 C-0.083767249,24.1027024 -0.213634422,22.7002785 0.326786388,21 C2.16451503,21.0905825 3.48345693,21.6881586 4.28361209,22.7927281 C5.08376725,23.8972976 5.21363442,25.2997215 4.67321361,27 Z M6.35073884,27 C5.78806562,25.3401231 5.90239431,23.9578981 6.6937249,22.8533251 C7.48506652,21.7487591 8.80357861,21.1309841 10.6492612,21 C11.2119344,22.6598769 11.0976057,24.0421019 10.3062751,25.1466749 C9.51493348,26.2512409 8.19642139,26.8690159 6.35073884,27 Z M5.63086017,18 C4.1495842,17.1153371 3.29280806,15.9366259 3.06053176,14.4638666 C2.82825546,12.9911073 3.26445815,11.5031517 4.36913983,10 C5.8504158,10.8846629 6.70719194,12.0633741 6.93946824,13.5361334 C7.17174454,15.0088927 6.73554185,16.4968483 5.63086017,18 Z M10.2024486,9 C9.17230482,7.46774578 8.80405806,5.965239 9.09770836,4.49247967 C9.39135866,3.01972033 10.2913063,1.85556044 11.7975514,1 C12.8276952,2.53225422 13.1959419,4.034761 12.9022916,5.50752033 C12.6086413,6.98027967 11.7086937,8.14443956 10.2024486,9 Z M23,47.2919586 C22.3735794,49.1977859 21.4160368,50.3730939 20.1273724,50.8178824 C18.838708,51.262671 17.4629172,50.892724 16,49.7080414 C16.6264206,47.8022141 17.5839632,46.6269061 18.8726276,46.1821176 C20.161292,45.737329 21.5370828,46.107276 23,47.2919586 Z M14,44.0674369 C12.8037103,45.5387588 11.5612332,46.1699575 10.2725688,45.961033 C8.98390434,45.7521085 7.89304808,44.7426185 7,42.9325631 C8.19628975,41.4612412 9.43876683,40.8300425 10.7274312,41.038967 C12.0160957,41.2478915 13.1069519,42.2573815 14,44.0674369 Z M8,36.5277009 C6.42518499,37.1948961 5.08549274,37.1552043 3.98092324,36.4086254 C2.87635374,35.6620466 2.216046,34.3499378 2,32.4722991 C3.57481501,31.8051039 4.91450726,31.8447957 6.01907676,32.5913746 C7.12364626,33.3379534 7.783954,34.6500622 8,36.5277009 Z M7,18.5509392 C7.17558401,16.6784673 7.81565873,15.3646602 8.92022417,14.6095181 C10.0247977,13.8543903 11.384723,13.8009045 13,14.4490608 C12.824416,16.3215327 12.1843413,17.6353398 11.0797758,18.3904819 C9.97520227,19.1456097 8.615277,19.1990955 7,18.5509392 Z M11,9.45418661 C11.8455815,8.00609329 12.9127045,7.19843319 14.2013689,7.0312063 C15.4900333,6.86397941 16.7562437,7.36884844 18,8.54581339 C17.1544185,9.99390671 16.0872955,10.8015668 14.7986311,10.9687937 C13.5099667,11.1360206 12.2437563,10.6311516 11,9.45418661 Z M23.7773934,45.9999984 C21.9832141,46.0007656 20.6668678,45.4488647 19.8283547,44.3442958 C18.9898416,43.2397269 18.7879256,41.7916288 19.2226066,39.9999984 C21.0167859,39.9992344 22.3331322,40.5511353 23.1716453,41.6557042 C24.0101584,42.7602731 24.2120744,44.2083712 23.7773934,45.9999984 Z M15.8020909,43 C14.2952569,42.1986535 13.3941791,41.0616006 13.0988574,39.5888413 C12.8035357,38.116082 13.1698862,36.5864682 14.1979091,35 C15.7047431,35.8013465 16.6058209,36.9383994 16.9011426,38.4111587 C17.1964643,39.883918 16.8301138,41.4135318 15.8020909,43 Z M9.37130554,36 C8.26569697,34.5510816 7.82863214,33.0902428 8.06011105,31.6174834 C8.29158995,30.1447241 9.14778443,28.9388963 10.6286945,28 C11.734303,29.4489184 12.1713679,30.9097572 11.939889,32.3825166 C11.70841,33.8552759 10.8522156,35.0611037 9.37130554,36 Z" id="Shape" fill="#6B7C93"></path>
            <path d="M123.326786,27 C122.786366,25.2997215 122.916233,23.8972976 123.716388,22.7927281 C124.516543,21.6881586 125.835485,21.0905825 127.673214,21 C128.213634,22.7002785 128.083767,24.1027024 127.283612,25.2072719 C126.483457,26.3118414 125.164515,26.9094175 123.326786,27 Z M121.649261,27 C119.803579,26.8690159 118.485067,26.2512409 117.693725,25.1466749 C116.902394,24.0421019 116.788066,22.6598769 117.350739,21 C119.196421,21.1309841 120.514933,21.7487591 121.306275,22.8533251 C122.097606,23.9578981 122.211934,25.3401231 121.649261,27 Z M122.36914,18 C121.264458,16.4968483 120.828255,15.0088927 121.060532,13.5361334 C121.292808,12.0633741 122.149584,10.8846629 123.63086,10 C124.735542,11.5031517 125.171745,12.9911073 124.939468,14.4638666 C124.707192,15.9366259 123.850416,17.1153371 122.36914,18 Z M117.797551,9 C116.291306,8.14443956 115.391359,6.98027967 115.097708,5.50752033 C114.804058,4.034761 115.172305,2.53225422 116.202449,1 C117.708694,1.85556044 118.608641,3.01972033 118.902292,4.49247967 C119.195942,5.965239 118.827695,7.46774578 117.797551,9 Z M105,47.2919586 C106.462917,46.107276 107.838708,45.737329 109.127372,46.1821176 C110.416037,46.6269061 111.373579,47.8022141 112,49.7080414 C110.537083,50.892724 109.161292,51.262671 107.872628,50.8178824 C106.583963,50.3730939 105.626421,49.1977859 105,47.2919586 Z M114,44.0674369 C114.893048,42.2573815 115.983904,41.2478915 117.272569,41.038967 C118.561233,40.8300425 119.80371,41.4612412 121,42.9325631 C120.106952,44.7426185 119.016096,45.7521085 117.727431,45.961033 C116.438767,46.1699575 115.19629,45.5387588 114,44.0674369 Z M120,36.5277009 C120.216046,34.6500622 120.876354,33.3379534 121.980923,32.5913746 C123.085493,31.8447957 124.425185,31.8051039 126,32.4722991 C125.783954,34.3499378 125.123646,35.6620466 124.019077,36.4086254 C122.914507,37.1552043 121.574815,37.1948961 120,36.5277009 Z M121,18.5509392 C119.384723,19.1990955 118.024798,19.1456097 116.920224,18.3904819 C115.815659,17.6353398 115.175584,16.3215327 115,14.4490608 C116.615277,13.8009045 117.975202,13.8543903 119.079776,14.6095181 C120.184341,15.3646602 120.824416,16.6784673 121,18.5509392 Z M117,9.45418661 C115.756244,10.6311516 114.490033,11.1360206 113.201369,10.9687937 C111.912704,10.8015668 110.845582,9.99390671 110,8.54581339 C111.243756,7.36884844 112.509967,6.86397941 113.798631,7.0312063 C115.087295,7.19843319 116.154419,8.00609329 117,9.45418661 Z M104.222607,45.9999984 C103.787926,44.2083712 103.989842,42.7602731 104.828355,41.6557042 C105.666868,40.5511353 106.983214,39.9992344 108.777393,39.9999984 C109.212074,41.7916288 109.010158,43.2397269 108.171645,44.3442958 C107.333132,45.4488647 106.016786,46.0007656 104.222607,45.9999984 Z M112.197909,43 C111.169886,41.4135318 110.803536,39.883918 111.098857,38.4111587 C111.394179,36.9383994 112.295257,35.8013465 113.802091,35 C114.830114,36.5864682 115.196464,38.116082 114.901143,39.5888413 C114.605821,41.0616006 113.704743,42.1986535 112.197909,43 Z M118.628694,36 C117.147784,35.0611037 116.29159,33.8552759 116.060111,32.3825166 C115.828632,30.9097572 116.265697,29.4489184 117.371306,28 C118.852216,28.9388963 119.70841,30.1447241 119.939889,31.6174834 C120.171368,33.0902428 119.734303,34.5510816 118.628694,36 Z" id="Shape" fill="#6B7C93"></path>
            <rect id="Rectangle" fill="#6B7C93" x="24" y="33" width="80" height="1"></rect>
            <g id="WEBAWARD2018">
                <use fill="#000000" xlink:href="#path-1"></use>
                <use fill="#6B7C93" xlink:href="#path-1"></use>
            </g>
            <g id="envato">
                <use fill="#000000" xlink:href="#path-2"></use>
                <use fill="#6B7C93" xlink:href="#path-2"></use>
            </g>
            <g id="logo-envato" transform="translate(58.000000, 0.000000)" fill="#6B7C93">
                <path d="M10.5625,0.08125 C11.13125,0.40625 13.56875,5.44375 11.5375,9.9125 C9.9125,13.4875 5.76875,13.4875 3.65625,12.1875 C1.7875,11.13125 -0.975,7.8 2.1125,3.65625 C2.19375,3.49375 2.51875,3.49375 2.4375,3.98125 C2.35625,4.30625 1.95,6.74375 2.7625,7.8 C3.16875,8.2875 3.25,7.9625 3.25,7.9625 C3.25,7.9625 3.16875,4.3875 5.93125,1.70625 C7.6375,0.08125 10.075,-0.1625 10.5625,0.08125 Z" id="Path"></path>
            </g>
        </g>
    </g>
</svg>