<?xml version="1.0" encoding="UTF-8"?>
<svg width="128px" height="51px" viewBox="0 0 128 51" version="1.1" xmlns="http://www.w3.org/2000/svg" xmlns:xlink="http://www.w3.org/1999/xlink">
    <title>a2</title>
    <defs>
        <path d="M3.761,9 L5.129,4.77 L6.488,9 L7.955,9 L9.692,2.619 L8.234,2.619 L7.199,6.714 L5.876,2.619 L4.418,2.619 L3.095,6.705 L2.042,2.619 L0.53,2.619 L2.267,9 L3.761,9 Z M14.525,9 L14.525,7.65 L11.897,7.65 L11.897,6.426 L14.273,6.426 L14.273,5.175 L11.897,5.175 L11.897,3.96 L14.516,3.96 L14.516,2.619 L10.475,2.619 L10.475,9 L14.525,9 Z M18.296,9 C19.502,9 20.294,8.235 20.294,7.191 C20.294,6.363 19.736,5.832 19.16,5.697 C19.682,5.526 20.096,4.986 20.096,4.329 C20.096,3.348 19.367,2.619 18.107,2.619 L15.722,2.619 L15.722,9 L18.296,9 Z M17.882,5.175 L17.108,5.175 L17.108,3.798 L17.864,3.798 C18.422,3.798 18.701,4.068 18.701,4.482 C18.701,4.914 18.377,5.175 17.882,5.175 Z M17.999,7.839 L17.108,7.839 L17.108,6.345 L17.999,6.345 C18.557,6.345 18.881,6.651 18.881,7.092 C18.881,7.551 18.548,7.839 17.999,7.839 Z M24.38,9 L24.839,7.704 L27.305,7.704 L27.764,9 L29.312,9 L26.936,2.619 L25.289,2.619 L22.886,9 L24.38,9 Z M26.855,6.408 L25.307,6.408 L26.09,4.203 L26.855,6.408 Z M32.363,9 L33.731,4.77 L35.09,9 L36.557,9 L38.294,2.619 L36.836,2.619 L35.801,6.714 L34.478,2.619 L33.02,2.619 L31.697,6.705 L30.644,2.619 L29.132,2.619 L30.869,9 L32.363,9 Z M39.599,9 L40.058,7.704 L42.524,7.704 L42.983,9 L44.531,9 L42.155,2.619 L40.508,2.619 L38.105,9 L39.599,9 Z M42.074,6.408 L40.526,6.408 L41.309,4.203 L42.074,6.408 Z M46.736,9 L46.736,6.624 L47.24,6.624 L48.383,9 L49.949,9 L48.653,6.417 C49.436,6.138 49.913,5.481 49.913,4.617 C49.913,3.483 49.103,2.619 47.843,2.619 L45.314,2.619 L45.314,9 L46.736,9 Z M47.573,5.4 L46.736,5.4 L46.736,3.852 L47.573,3.852 C48.158,3.852 48.473,4.149 48.473,4.626 C48.473,5.076 48.158,5.4 47.573,5.4 Z M53.27,9 C55.196,9 56.483,7.785 56.483,5.814 C56.483,3.843 55.196,2.619 53.279,2.619 L50.966,2.619 L50.966,9 L53.27,9 Z M53.216,7.659 L52.388,7.659 L52.388,3.96 L53.216,3.96 C54.197,3.96 54.998,4.536 54.998,5.814 C54.998,7.092 54.197,7.659 53.216,7.659 Z M63.737,9 L63.737,7.812 L61.037,7.812 C61.118,7.641 61.262,7.524 61.433,7.416 L62.54,6.759 C63.287,6.318 63.692,5.697 63.692,4.941 C63.692,3.897 62.864,3.024 61.523,3.024 C60.119,3.024 59.336,3.96 59.336,5.004 C59.336,5.184 59.363,5.418 59.39,5.49 L60.722,5.499 C60.686,5.382 60.668,5.256 60.668,5.139 C60.668,4.653 60.938,4.275 61.487,4.275 C62.009,4.275 62.27,4.599 62.27,4.968 C62.27,5.355 62.09,5.598 61.631,5.868 L60.677,6.426 C59.606,7.047 59.3,7.929 59.3,9 L63.737,9 Z M66.806,9.144 C67.76,9.144 68.408,8.721 68.795,8.145 C69.2,7.533 69.308,6.804 69.308,6.084 C69.308,5.364 69.2,4.635 68.795,4.023 C68.408,3.438 67.76,3.024 66.806,3.024 C65.861,3.024 65.213,3.438 64.826,4.023 C64.421,4.635 64.313,5.364 64.313,6.084 C64.313,6.804 64.421,7.533 64.826,8.145 C65.213,8.721 65.861,9.144 66.806,9.144 Z M66.806,7.893 C66.374,7.893 66.113,7.677 65.951,7.353 C65.789,7.011 65.735,6.552 65.735,6.084 C65.735,5.616 65.789,5.157 65.951,4.815 C66.113,4.491 66.374,4.275 66.806,4.275 C67.247,4.275 67.499,4.491 67.661,4.815 C67.832,5.157 67.886,5.616 67.886,6.084 C67.886,6.552 67.832,7.011 67.661,7.353 C67.499,7.677 67.247,7.893 66.806,7.893 Z M72.62,9 L72.62,3.159 L71.405,3.159 C71.306,3.753 70.685,4.248 69.812,4.257 L69.812,5.202 L71.207,5.202 L71.207,9 L72.62,9 Z M75.122,9.135 C77.129,9.135 78.236,7.902 78.236,5.832 C78.236,3.969 77.201,3.024 75.869,3.024 C74.501,3.024 73.583,3.897 73.583,5.085 C73.583,6.255 74.474,7.047 75.599,7.047 C76.121,7.047 76.625,6.84 76.868,6.48 C76.778,7.515 75.986,7.92 75.095,7.92 C74.681,7.92 74.258,7.785 74.069,7.686 L73.763,8.829 C74.069,9.009 74.6,9.135 75.122,9.135 Z M75.806,5.868 C75.311,5.868 74.933,5.526 74.933,5.04 C74.933,4.554 75.311,4.212 75.806,4.212 C76.301,4.212 76.679,4.554 76.679,5.04 C76.679,5.517 76.301,5.868 75.806,5.868 Z" id="path-1"></path>
        <path d="M3.0135,9.045 C3.2535,9.045 3.4455,9.018 3.5895,8.964 L3.5895,8.964 L3.5895,8.244 C3.4935,8.268 3.3825,8.28 3.2565,8.28 C3.0405,8.28 2.886,8.232 2.793,8.136 C2.7,8.04 2.6535,7.89 2.6535,7.686 L2.6535,7.686 L2.6535,5.436 L3.5895,5.436 L3.5895,4.671 L2.6535,4.671 L2.6535,3.303 L1.8795,3.303 L1.8795,4.005 C1.8795,4.203 1.824,4.3635 1.713,4.4865 C1.602,4.6095 1.4355,4.671 1.2135,4.671 L1.2135,4.671 L0.9795,4.671 L0.9795,5.436 L1.8075,5.436 L1.8075,7.812 C1.8075,8.202 1.9155,8.505 2.1315,8.721 C2.3475,8.937 2.6415,9.045 3.0135,9.045 Z M5.5605,9 L5.5605,6.453 C5.5725,6.117 5.6655,5.8425 5.8395,5.6295 C6.0135,5.4165 6.2565,5.31 6.5685,5.31 C7.2405,5.31 7.5765,5.673 7.5765,6.399 L7.5765,6.399 L7.5765,9 L8.4225,9 L8.4225,6.255 C8.4225,5.751 8.289,5.34 8.022,5.022 C7.755,4.704 7.3725,4.545 6.8745,4.545 C6.2865,4.545 5.8485,4.755 5.5605,5.175 L5.5605,5.175 L5.5605,2.484 L4.7145,2.484 L4.7145,9 L5.5605,9 Z M11.5995,9.135 C12.0855,9.135 12.4995,9.0075 12.8415,8.7525 C13.1835,8.4975 13.4175,8.169 13.5435,7.767 L13.5435,7.767 L12.8145,7.515 C12.6225,8.097 12.2175,8.388 11.5995,8.388 C11.2335,8.388 10.926,8.265 10.677,8.019 C10.428,7.773 10.3005,7.458 10.2945,7.074 L10.2945,7.074 L13.5525,7.074 C13.5645,7.002 13.5705,6.912 13.5705,6.804 C13.5705,6.114 13.3875,5.5635 13.0215,5.1525 C12.6555,4.7415 12.1455,4.536 11.4915,4.536 C10.9275,4.536 10.4415,4.752 10.0335,5.184 C9.6255,5.616 9.4215,6.162 9.4215,6.822 C9.4215,7.53 9.633,8.0925 10.056,8.5095 C10.479,8.9265 10.9935,9.135 11.5995,9.135 Z M12.6885,6.39 L10.3215,6.39 C10.3395,6.09 10.4565,5.8305 10.6725,5.6115 C10.8885,5.3925 11.1645,5.283 11.5005,5.283 C11.8725,5.283 12.1605,5.3865 12.3645,5.5935 C12.5685,5.8005 12.6765,6.066 12.6885,6.39 L12.6885,6.39 Z M15.4875,9 L15.4875,6.39 C15.4875,6.066 15.5805,5.802 15.7665,5.598 C15.9525,5.394 16.1955,5.292 16.4955,5.292 C16.8015,5.292 17.031,5.382 17.184,5.562 C17.337,5.742 17.4135,5.982 17.4135,6.282 L17.4135,6.282 L17.4135,9 L18.2595,9 L18.2595,6.381 C18.2595,6.069 18.3525,5.8095 18.5385,5.6025 C18.7245,5.3955 18.9645,5.292 19.2585,5.292 C19.5645,5.292 19.794,5.382 19.947,5.562 C20.1,5.742 20.1765,5.982 20.1765,6.282 L20.1765,6.282 L20.1765,9 L21.0135,9 L21.0135,6.192 C21.0135,5.658 20.868,5.25 20.577,4.968 C20.286,4.686 19.9335,4.545 19.5195,4.545 C18.8535,4.545 18.3705,4.818 18.0705,5.364 C17.9565,5.094 17.7825,4.89 17.5485,4.752 C17.3145,4.614 17.0565,4.545 16.7745,4.545 C16.5105,4.545 16.2585,4.605 16.0185,4.725 C15.7785,4.845 15.5925,5.019 15.4605,5.247 L15.4605,5.247 L15.4605,4.671 L14.6505,4.671 L14.6505,9 L15.4875,9 Z M24.1905,9.135 C24.6765,9.135 25.0905,9.0075 25.4325,8.7525 C25.7745,8.4975 26.0085,8.169 26.1345,7.767 L26.1345,7.767 L25.4055,7.515 C25.2135,8.097 24.8085,8.388 24.1905,8.388 C23.8245,8.388 23.517,8.265 23.268,8.019 C23.019,7.773 22.8915,7.458 22.8855,7.074 L22.8855,7.074 L26.1435,7.074 C26.1555,7.002 26.1615,6.912 26.1615,6.804 C26.1615,6.114 25.9785,5.5635 25.6125,5.1525 C25.2465,4.7415 24.7365,4.536 24.0825,4.536 C23.5185,4.536 23.0325,4.752 22.6245,5.184 C22.2165,5.616 22.0125,6.162 22.0125,6.822 C22.0125,7.53 22.224,8.0925 22.647,8.5095 C23.07,8.9265 23.5845,9.135 24.1905,9.135 Z M25.2795,6.39 L22.9125,6.39 C22.9305,6.09 23.0475,5.8305 23.2635,5.6115 C23.4795,5.3925 23.7555,5.283 24.0915,5.283 C24.4635,5.283 24.7515,5.3865 24.9555,5.5935 C25.1595,5.8005 25.2675,6.066 25.2795,6.39 L25.2795,6.39 Z M28.3755,9 L28.3755,5.436 L29.4195,5.436 L29.4195,4.671 L28.3755,4.671 L28.3755,3.987 C28.3755,3.717 28.443,3.5265 28.578,3.4155 C28.713,3.3045 28.8735,3.249 29.0595,3.249 C29.2155,3.249 29.3385,3.267 29.4285,3.303 L29.4285,3.303 L29.4285,2.547 C29.3505,2.487 29.1825,2.457 28.9245,2.457 C28.5165,2.457 28.1775,2.589 27.9075,2.853 C27.6375,3.117 27.5025,3.48 27.5025,3.942 L27.5025,3.942 L27.5025,4.671 L26.7015,4.671 L26.7015,5.436 L27.5025,5.436 L27.5025,9 L28.3755,9 Z M32.0025,9.135 C32.6505,9.135 33.1815,8.9175 33.5955,8.4825 C34.0095,8.0475 34.2165,7.497 34.2165,6.831 C34.2165,6.171 34.008,5.6235 33.591,5.1885 C33.174,4.7535 32.6445,4.536 32.0025,4.536 C31.3605,4.536 30.8295,4.755 30.4095,5.193 C29.9955,5.625 29.7885,6.171 29.7885,6.831 C29.7885,7.497 29.9955,8.0475 30.4095,8.4825 C30.8235,8.9175 31.3545,9.135 32.0025,9.135 Z M32.0025,8.379 C31.6245,8.379 31.3035,8.244 31.0395,7.974 C30.7815,7.698 30.6525,7.317 30.6525,6.831 C30.6525,6.351 30.783,5.9745 31.044,5.7015 C31.305,5.4285 31.6245,5.292 32.0025,5.292 C32.3805,5.292 32.7,5.4285 32.961,5.7015 C33.222,5.9745 33.3525,6.351 33.3525,6.831 C33.3525,7.317 33.222,7.6965 32.961,7.9695 C32.7,8.2425 32.3805,8.379 32.0025,8.379 Z M36.1425,9 L36.1425,6.831 C36.1425,5.943 36.5385,5.499 37.3305,5.499 C37.4505,5.499 37.5735,5.508 37.6995,5.526 L37.6995,5.526 L37.6995,4.626 C37.6095,4.608 37.5165,4.599 37.4205,4.599 C36.8205,4.599 36.3885,4.875 36.1245,5.427 L36.1245,5.427 L36.1245,4.671 L35.2965,4.671 L35.2965,9 L36.1425,9 Z M40.3815,9.135 C40.8675,9.135 41.2815,9.0075 41.6235,8.7525 C41.9655,8.4975 42.1995,8.169 42.3255,7.767 L42.3255,7.767 L41.5965,7.515 C41.4045,8.097 40.9995,8.388 40.3815,8.388 C40.0155,8.388 39.708,8.265 39.459,8.019 C39.21,7.773 39.0825,7.458 39.0765,7.074 L39.0765,7.074 L42.3345,7.074 C42.3465,7.002 42.3525,6.912 42.3525,6.804 C42.3525,6.114 42.1695,5.5635 41.8035,5.1525 C41.4375,4.7415 40.9275,4.536 40.2735,4.536 C39.7095,4.536 39.2235,4.752 38.8155,5.184 C38.4075,5.616 38.2035,6.162 38.2035,6.822 C38.2035,7.53 38.415,8.0925 38.838,8.5095 C39.261,8.9265 39.7755,9.135 40.3815,9.135 Z M41.4705,6.39 L39.1035,6.39 C39.1215,6.09 39.2385,5.8305 39.4545,5.6115 C39.6705,5.3925 39.9465,5.283 40.2825,5.283 C40.6545,5.283 40.9425,5.3865 41.1465,5.5935 C41.3505,5.8005 41.4585,6.066 41.4705,6.39 L41.4705,6.39 Z M44.7915,9.135 C45.2895,9.135 45.678,8.997 45.957,8.721 C46.236,8.445 46.3755,8.136 46.3755,7.794 C46.3755,7.47 46.272,7.1955 46.065,6.9705 C45.858,6.7455 45.5625,6.591 45.1785,6.507 L45.1785,6.507 L44.4765,6.354 C44.1465,6.282 43.9815,6.108 43.9815,5.832 C43.9815,5.676 44.049,5.541 44.184,5.427 C44.319,5.313 44.4915,5.256 44.7015,5.256 C44.8635,5.256 45.0045,5.2815 45.1245,5.3325 C45.2445,5.3835 45.336,5.451 45.399,5.535 C45.462,5.619 45.5085,5.6955 45.5385,5.7645 C45.5685,5.8335 45.5895,5.904 45.6015,5.976 L45.6015,5.976 L46.3485,5.697 C46.3185,5.577 46.2735,5.46 46.2135,5.346 C46.1535,5.232 46.0635,5.109 45.9435,4.977 C45.8235,4.845 45.6555,4.7385 45.4395,4.6575 C45.2235,4.5765 44.9775,4.536 44.7015,4.536 C44.2815,4.536 43.92,4.671 43.617,4.941 C43.314,5.211 43.1625,5.532 43.1625,5.904 C43.1625,6.21 43.2585,6.471 43.4505,6.687 C43.6425,6.903 43.9065,7.047 44.2425,7.119 L44.2425,7.119 L44.9805,7.281 C45.3525,7.365 45.5385,7.551 45.5385,7.839 C45.5385,8.001 45.4725,8.1375 45.3405,8.2485 C45.2085,8.3595 45.0285,8.415 44.8005,8.415 C44.5065,8.415 44.2725,8.3385 44.0985,8.1855 C43.9245,8.0325 43.8225,7.839 43.7925,7.605 L43.7925,7.605 L43.0275,7.875 C43.0695,8.181 43.2405,8.4675 43.5405,8.7345 C43.8405,9.0015 44.2575,9.135 44.7915,9.135 Z M48.9945,9.045 C49.2345,9.045 49.4265,9.018 49.5705,8.964 L49.5705,8.964 L49.5705,8.244 C49.4745,8.268 49.3635,8.28 49.2375,8.28 C49.0215,8.28 48.867,8.232 48.774,8.136 C48.681,8.04 48.6345,7.89 48.6345,7.686 L48.6345,7.686 L48.6345,5.436 L49.5705,5.436 L49.5705,4.671 L48.6345,4.671 L48.6345,3.303 L47.8605,3.303 L47.8605,4.005 C47.8605,4.203 47.805,4.3635 47.694,4.4865 C47.583,4.6095 47.4165,4.671 47.1945,4.671 L47.1945,4.671 L46.9605,4.671 L46.9605,5.436 L47.7885,5.436 L47.7885,7.812 C47.7885,8.202 47.8965,8.505 48.1125,8.721 C48.3285,8.937 48.6225,9.045 48.9945,9.045 Z" id="path-2"></path>
    </defs>
    <g id="Page-1" stroke="none" stroke-width="1" fill="none" fill-rule="evenodd">
        <g id="a2" fill-rule="nonzero">
            <g id="awards-web-construction-2019" transform="translate(0.000000, 1.000000)">
                <path d="M4.67321361,26 C2.83548497,25.9094175 1.51654307,25.3118414 0.716387908,24.2072719 C-0.083767249,23.1027024 -0.213634422,21.7002785 0.326786388,20 C2.16451503,20.0905825 3.48345693,20.6881586 4.28361209,21.7927281 C5.08376725,22.8972976 5.21363442,24.2997215 4.67321361,26 Z M6.35073884,26 C5.78806562,24.3401231 5.90239431,22.9578981 6.6937249,21.8533251 C7.48506652,20.7487591 8.80357861,20.1309841 10.6492612,20 C11.2119344,21.6598769 11.0976057,23.0421019 10.3062751,24.1466749 C9.51493348,25.2512409 8.19642139,25.8690159 6.35073884,26 Z M5.63086017,17 C4.1495842,16.1153371 3.29280806,14.9366259 3.06053176,13.4638666 C2.82825546,11.9911073 3.26445815,10.5031517 4.36913983,9 C5.8504158,9.88466294 6.70719194,11.0633741 6.93946824,12.5361334 C7.17174454,14.0088927 6.73554185,15.4968483 5.63086017,17 Z M10.2024486,8 C9.17230482,6.46774578 8.80405806,4.965239 9.09770836,3.49247967 C9.39135866,2.01972033 10.2913063,0.855560444 11.7975514,0 C12.8276952,1.53225422 13.1959419,3.034761 12.9022916,4.50752033 C12.6086413,5.98027967 11.7086937,7.14443956 10.2024486,8 Z M23,46.2919586 C22.3735794,48.1977859 21.4160368,49.3730939 20.1273724,49.8178824 C18.838708,50.262671 17.4629172,49.892724 16,48.7080414 C16.6264206,46.8022141 17.5839632,45.6269061 18.8726276,45.1821176 C20.161292,44.737329 21.5370828,45.107276 23,46.2919586 Z M14,43.0674369 C12.8037103,44.5387588 11.5612332,45.1699575 10.2725688,44.961033 C8.98390434,44.7521085 7.89304808,43.7426185 7,41.9325631 C8.19628975,40.4612412 9.43876683,39.8300425 10.7274312,40.038967 C12.0160957,40.2478915 13.1069519,41.2573815 14,43.0674369 Z M8,35.5277009 C6.42518499,36.1948961 5.08549274,36.1552043 3.98092324,35.4086254 C2.87635374,34.6620466 2.216046,33.3499378 2,31.4722991 C3.57481501,30.8051039 4.91450726,30.8447957 6.01907676,31.5913746 C7.12364626,32.3379534 7.783954,33.6500622 8,35.5277009 Z M7,17.5509392 C7.17558401,15.6784673 7.81565873,14.3646602 8.92022417,13.6095181 C10.0247977,12.8543903 11.384723,12.8009045 13,13.4490608 C12.824416,15.3215327 12.1843413,16.6353398 11.0797758,17.3904819 C9.97520227,18.1456097 8.615277,18.1990955 7,17.5509392 Z M11,8.45418661 C11.8455815,7.00609329 12.9127045,6.19843319 14.2013689,6.0312063 C15.4900333,5.86397941 16.7562437,6.36884844 18,7.54581339 C17.1544185,8.99390671 16.0872955,9.80156681 14.7986311,9.9687937 C13.5099667,10.1360206 12.2437563,9.63115156 11,8.45418661 Z M23.7773934,44.9999984 C21.9832141,45.0007656 20.6668678,44.4488647 19.8283547,43.3442958 C18.9898416,42.2397269 18.7879256,40.7916288 19.2226066,38.9999984 C21.0167859,38.9992344 22.3331322,39.5511353 23.1716453,40.6557042 C24.0101584,41.7602731 24.2120744,43.2083712 23.7773934,44.9999984 Z M15.8020909,42 C14.2952569,41.1986535 13.3941791,40.0616006 13.0988574,38.5888413 C12.8035357,37.116082 13.1698862,35.5864682 14.1979091,34 C15.7047431,34.8013465 16.6058209,35.9383994 16.9011426,37.4111587 C17.1964643,38.883918 16.8301138,40.4135318 15.8020909,42 Z M9.37130554,35 C8.26569697,33.5510816 7.82863214,32.0902428 8.06011105,30.6174834 C8.29158995,29.1447241 9.14778443,27.9388963 10.6286945,27 C11.734303,28.4489184 12.1713679,29.9097572 11.939889,31.3825166 C11.70841,32.8552759 10.8522156,34.0611037 9.37130554,35 Z" id="Shape" fill="#6B7C93"></path>
                <path d="M123.326786,26 C122.786366,24.2997215 122.916233,22.8972976 123.716388,21.7927281 C124.516543,20.6881586 125.835485,20.0905825 127.673214,20 C128.213634,21.7002785 128.083767,23.1027024 127.283612,24.2072719 C126.483457,25.3118414 125.164515,25.9094175 123.326786,26 Z M121.649261,26 C119.803579,25.8690159 118.485067,25.2512409 117.693725,24.1466749 C116.902394,23.0421019 116.788066,21.6598769 117.350739,20 C119.196421,20.1309841 120.514934,20.7487591 121.306275,21.8533251 C122.097606,22.9578981 122.211934,24.3401231 121.649261,26 Z M122.36914,17 C121.264458,15.4968483 120.828256,14.0088927 121.060532,12.5361334 C121.292808,11.0633741 122.149584,9.88466294 123.63086,9 C124.735542,10.5031517 125.171745,11.9911073 124.939468,13.4638666 C124.707192,14.9366259 123.850416,16.1153371 122.36914,17 Z M117.797551,8 C116.291306,7.14443956 115.391359,5.98027967 115.097708,4.50752033 C114.804058,3.034761 115.172305,1.53225422 116.202449,0 C117.708694,0.855560444 118.608641,2.01972033 118.902292,3.49247967 C119.195942,4.965239 118.827695,6.46774578 117.797551,8 Z M105,46.2919586 C106.462917,45.107276 107.838708,44.737329 109.127372,45.1821176 C110.416037,45.6269061 111.373579,46.8022141 112,48.7080414 C110.537083,49.892724 109.161292,50.262671 107.872628,49.8178824 C106.583963,49.3730939 105.626421,48.1977859 105,46.2919586 Z M114,43.0674369 C114.893048,41.2573815 115.983904,40.2478915 117.272569,40.038967 C118.561233,39.8300425 119.80371,40.4612412 121,41.9325631 C120.106952,43.7426185 119.016096,44.7521085 117.727431,44.961033 C116.438767,45.1699575 115.19629,44.5387588 114,43.0674369 Z M120,35.5277009 C120.216046,33.6500622 120.876354,32.3379534 121.980923,31.5913746 C123.085493,30.8447957 124.425185,30.8051039 126,31.4722991 C125.783954,33.3499378 125.123646,34.6620466 124.019077,35.4086254 C122.914507,36.1552043 121.574815,36.1948961 120,35.5277009 Z M121,17.5509392 C119.384723,18.1990955 118.024798,18.1456097 116.920224,17.3904819 C115.815659,16.6353398 115.175584,15.3215327 115,13.4490608 C116.615277,12.8009045 117.975202,12.8543903 119.079776,13.6095181 C120.184341,14.3646602 120.824416,15.6784673 121,17.5509392 Z M117,8.45418661 C115.756244,9.63115156 114.490033,10.1360206 113.201369,9.9687937 C111.912704,9.80156681 110.845582,8.99390671 110,7.54581339 C111.243756,6.36884844 112.509967,5.86397941 113.798631,6.0312063 C115.087296,6.19843319 116.154419,7.00609329 117,8.45418661 Z M104.222607,44.9999984 C103.787926,43.2083712 103.989842,41.7602731 104.828355,40.6557042 C105.666868,39.5511353 106.983214,38.9992344 108.777393,38.9999984 C109.212074,40.7916288 109.010158,42.2397269 108.171645,43.3442958 C107.333132,44.4488647 106.016786,45.0007656 104.222607,44.9999984 Z M112.197909,42 C111.169886,40.4135318 110.803536,38.883918 111.098857,37.4111587 C111.394179,35.9383994 112.295257,34.8013465 113.802091,34 C114.830114,35.5864682 115.196464,37.116082 114.901143,38.5888413 C114.605821,40.0616006 113.704743,41.1986535 112.197909,42 Z M118.628695,35 C117.147784,34.0611037 116.29159,32.8552759 116.060111,31.3825166 C115.828632,29.9097572 116.265697,28.4489184 117.371306,27 C118.852216,27.9388963 119.70841,29.1447241 119.939889,30.6174834 C120.171368,32.0902428 119.734303,33.5510816 118.628695,35 Z" id="Shape" fill="#6B7C93"></path>
                <rect id="Rectangle" fill="#6B7C93" x="24" y="32" width="80" height="1"></rect>
                <g id="Web-award-2019" transform="translate(21.000000, 17.000000)">
                    <g id="WEBAWARD2019">
                        <use fill="#000000" xlink:href="#path-1"></use>
                        <use fill="#6B7C93" xlink:href="#path-1"></use>
                    </g>
                </g>
                <g id="themeforest" transform="translate(39.000000, 35.000000)">
                    <g>
                        <use fill="#000000" xlink:href="#path-2"></use>
                        <use fill="#6B7C93" xlink:href="#path-2"></use>
                    </g>
                </g>
            </g>
            <g id="l1" transform="translate(56.000000, 0.000000)" fill="#6B7C93">
                <path d="M13.8045732,6.84209023 C13.8014659,6.8389195 13.7983902,6.83695364 13.7963293,6.83378294 C13.5134049,6.53129512 13.0745439,6.39701465 12.3733683,6.39701465 C12.1214854,6.39701465 11.7807585,6.4145488 11.4461195,6.45069512 L11.4513195,0.815924391 C11.4513195,0.375034147 11.0930268,0.0167097561 10.6521049,0.0167097561 L0.798168294,0.0167097561 C0.357278049,0.0167097561 0,0.375065853 0,0.815924391 L0,10.6688146 C0,11.1107829 0.357246341,11.4679659 0.798168294,11.4679659 L3.4437,11.4679659 C3.49630244,11.5485341 3.55099756,11.6291024 3.61301706,11.7044707 C4.31099023,12.5532756 5.53153171,12.9849073 7.24144391,12.9849073 C8.54458294,12.9849073 9.89109756,12.7433293 10.7832781,12.5832073 L11.1095464,12.5254049 C12.1927634,12.3375073 12.7833756,12.0989415 13.1520049,11.7065317 C13.3109536,11.6466683 13.5154659,11.5403853 13.5958756,11.3770927 C13.6373488,11.2894219 13.6434366,11.1933805 13.6103659,11.1045366 C13.5834781,11.0333536 13.5360122,10.9765341 13.4771951,10.9300195 C13.5195244,10.8712024 13.5546878,10.8123536 13.5856024,10.7524268 C13.7147147,10.6884098 13.8478854,10.5964268 13.9077488,10.4725781 C13.9511561,10.3857634 13.9552147,10.2888341 13.9222073,10.1999585 C13.887139,10.1080707 13.8179219,10.0399317 13.7332,9.98723415 C13.7301244,9.93146097 13.725939,9.87673415 13.7187415,9.82302194 C13.7383683,9.79315364 13.7559659,9.76315853 13.7735,9.73316341 C13.9707829,9.66400977 14.2588122,9.52976097 14.3642073,9.3119 C14.4157951,9.2066 14.4219147,9.08883903 14.3807268,8.98144636 C14.3104634,8.79044147 14.1184439,8.68095609 13.9160561,8.61595609 C13.9212244,8.59119268 13.9305147,8.56741221 13.9511244,8.54680244 C13.9955464,8.46417318 14.0584536,8.37840488 14.1112147,8.28553415 C14.3497171,8.19567562 14.6667268,8.03561706 14.7875634,7.78680977 C14.8505024,7.65769756 14.8577,7.51311221 14.8081415,7.38098779 C14.6678049,7.00620732 14.1505317,6.88340488 13.8045732,6.84209023 Z M13.5949561,8.27529267 L12.3713073,8.45703903 L13.5453659,8.58713415 C13.6373171,8.86904391 13.7137317,9.39671706 13.2304488,9.84886341 C13.2304488,9.84886341 13.2356171,9.86132438 13.2438927,9.88193415 L12.2784049,10.0100634 L13.3006805,10.1091488 C13.3254439,10.2702219 13.3192293,10.4818683 13.199439,10.6801024 L12.3950878,10.9145464 L13.0466732,10.8970122 C13.0446439,11.0240951 12.9218098,11.5640073 11.0496512,11.8893561 C8.91638294,12.2599829 2.93359268,13.5590951 3.86084147,8.87421221 C4.78809023,4.18936097 9.79816341,2.14896341 10.8183147,2.14896341 L10.8183147,6.65929756 C10.2648634,6.74706341 9.77450977,6.84310488 9.34281465,6.93917806 C8.86476341,6.8740512 7.72574147,6.7460488 7.13100733,6.9267805 L8.4867805,7.15291706 C7.26627074,7.48752438 6.73653659,7.78490732 6.73653659,7.78490732 C8.15531221,7.3739805 9.74968294,7.12815364 10.4899854,7.02697562 C11.7486707,6.88755853 13.1375147,6.9774488 13.4153024,7.27381706 C13.8902781,7.78072194 13.7384951,8.11310977 13.5949561,8.27529267 Z" id="Shape"></path>
            </g>
        </g>
    </g>
</svg>