<?xml version="1.0" encoding="UTF-8"?>
<svg width="128px" height="51px" viewBox="0 0 128 51" version="1.1" xmlns="http://www.w3.org/2000/svg" xmlns:xlink="http://www.w3.org/1999/xlink">
    <title>a3</title>
    <defs>
        <path d="M3.9465,9 L5.3145,4.77 L6.6735,9 L8.1405,9 L9.8775,2.619 L8.4195,2.619 L7.3845,6.714 L6.0615,2.619 L4.6035,2.619 L3.2805,6.705 L2.2275,2.619 L0.7155,2.619 L2.4525,9 L3.9465,9 Z M14.7105,9 L14.7105,7.65 L12.0825,7.65 L12.0825,6.426 L14.4585,6.426 L14.4585,5.175 L12.0825,5.175 L12.0825,3.96 L14.7015,3.96 L14.7015,2.619 L10.6605,2.619 L10.6605,9 L14.7105,9 Z M18.4815,9 C19.6875,9 20.4795,8.235 20.4795,7.191 C20.4795,6.363 19.9215,5.832 19.3455,5.697 C19.8675,5.526 20.2815,4.986 20.2815,4.329 C20.2815,3.348 19.5525,2.619 18.2925,2.619 L15.9075,2.619 L15.9075,9 L18.4815,9 Z M18.0675,5.175 L17.2935,5.175 L17.2935,3.798 L18.0495,3.798 C18.6075,3.798 18.8865,4.068 18.8865,4.482 C18.8865,4.914 18.5625,5.175 18.0675,5.175 Z M18.1845,7.839 L17.2935,7.839 L17.2935,6.345 L18.1845,6.345 C18.7425,6.345 19.0665,6.651 19.0665,7.092 C19.0665,7.551 18.7335,7.839 18.1845,7.839 Z M24.5655,9 L25.0245,7.704 L27.4905,7.704 L27.9495,9 L29.4975,9 L27.1215,2.619 L25.4745,2.619 L23.0715,9 L24.5655,9 Z M27.0405,6.408 L25.4925,6.408 L26.2755,4.203 L27.0405,6.408 Z M32.5485,9 L33.9165,4.77 L35.2755,9 L36.7425,9 L38.4795,2.619 L37.0215,2.619 L35.9865,6.714 L34.6635,2.619 L33.2055,2.619 L31.8825,6.705 L30.8295,2.619 L29.3175,2.619 L31.0545,9 L32.5485,9 Z M39.7845,9 L40.2435,7.704 L42.7095,7.704 L43.1685,9 L44.7165,9 L42.3405,2.619 L40.6935,2.619 L38.2905,9 L39.7845,9 Z M42.2595,6.408 L40.7115,6.408 L41.4945,4.203 L42.2595,6.408 Z M46.9215,9 L46.9215,6.624 L47.4255,6.624 L48.5685,9 L50.1345,9 L48.8385,6.417 C49.6215,6.138 50.0985,5.481 50.0985,4.617 C50.0985,3.483 49.2885,2.619 48.0285,2.619 L45.4995,2.619 L45.4995,9 L46.9215,9 Z M47.7585,5.4 L46.9215,5.4 L46.9215,3.852 L47.7585,3.852 C48.3435,3.852 48.6585,4.149 48.6585,4.626 C48.6585,5.076 48.3435,5.4 47.7585,5.4 Z M53.4555,9 C55.3815,9 56.6685,7.785 56.6685,5.814 C56.6685,3.843 55.3815,2.619 53.4645,2.619 L51.1515,2.619 L51.1515,9 L53.4555,9 Z M53.4015,7.659 L52.5735,7.659 L52.5735,3.96 L53.4015,3.96 C54.3825,3.96 55.1835,4.536 55.1835,5.814 C55.1835,7.092 54.3825,7.659 53.4015,7.659 Z M63.9225,9 L63.9225,7.812 L61.2225,7.812 C61.3035,7.641 61.4475,7.524 61.6185,7.416 L62.7255,6.759 C63.4725,6.318 63.8775,5.697 63.8775,4.941 C63.8775,3.897 63.0495,3.024 61.7085,3.024 C60.3045,3.024 59.5215,3.96 59.5215,5.004 C59.5215,5.184 59.5485,5.418 59.5755,5.49 L60.9075,5.499 C60.8715,5.382 60.8535,5.256 60.8535,5.139 C60.8535,4.653 61.1235,4.275 61.6725,4.275 C62.1945,4.275 62.4555,4.599 62.4555,4.968 C62.4555,5.355 62.2755,5.598 61.8165,5.868 L60.8625,6.426 C59.7915,7.047 59.4855,7.929 59.4855,9 L63.9225,9 Z M66.9915,9.144 C67.9455,9.144 68.5935,8.721 68.9805,8.145 C69.3855,7.533 69.4935,6.804 69.4935,6.084 C69.4935,5.364 69.3855,4.635 68.9805,4.023 C68.5935,3.438 67.9455,3.024 66.9915,3.024 C66.0465,3.024 65.3985,3.438 65.0115,4.023 C64.6065,4.635 64.4985,5.364 64.4985,6.084 C64.4985,6.804 64.6065,7.533 65.0115,8.145 C65.3985,8.721 66.0465,9.144 66.9915,9.144 Z M66.9915,7.893 C66.5595,7.893 66.2985,7.677 66.1365,7.353 C65.9745,7.011 65.9205,6.552 65.9205,6.084 C65.9205,5.616 65.9745,5.157 66.1365,4.815 C66.2985,4.491 66.5595,4.275 66.9915,4.275 C67.4325,4.275 67.6845,4.491 67.8465,4.815 C68.0175,5.157 68.0715,5.616 68.0715,6.084 C68.0715,6.552 68.0175,7.011 67.8465,7.353 C67.6845,7.677 67.4325,7.893 66.9915,7.893 Z M74.4885,9 L74.4885,7.812 L71.7885,7.812 C71.8695,7.641 72.0135,7.524 72.1845,7.416 L73.2915,6.759 C74.0385,6.318 74.4435,5.697 74.4435,4.941 C74.4435,3.897 73.6155,3.024 72.2745,3.024 C70.8705,3.024 70.0875,3.96 70.0875,5.004 C70.0875,5.184 70.1145,5.418 70.1415,5.49 L71.4735,5.499 C71.4375,5.382 71.4195,5.256 71.4195,5.139 C71.4195,4.653 71.6895,4.275 72.2385,4.275 C72.7605,4.275 73.0215,4.599 73.0215,4.968 C73.0215,5.355 72.8415,5.598 72.3825,5.868 L71.4285,6.426 C70.3575,7.047 70.0515,7.929 70.0515,9 L74.4885,9 Z M77.5575,9.144 C78.5115,9.144 79.1595,8.721 79.5465,8.145 C79.9515,7.533 80.0595,6.804 80.0595,6.084 C80.0595,5.364 79.9515,4.635 79.5465,4.023 C79.1595,3.438 78.5115,3.024 77.5575,3.024 C76.6125,3.024 75.9645,3.438 75.5775,4.023 C75.1725,4.635 75.0645,5.364 75.0645,6.084 C75.0645,6.804 75.1725,7.533 75.5775,8.145 C75.9645,8.721 76.6125,9.144 77.5575,9.144 Z M77.5575,7.893 C77.1255,7.893 76.8645,7.677 76.7025,7.353 C76.5405,7.011 76.4865,6.552 76.4865,6.084 C76.4865,5.616 76.5405,5.157 76.7025,4.815 C76.8645,4.491 77.1255,4.275 77.5575,4.275 C77.9985,4.275 78.2505,4.491 78.4125,4.815 C78.5835,5.157 78.6375,5.616 78.6375,6.084 C78.6375,6.552 78.5835,7.011 78.4125,7.353 C78.2505,7.677 77.9985,7.893 77.5575,7.893 Z" id="path-1"></path>
        <path d="M3.279,9.135 C3.795,9.135 4.2195,9 4.5525,8.73 C4.8855,8.46 5.112,8.145 5.232,7.785 L5.232,7.785 L4.485,7.461 C4.419,7.695 4.2915,7.902 4.1025,8.082 C3.9135,8.262 3.639,8.352 3.279,8.352 C2.907,8.352 2.5935,8.217 2.3385,7.947 C2.0835,7.677 1.956,7.305 1.956,6.831 C1.956,6.351 2.0835,5.979 2.3385,5.715 C2.5935,5.451 2.904,5.319 3.27,5.319 C3.606,5.319 3.867,5.409 4.053,5.589 C4.239,5.769 4.365,5.985 4.431,6.237 L4.431,6.237 L5.196,5.913 C5.094,5.535 4.8795,5.211 4.5525,4.941 C4.2255,4.671 3.798,4.536 3.27,4.536 C2.646,4.536 2.127,4.7505 1.713,5.1795 C1.299,5.6085 1.092,6.159 1.092,6.831 C1.092,7.491 1.299,8.04 1.713,8.478 C2.127,8.916 2.649,9.135 3.279,9.135 Z M8.031,9.135 C8.679,9.135 9.21,8.9175 9.624,8.4825 C10.038,8.0475 10.245,7.497 10.245,6.831 C10.245,6.171 10.0365,5.6235 9.6195,5.1885 C9.2025,4.7535 8.673,4.536 8.031,4.536 C7.389,4.536 6.858,4.755 6.438,5.193 C6.024,5.625 5.817,6.171 5.817,6.831 C5.817,7.497 6.024,8.0475 6.438,8.4825 C6.852,8.9175 7.383,9.135 8.031,9.135 Z M8.031,8.379 C7.653,8.379 7.332,8.244 7.068,7.974 C6.81,7.698 6.681,7.317 6.681,6.831 C6.681,6.351 6.8115,5.9745 7.0725,5.7015 C7.3335,5.4285 7.653,5.292 8.031,5.292 C8.409,5.292 8.7285,5.4285 8.9895,5.7015 C9.2505,5.9745 9.381,6.351 9.381,6.831 C9.381,7.317 9.2505,7.6965 8.9895,7.9695 C8.7285,8.2425 8.409,8.379 8.031,8.379 Z M13.017,9.117 C13.335,9.117 13.6095,9.0435 13.8405,8.8965 C14.0715,8.7495 14.244,8.565 14.358,8.343 L14.358,8.343 L14.358,8.415 C14.358,8.637 14.373,8.832 14.403,9 L14.403,9 L15.222,9 C15.192,8.76 15.177,8.493 15.177,8.199 L15.177,8.199 L15.177,2.484 L14.34,2.484 L14.34,5.283 C14.256,5.079 14.103,4.9065 13.881,4.7655 C13.659,4.6245 13.371,4.554 13.017,4.554 C12.417,4.554 11.925,4.7745 11.541,5.2155 C11.157,5.6565 10.965,6.192 10.965,6.822 C10.965,7.482 11.1525,8.0295 11.5275,8.4645 C11.9025,8.8995 12.399,9.117 13.017,9.117 Z M13.098,8.37 C12.702,8.37 12.3915,8.226 12.1665,7.938 C11.9415,7.65 11.829,7.278 11.829,6.822 C11.829,6.372 11.946,6.006 12.18,5.724 C12.414,5.442 12.723,5.301 13.107,5.301 C13.491,5.301 13.794,5.439 14.016,5.715 C14.238,5.991 14.349,6.354 14.349,6.804 C14.349,7.26 14.235,7.635 14.007,7.929 C13.779,8.223 13.476,8.37 13.098,8.37 Z M18.444,9.135 C18.93,9.135 19.344,9.0075 19.686,8.7525 C20.028,8.4975 20.262,8.169 20.388,7.767 L20.388,7.767 L19.659,7.515 C19.467,8.097 19.062,8.388 18.444,8.388 C18.078,8.388 17.7705,8.265 17.5215,8.019 C17.2725,7.773 17.145,7.458 17.139,7.074 L17.139,7.074 L20.397,7.074 C20.409,7.002 20.415,6.912 20.415,6.804 C20.415,6.114 20.232,5.5635 19.866,5.1525 C19.5,4.7415 18.99,4.536 18.336,4.536 C17.772,4.536 17.286,4.752 16.878,5.184 C16.47,5.616 16.266,6.162 16.266,6.822 C16.266,7.53 16.4775,8.0925 16.9005,8.5095 C17.3235,8.9265 17.838,9.135 18.444,9.135 Z M19.533,6.39 L17.166,6.39 C17.184,6.09 17.301,5.8305 17.517,5.6115 C17.733,5.3925 18.009,5.283 18.345,5.283 C18.717,5.283 19.005,5.3865 19.209,5.5935 C19.413,5.8005 19.521,6.066 19.533,6.39 L19.533,6.39 Z M23.322,9.135 C23.838,9.135 24.2625,9 24.5955,8.73 C24.9285,8.46 25.155,8.145 25.275,7.785 L25.275,7.785 L24.528,7.461 C24.462,7.695 24.3345,7.902 24.1455,8.082 C23.9565,8.262 23.682,8.352 23.322,8.352 C22.95,8.352 22.6365,8.217 22.3815,7.947 C22.1265,7.677 21.999,7.305 21.999,6.831 C21.999,6.351 22.1265,5.979 22.3815,5.715 C22.6365,5.451 22.947,5.319 23.313,5.319 C23.649,5.319 23.91,5.409 24.096,5.589 C24.282,5.769 24.408,5.985 24.474,6.237 L24.474,6.237 L25.239,5.913 C25.137,5.535 24.9225,5.211 24.5955,4.941 C24.2685,4.671 23.841,4.536 23.313,4.536 C22.689,4.536 22.17,4.7505 21.756,5.1795 C21.342,5.6085 21.135,6.159 21.135,6.831 C21.135,7.491 21.342,8.04 21.756,8.478 C22.17,8.916 22.692,9.135 23.322,9.135 Z M27.399,9.135 C27.747,9.135 28.0365,9.063 28.2675,8.919 C28.4985,8.775 28.674,8.607 28.794,8.415 C28.794,8.625 28.809,8.82 28.839,9 L28.839,9 L29.667,9 C29.631,8.784 29.613,8.547 29.613,8.289 L29.613,8.289 L29.613,6.12 C29.613,5.658 29.466,5.2785 29.172,4.9815 C28.878,4.6845 28.425,4.536 27.813,4.536 C27.345,4.536 26.943,4.6665 26.607,4.9275 C26.271,5.1885 26.082,5.526 26.04,5.94 L26.04,5.94 L26.85,6.129 C26.88,5.865 26.979,5.6535 27.147,5.4945 C27.315,5.3355 27.543,5.256 27.831,5.256 C28.143,5.256 28.377,5.328 28.533,5.472 C28.689,5.616 28.767,5.802 28.767,6.03 C28.767,6.216 28.656,6.324 28.434,6.354 L28.434,6.354 L27.264,6.525 C26.868,6.579 26.55,6.7185 26.31,6.9435 C26.07,7.1685 25.95,7.467 25.95,7.839 C25.95,8.193 26.085,8.4975 26.355,8.7525 C26.625,9.0075 26.973,9.135 27.399,9.135 Z M27.516,8.424 C27.306,8.424 27.1365,8.361 27.0075,8.235 C26.8785,8.109 26.814,7.962 26.814,7.794 C26.814,7.608 26.871,7.461 26.985,7.353 C27.099,7.245 27.252,7.176 27.444,7.146 L27.444,7.146 L28.767,6.948 L28.767,7.146 C28.767,7.59 28.653,7.914 28.425,8.118 C28.197,8.322 27.894,8.424 27.516,8.424 Z M31.773,9 L31.773,6.498 C31.773,6.156 31.8615,5.8725 32.0385,5.6475 C32.2155,5.4225 32.463,5.31 32.781,5.31 C33.453,5.31 33.789,5.673 33.789,6.399 L33.789,6.399 L33.789,9 L34.635,9 L34.635,6.255 C34.635,5.751 34.5015,5.34 34.2345,5.022 C33.9675,4.704 33.585,4.545 33.087,4.545 C32.487,4.545 32.043,4.794 31.755,5.292 L31.755,5.292 L31.755,4.671 L30.927,4.671 L30.927,9 L31.773,9 Z M37.065,10.809 L39.882,4.671 L38.973,4.671 L37.677,7.659 L36.327,4.671 L35.355,4.671 L37.218,8.523 L36.138,10.809 L37.065,10.809 Z M42.366,9.135 C43.014,9.135 43.545,8.9175 43.959,8.4825 C44.373,8.0475 44.58,7.497 44.58,6.831 C44.58,6.171 44.3715,5.6235 43.9545,5.1885 C43.5375,4.7535 43.008,4.536 42.366,4.536 C41.724,4.536 41.193,4.755 40.773,5.193 C40.359,5.625 40.152,6.171 40.152,6.831 C40.152,7.497 40.359,8.0475 40.773,8.4825 C41.187,8.9175 41.718,9.135 42.366,9.135 Z M42.366,8.379 C41.988,8.379 41.667,8.244 41.403,7.974 C41.145,7.698 41.016,7.317 41.016,6.831 C41.016,6.351 41.1465,5.9745 41.4075,5.7015 C41.6685,5.4285 41.988,5.292 42.366,5.292 C42.744,5.292 43.0635,5.4285 43.3245,5.7015 C43.5855,5.9745 43.716,6.351 43.716,6.831 C43.716,7.317 43.5855,7.6965 43.3245,7.9695 C43.0635,8.2425 42.744,8.379 42.366,8.379 Z M46.506,9 L46.506,6.498 C46.506,6.156 46.5945,5.8725 46.7715,5.6475 C46.9485,5.4225 47.196,5.31 47.514,5.31 C48.186,5.31 48.522,5.673 48.522,6.399 L48.522,6.399 L48.522,9 L49.368,9 L49.368,6.255 C49.368,5.751 49.2345,5.34 48.9675,5.022 C48.7005,4.704 48.318,4.545 47.82,4.545 C47.22,4.545 46.776,4.794 46.488,5.292 L46.488,5.292 L46.488,4.671 L45.66,4.671 L45.66,9 L46.506,9 Z" id="path-2"></path>
    </defs>
    <g id="Page-1" stroke="none" stroke-width="1" fill="none" fill-rule="evenodd">
        <g id="a3" fill-rule="nonzero">
            <g id="awards-web-construction-2019" transform="translate(0.000000, 1.000000)">
                <path d="M4.67321361,26 C2.83548497,25.9094175 1.51654307,25.3118414 0.716387908,24.2072719 C-0.083767249,23.1027024 -0.213634422,21.7002785 0.326786388,20 C2.16451503,20.0905825 3.48345693,20.6881586 4.28361209,21.7927281 C5.08376725,22.8972976 5.21363442,24.2997215 4.67321361,26 Z M6.35073884,26 C5.78806562,24.3401231 5.90239431,22.9578981 6.6937249,21.8533251 C7.48506652,20.7487591 8.80357861,20.1309841 10.6492612,20 C11.2119344,21.6598769 11.0976057,23.0421019 10.3062751,24.1466749 C9.51493348,25.2512409 8.19642139,25.8690159 6.35073884,26 Z M5.63086017,17 C4.1495842,16.1153371 3.29280806,14.9366259 3.06053176,13.4638666 C2.82825546,11.9911073 3.26445815,10.5031517 4.36913983,9 C5.8504158,9.88466294 6.70719194,11.0633741 6.93946824,12.5361334 C7.17174454,14.0088927 6.73554185,15.4968483 5.63086017,17 Z M10.2024486,8 C9.17230482,6.46774578 8.80405806,4.965239 9.09770836,3.49247967 C9.39135866,2.01972033 10.2913063,0.855560444 11.7975514,0 C12.8276952,1.53225422 13.1959419,3.034761 12.9022916,4.50752033 C12.6086413,5.98027967 11.7086937,7.14443956 10.2024486,8 Z M23,46.2919586 C22.3735794,48.1977859 21.4160368,49.3730939 20.1273724,49.8178824 C18.838708,50.262671 17.4629172,49.892724 16,48.7080414 C16.6264206,46.8022141 17.5839632,45.6269061 18.8726276,45.1821176 C20.161292,44.737329 21.5370828,45.107276 23,46.2919586 Z M14,43.0674369 C12.8037103,44.5387588 11.5612332,45.1699575 10.2725688,44.961033 C8.98390434,44.7521085 7.89304808,43.7426185 7,41.9325631 C8.19628975,40.4612412 9.43876683,39.8300425 10.7274312,40.038967 C12.0160957,40.2478915 13.1069519,41.2573815 14,43.0674369 Z M8,35.5277009 C6.42518499,36.1948961 5.08549274,36.1552043 3.98092324,35.4086254 C2.87635374,34.6620466 2.216046,33.3499378 2,31.4722991 C3.57481501,30.8051039 4.91450726,30.8447957 6.01907676,31.5913746 C7.12364626,32.3379534 7.783954,33.6500622 8,35.5277009 Z M7,17.5509392 C7.17558401,15.6784673 7.81565873,14.3646602 8.92022417,13.6095181 C10.0247977,12.8543903 11.384723,12.8009045 13,13.4490608 C12.824416,15.3215327 12.1843413,16.6353398 11.0797758,17.3904819 C9.97520227,18.1456097 8.615277,18.1990955 7,17.5509392 Z M11,8.45418661 C11.8455815,7.00609329 12.9127045,6.19843319 14.2013689,6.0312063 C15.4900333,5.86397941 16.7562437,6.36884844 18,7.54581339 C17.1544185,8.99390671 16.0872955,9.80156681 14.7986311,9.9687937 C13.5099667,10.1360206 12.2437563,9.63115156 11,8.45418661 Z M23.7773934,44.9999984 C21.9832141,45.0007656 20.6668678,44.4488647 19.8283547,43.3442958 C18.9898416,42.2397269 18.7879256,40.7916288 19.2226066,38.9999984 C21.0167859,38.9992344 22.3331322,39.5511353 23.1716453,40.6557042 C24.0101584,41.7602731 24.2120744,43.2083712 23.7773934,44.9999984 Z M15.8020909,42 C14.2952569,41.1986535 13.3941791,40.0616006 13.0988574,38.5888413 C12.8035357,37.116082 13.1698862,35.5864682 14.1979091,34 C15.7047431,34.8013465 16.6058209,35.9383994 16.9011426,37.4111587 C17.1964643,38.883918 16.8301138,40.4135318 15.8020909,42 Z M9.37130554,35 C8.26569697,33.5510816 7.82863214,32.0902428 8.06011105,30.6174834 C8.29158995,29.1447241 9.14778443,27.9388963 10.6286945,27 C11.734303,28.4489184 12.1713679,29.9097572 11.939889,31.3825166 C11.70841,32.8552759 10.8522156,34.0611037 9.37130554,35 Z" id="Shape" fill="#6B7C93"></path>
                <path d="M123.326786,26 C122.786366,24.2997215 122.916233,22.8972976 123.716388,21.7927281 C124.516543,20.6881586 125.835485,20.0905825 127.673214,20 C128.213634,21.7002785 128.083767,23.1027024 127.283612,24.2072719 C126.483457,25.3118414 125.164515,25.9094175 123.326786,26 Z M121.649261,26 C119.803579,25.8690159 118.485067,25.2512409 117.693725,24.1466749 C116.902394,23.0421019 116.788066,21.6598769 117.350739,20 C119.196421,20.1309841 120.514934,20.7487591 121.306275,21.8533251 C122.097606,22.9578981 122.211934,24.3401231 121.649261,26 Z M122.36914,17 C121.264458,15.4968483 120.828256,14.0088927 121.060532,12.5361334 C121.292808,11.0633741 122.149584,9.88466294 123.63086,9 C124.735542,10.5031517 125.171745,11.9911073 124.939468,13.4638666 C124.707192,14.9366259 123.850416,16.1153371 122.36914,17 Z M117.797551,8 C116.291306,7.14443956 115.391359,5.98027967 115.097708,4.50752033 C114.804058,3.034761 115.172305,1.53225422 116.202449,0 C117.708694,0.855560444 118.608641,2.01972033 118.902292,3.49247967 C119.195942,4.965239 118.827695,6.46774578 117.797551,8 Z M105,46.2919586 C106.462917,45.107276 107.838708,44.737329 109.127372,45.1821176 C110.416037,45.6269061 111.373579,46.8022141 112,48.7080414 C110.537083,49.892724 109.161292,50.262671 107.872628,49.8178824 C106.583963,49.3730939 105.626421,48.1977859 105,46.2919586 Z M114,43.0674369 C114.893048,41.2573815 115.983904,40.2478915 117.272569,40.038967 C118.561233,39.8300425 119.80371,40.4612412 121,41.9325631 C120.106952,43.7426185 119.016096,44.7521085 117.727431,44.961033 C116.438767,45.1699575 115.19629,44.5387588 114,43.0674369 Z M120,35.5277009 C120.216046,33.6500622 120.876354,32.3379534 121.980923,31.5913746 C123.085493,30.8447957 124.425185,30.8051039 126,31.4722991 C125.783954,33.3499378 125.123646,34.6620466 124.019077,35.4086254 C122.914507,36.1552043 121.574815,36.1948961 120,35.5277009 Z M121,17.5509392 C119.384723,18.1990955 118.024798,18.1456097 116.920224,17.3904819 C115.815659,16.6353398 115.175584,15.3215327 115,13.4490608 C116.615277,12.8009045 117.975202,12.8543903 119.079776,13.6095181 C120.184341,14.3646602 120.824416,15.6784673 121,17.5509392 Z M117,8.45418661 C115.756244,9.63115156 114.490033,10.1360206 113.201369,9.9687937 C111.912704,9.80156681 110.845582,8.99390671 110,7.54581339 C111.243756,6.36884844 112.509967,5.86397941 113.798631,6.0312063 C115.087296,6.19843319 116.154419,7.00609329 117,8.45418661 Z M104.222607,44.9999984 C103.787926,43.2083712 103.989842,41.7602731 104.828355,40.6557042 C105.666868,39.5511353 106.983214,38.9992344 108.777393,38.9999984 C109.212074,40.7916288 109.010158,42.2397269 108.171645,43.3442958 C107.333132,44.4488647 106.016786,45.0007656 104.222607,44.9999984 Z M112.197909,42 C111.169886,40.4135318 110.803536,38.883918 111.098857,37.4111587 C111.394179,35.9383994 112.295257,34.8013465 113.802091,34 C114.830114,35.5864682 115.196464,37.116082 114.901143,38.5888413 C114.605821,40.0616006 113.704743,41.1986535 112.197909,42 Z M118.628695,35 C117.147784,34.0611037 116.29159,32.8552759 116.060111,31.3825166 C115.828632,29.9097572 116.265697,28.4489184 117.371306,27 C118.852216,27.9388963 119.70841,29.1447241 119.939889,30.6174834 C120.171368,32.0902428 119.734303,33.5510816 118.628695,35 Z" id="Shape" fill="#6B7C93"></path>
                <rect id="Rectangle" fill="#6B7C93" x="24" y="32" width="80" height="1"></rect>
                <g id="Web-award-2020" transform="translate(20.000000, 17.000000)">
                    <g id="WEBAWARD2020">
                        <use fill="#000000" xlink:href="#path-1"></use>
                        <use fill="#6B7C93" xlink:href="#path-1"></use>
                    </g>
                </g>
                <g id="codecanyon" transform="translate(39.000000, 35.000000)">
                    <g>
                        <use fill="#000000" xlink:href="#path-2"></use>
                        <use fill="#6B7C93" xlink:href="#path-2"></use>
                    </g>
                </g>
            </g>
            <g id="l2" transform="translate(56.000000, 0.000000)" fill="#6B7C93">
                <path d="M13.9850086,5.75319164 C13.6011524,5.35318209 13.1573027,5.02810866 12.6900356,4.73725344 C12.6473105,4.7095029 12.6322723,4.68165676 12.6216628,4.63249589 C12.5499127,4.30955709 12.578874,3.98228526 12.5777589,3.65724366 C12.5734895,2.98778923 12.5798935,2.31836667 12.5734895,1.65114249 C12.5670219,1.15704868 12.1905892,0.780647832 11.6965909,0.755031929 C11.6666738,0.75289727 11.6367249,0.75289727 11.6068397,0.75289727 C9.94075459,0.75289727 8.27578461,0.75289727 6.6107509,0.755031929 C6.43545402,0.755031929 6.27283765,0.703640821 6.10601564,0.667287902 C5.5082794,0.538985362 4.93188972,0.342214446 4.35231399,0.153982164 C4.20151785,0.104821295 4.04645245,0.0705711756 3.89460493,0.0299170808 C3.85611738,0.0299170808 3.81651467,0.0299170808 3.77805895,0.0299170808 C3.78768084,0.0513592483 3.79195018,0.0769432908 3.80692464,0.0962507998 C3.96520796,0.295156375 4.12559413,0.49403009 4.28601213,0.692935666 C4.29888378,0.710076658 4.3116599,0.727122064 4.33093552,0.752801688 C4.29451891,0.752801688 4.27100577,0.752801688 4.24535804,0.752801688 C3.37062591,0.752801688 2.49375914,0.752801688 1.61686051,0.752801688 C1.1420742,0.752801688 0.768891279,1.06290067 0.690832866,1.51844319 C0.680191435,1.57834107 0.677993055,1.63817523 0.677993055,1.7002715 C0.677993055,2.45950902 0.676909796,3.21874655 0.679108177,3.98015059 C0.679108177,4.0357473 0.664101845,4.06569624 0.614940975,4.08917748 C0.544274218,4.12336389 0.476984683,4.16404982 0.410682824,4.20887768 C0.496228471,4.20470394 0.582825515,4.19829997 0.677993055,4.19173669 C0.677993055,4.21738442 0.677993055,4.23885846 0.677993055,4.25807038 C0.677993055,4.54468813 0.676909796,4.83127401 0.677993055,5.11566152 C0.679108177,5.15845028 0.665185103,5.18629642 0.629851725,5.20974578 C0.506901762,5.29532331 0.386054598,5.37876616 0.267373953,5.46641459 C0.175424331,5.53485112 0.0888272858,5.60545415 6.37211521e-05,5.67602532 C6.37211521e-05,5.68459584 6.37211521e-05,5.69319818 6.37211521e-05,5.70170496 C0.202123494,5.74229532 0.404246988,5.78508408 0.606402343,5.82357167 C0.663050447,5.83421308 0.679108177,5.85989272 0.679108177,5.91765594 C0.677993055,6.99346015 0.677993055,8.06706596 0.677993055,9.14287017 C0.677993055,10.0004294 0.676909796,10.8602508 0.677993055,11.7199129 C0.677993055,12.1797566 0.979553408,12.5476188 1.42442263,12.6310935 C1.48428865,12.643774 1.54845585,12.6482026 1.61042467,12.6482026 C4.95326815,12.6482026 8.29607979,12.6482026 11.6409942,12.6482026 C12.1670761,12.6482026 12.5649509,12.2673731 12.5734577,11.7434897 C12.5820282,11.2195425 12.5754968,10.6976663 12.5754968,10.1758538 C12.5754968,9.55342556 12.5754968,8.9310292 12.5754968,8.30653007 C12.5754968,8.28091416 12.5754968,8.2574329 12.5754968,8.22748395 C12.7904601,8.27027272 12.9690386,8.36225422 13.1048284,8.52480685 C13.3283303,8.78781593 13.5486781,9.05302334 13.7700135,9.32039729 C13.8822583,9.45730219 13.9924003,9.59630989 14.1057921,9.73525385 C14.1388952,9.77383701 14.1774147,9.80592062 14.2170173,9.84434448 C14.228742,9.82936999 14.2361974,9.82516442 14.2395109,9.81659391 C14.4212437,9.42512301 14.6105592,9.04231819 14.7827019,8.64460262 C14.8586256,8.46921017 14.9132028,8.27237552 14.9516904,8.08216788 C15.0008831,7.8405054 14.9527418,7.59450991 14.8971769,7.35708491 C14.750682,6.73261761 14.4234739,6.20867042 13.9850086,5.75319164 Z M14.4983144,8.37305493 C14.4363774,8.69175629 14.3764795,9.00822738 14.2341902,9.30981958 C14.2127799,9.26279338 14.192421,9.21573531 14.1689716,9.17087561 C14.0063871,8.85013519 13.7967445,8.56342187 13.5786588,8.27906623 C13.3775868,8.01819186 13.1188789,7.8384982 12.8386651,7.68018301 C12.2815192,7.36571912 11.6891355,7.13061992 11.090249,6.91024033 C11.0795471,6.90603473 11.0666755,6.90383636 11.0527842,6.90820123 C11.4302365,7.11354266 11.8077206,7.31891592 12.186288,7.52419362 C12.1829745,7.53053386 12.179884,7.53910437 12.1766979,7.54554021 C11.9638693,7.48787256 11.7478227,7.43651332 11.5371925,7.37027516 C11.2067983,7.27179412 11.3071909,7.31894779 10.5490367,7.09006139 C9.17498565,6.71576335 8.95575302,6.96386168 8.95575302,6.96386168 C10.2784767,7.10283751 10.5394466,7.37664727 11.2216772,7.72956688 C11.1875226,7.81925441 11.1553753,7.90706217 11.1232917,7.99474246 C11.0741308,8.12725058 11.0259577,8.25985431 10.973547,8.39236246 C10.9414634,8.47583715 10.9457327,8.55284416 10.9767968,8.63625515 C11.2495233,9.34846647 11.5339108,10.0605504 11.8045027,10.7728573 C11.8194772,10.8113448 11.8280476,10.8562045 11.8312337,10.8969223 L11.8312337,12.1223438 C11.8291628,12.1458569 11.8291628,12.1736712 11.8184576,12.1972799 C11.8184576,12.1993508 11.8151441,12.2015173 11.8141246,12.2037157 C11.6943288,12.3447625 11.5447116,12.3769098 11.3596972,12.3769098 C9.14181879,12.3705058 6.9240678,12.3748707 4.7072408,12.3748707 C3.64749432,12.3748707 2.5877797,12.3748707 1.52911648,12.3727361 C1.47565444,12.3727361 1.42005773,12.3705377 1.36873034,12.3619672 C1.12063204,12.3213449 0.97416897,12.1459844 0.958079379,11.8658343 C0.952758662,11.7460385 0.958079379,11.6262428 0.958079379,11.5044079 C0.958079379,11.4893379 0.964483355,11.4722288 0.971970589,11.457318 C1.24466526,10.9269031 1.45641065,10.3708405 1.66598952,9.81474601 C1.68198353,9.77202098 1.69810498,9.73139872 1.71094479,9.68647532 C1.52274437,10.0372284 1.25540227,10.3195131 0.970951052,10.5869189 C0.962412416,10.5847842 0.954893322,10.582554 0.947469809,10.5805149 C0.959226359,10.4051543 0.961392879,10.2276272 0.985957384,10.0522347 C1.08217632,9.36146559 1.18486296,8.67069643 1.28531935,7.97983171 C1.28531935,7.97559427 1.28321656,7.97129306 1.27894724,7.9542158 C1.1741578,8.3006677 1.07150303,8.63654192 0.969899654,8.97012213 C0.966681736,8.97012213 0.962412416,8.97012213 0.9581431,8.97012213 C0.9581431,8.93596758 0.9581431,8.90375657 0.9581431,8.87164109 C0.9581431,8.22789816 0.957091702,7.58628987 0.9581431,6.94264252 C0.9581431,6.90402749 0.966713596,6.86123876 0.983759003,6.82705235 C1.12917067,6.50640752 1.27894724,6.1876106 1.42646171,5.86894111 C1.46714766,5.78339545 1.437135,5.70224657 1.34521724,5.6807407 C1.19547253,5.64868896 1.04582341,5.62304119 0.896110558,5.59955995 C0.799859759,5.58238709 0.703608961,5.57384845 0.590249031,5.56094493 C0.626633807,5.5374637 0.650146914,5.52255294 0.673691878,5.50544382 C1.42439077,5.0070488 2.09378147,4.41896629 2.68406236,3.73664021 C2.71394758,3.70245379 2.7706594,3.66820368 2.73969092,3.61044046 C2.71082524,3.55704215 2.64770944,3.56554893 2.59963183,3.57622221 C2.40923303,3.61690817 2.21998121,3.6617997 2.03069753,3.71102431 C1.93976744,3.7324346 1.852119,3.76445448 1.757971,3.78369828 C2.41563701,3.22553285 3.07330302,2.66727183 3.73842441,2.10270243 C3.16735544,1.70699408 2.60160719,1.3155869 2.03595452,0.924211586 C2.03805732,0.91780761 2.0402557,0.913538294 2.0423585,0.907102458 C3.14059255,1.10170685 4.23882659,1.29420845 5.35305466,1.48881285 C5.01087206,1.11884785 4.68044604,0.761658929 4.33934674,0.39379672 C4.36712914,0.400200696 4.38213546,0.402367213 4.39494341,0.406604672 C5.52309455,0.783037376 6.64911102,1.16160474 7.77834544,1.53153788 C8.85838709,1.88442562 9.88283207,2.35494261 10.817462,3.00722418 C11.1950099,3.27032882 11.5372562,3.57402384 11.8033876,3.95249562 C11.934908,4.14069602 12.0386779,4.34179998 12.085736,4.57062264 C12.0889221,4.58776363 12.0793002,4.62191818 12.0655045,4.63052052 C11.9734912,4.68181606 11.9103754,4.75882308 11.8612464,4.84866991 C11.7734705,5.01332534 11.7295985,5.18878153 11.7371176,5.37481543 C11.7414506,5.47747021 11.702963,5.53096412 11.5981417,5.53096412 C11.5125642,5.53096412 11.4259035,5.52242547 11.3436713,5.50095148 C11.2345488,5.4732009 11.1276248,5.43251494 11.0195537,5.39622576 C11.0013613,5.39195642 10.9853354,5.38558431 10.9671749,5.37908477 C11.2045362,5.53309879 11.4462624,5.66997182 11.7328164,5.69561959 C11.8568178,5.706261 11.9830494,5.69769052 12.0835695,5.60580463 C12.1167682,5.57588755 12.1295124,5.54590674 12.1113838,5.49888051 C12.0599927,5.36197564 12.0963137,5.24224357 12.1990003,5.13955696 C12.2354488,5.10326774 12.2653341,5.09676819 12.3145268,5.12451877 C12.7978199,5.41540582 13.2448237,5.7490179 13.640564,6.15113024 C13.871585,6.38425408 14.0757476,6.63665354 14.2468707,6.91903385 C14.5218593,7.37005216 14.5988663,7.85544802 14.4983144,8.37305493 Z" id="Shape"></path>
                <path d="M8.1046296,4.86561973 C7.92933271,4.83783729 7.75394023,4.80575371 7.57963103,4.76946449 C7.53684226,4.76086214 7.51651522,4.76729799 7.491887,4.80365091 C7.42985444,4.8913312 7.33787298,4.91911364 7.23525006,4.89983798 C7.14116576,4.88276072 7.05988945,4.82716401 7.05131893,4.73304787 C7.04383171,4.63896357 6.98931828,4.62819472 6.92304828,4.61108556 C6.90160608,4.60691182 6.88019579,4.60254695 6.86101573,4.59397644 C6.82893211,4.57903385 6.80755368,4.58977086 6.78404058,4.6154186 C6.63219306,4.79291389 6.57229518,4.99602505 6.62359072,5.22701421 C6.69843119,5.56706217 7.02353653,5.80665368 7.40204017,5.80665368 C7.40420667,5.81089115 7.40528996,5.81726326 7.40634134,5.82379467 C7.51648335,5.7960441 7.6309584,5.78100591 7.73358131,5.73821718 C8.06505876,5.60558159 8.24583567,5.28270653 8.18698916,4.95116535 C8.17841869,4.89977424 8.16137326,4.87626114 8.1046296,4.86561973 Z" id="Path"></path>
            </g>
        </g>
    </g>
</svg>