<?xml version="1.0" encoding="UTF-8"?>
<svg width="1680px" height="868px" viewBox="0 0 1680 868" version="1.1" xmlns="http://www.w3.org/2000/svg" xmlns:xlink="http://www.w3.org/1999/xlink">
    <title>Artboard</title>
    <defs>
        <linearGradient x1="30.5101376%" y1="0%" x2="30.5101376%" y2="100%" id="linearGradient-1">
            <stop stop-color="#D6F3FB" offset="0%"></stop>
            <stop stop-color="#FFFFFF" offset="100%"></stop>
        </linearGradient>
        <linearGradient x1="30.5101376%" y1="0%" x2="30.5101376%" y2="50%" id="linearGradient-2">
            <stop stop-color="#00B9F4" stop-opacity="0.105332168" offset="0%"></stop>
            <stop stop-color="#FFFFFF" offset="100%"></stop>
        </linearGradient>
        <linearGradient x1="30.5101376%" y1="0%" x2="30.5101376%" y2="50%" id="linearGradient-3">
            <stop stop-color="#D6F3FB" stop-opacity="0.388275787" offset="0%"></stop>
            <stop stop-color="#FFFFFF" offset="100%"></stop>
        </linearGradient>
    </defs>
    <g id="Artboard" stroke="none" stroke-width="1" fill="none" fill-rule="evenodd">
        <g id="Group" transform="translate(-60.000000, 0.000000)">
            <polygon id="Rectangle--Group" fill="url(#linearGradient-1)" points="1740 1.42108547e-13 1740 307.928 1656.07294 304.028037 1561.765 407.426 1494.76489 441.761682 1447.965 421.443 1414.70229 381.441607 1395.793 398.792 1333.50203 371.748996 1253.92405 300.311167 1176.41191 325.355889 1097.72516 399.588557 1021.36299 420.803465 941.986255 356.359923 891.161 418.068 860.428684 381.441607 784.871495 441.424905 701.7245 417.230341 625.2268 342.391884 568.787 335.174 558.335463 304.746769 541.396 331.671 510.525427 327.723596 466.941534 392.703107 434.375 406.116 389.29797 363.563668 310.467472 457.150756 148.424266 283 60 287.121 60 1.42108547e-13"></polygon>
            <g id="Group-Copy" opacity="0.600000024" transform="translate(0.000000, 283.000000)">
                <path d="M1656.28419,21.5383956 L1496.12333,197.139119 L1414.65351,99.1649687 L1332.10293,174.914753 L1256.13154,60.441476 L1174.22692,252.772983 L1094.9131,196.87197 L937.26073,190.786608 L860.358446,99.1357723 L784.979958,158.977204 L701.464445,134.675407 L624.997023,59.866572 L510.768533,45.2587571 L467.272255,110.107641 L310.452128,174.697825 L152.409277,98.9808535 L74.3206719,125.679813 L17.704212,99.2156484 L0.516461119,629.741494 L1799.12099,629.741494 L1783.0967,27.4323775 L1656.28419,21.5383956 Z" id="Path-4" stroke="#9086C5" fill="url(#linearGradient-2)"></path>
                <path d="M148.216071,0.510247482 L17.716137,6.59321771 L0.513913179,635.169446 L1799.1199,629.743044 L1783.10783,74.1881174 L1727.45358,104.454006 L1647.41287,81.0993854 L1494.78258,159.314449 L1333.22843,89.1753035 L1253.80408,17.875383 L1176.67297,42.7969894 L1097.97824,117.037182 L1021.24819,138.354296 L942.056557,74.0610348 L863.555087,169.37254 L705.954201,175.363001 L630.719081,234.002199 L558.202132,22.8976646 L472.236159,159.542929 L389.339512,81.2904672 L310.486093,174.904767 L148.216071,0.510247482 Z" id="Path-5" stroke="#62CDF0" fill="url(#linearGradient-3)"></path>
            </g>
        </g>
    </g>
</svg>