<?xml version="1.0" encoding="UTF-8"?>
<svg width="96px" height="96px" viewBox="0 0 96 96" version="1.1" xmlns="http://www.w3.org/2000/svg" xmlns:xlink="http://www.w3.org/1999/xlink">
    <title>iconmonstr-shape-15</title>
    <defs>
        <linearGradient x1="0%" y1="100%" x2="100%" y2="0%" id="linearGradient-1">
            <stop stop-color="#E9E9FA" offset="0%"></stop>
            <stop stop-color="#F7FCFE" offset="100%"></stop>
        </linearGradient>
    </defs>
    <g id="Business" stroke="none" stroke-width="1" fill="none" fill-rule="evenodd">
        <g id="services" transform="translate(-643.000000, -781.000000)">
            <g id="iconmonstr-shape-15" transform="translate(643.000000, 781.000000)">
                <path d="M48,0 C10.272,0 0,10.272 0,48 C0,85.728 10.204,96 48,96 C85.796,96 96,85.796 96,48 C96,10.204 85.728,0 48,0 Z" id="Path" fill="url(#linearGradient-1)"></path>
                <g id="Group-153" transform="translate(24.000000, 23.000000)">
                    <path d="M31.207,48.3104 L4.19,48.3104 C1.987,48.3104 0.201,46.5244 0.201,44.3214 L0.201,17.3044 C0.201,15.1014 1.987,13.3154 4.19,13.3154 L31.207,13.3154 C33.41,13.3154 35.195,15.1014 35.195,17.3044 L35.195,44.3214 C35.195,46.5244 33.41,48.3104 31.207,48.3104" id="Fill-1239" fill="#DFE8F4"></path>
                    <path d="M6.0791,41.2333 L6.0791,43.1423 C6.0791,45.9963 8.3921,48.3103 11.2471,48.3103 L31.2061,48.3103 C33.4101,48.3103 35.1951,46.5243 35.1951,44.3213 L35.1951,19.0173 L6.0791,41.2333 Z" id="Fill-1240" fill="#CCD8E5"></path>
                    <path d="M20.3945,35.621 L46.6465,9.368 C47.9875,8.027 48.5105,6.074 48.0205,4.243 C47.5295,2.412 46.0995,0.981 44.2685,0.491 C42.4375,-7.04991621e-15 40.4835,0.524 39.1435,1.864 L12.8905,28.117 C10.9035,30.103 9.3495,32.48 8.3265,35.097 L6.1665,40.618 C5.7435,41.7 6.8115,42.767 7.8935,42.345 L13.4155,40.184 C16.0315,39.161 18.4075,37.607 20.3945,35.621" id="Fill-1241" fill="#0795FF"></path>
                    <path d="M48.0205,4.243 C47.5295,2.412 46.0995,0.981 44.2685,0.491 C42.4375,-7.04991621e-15 40.4835,0.524 39.1435,1.864 L33.8025,7.205 C35.1435,5.864 37.0965,5.341 38.9275,5.831 C40.7585,6.322 42.1895,7.752 42.6795,9.583 C43.1705,11.414 42.6475,13.368 41.3065,14.708 L46.6465,9.368 C47.9875,8.027 48.5105,6.074 48.0205,4.243" id="Fill-1242" fill="#156CDD"></path>
                    <path d="M12.0547,32.704 C11.1967,32.475 10.3117,32.47 9.4757,32.665 C9.0417,33.449 8.6547,34.259 8.3257,35.097 L6.1667,40.618 C5.7427,41.7 6.8117,42.767 7.8937,42.345 L13.4147,40.184 C14.2517,39.857 15.0627,39.47 15.8457,39.036 C16.0417,38.199 16.0367,37.314 15.8067,36.456 C15.3167,34.625 13.8857,33.195 12.0547,32.704" id="Fill-1243" fill="#FFFFFF"></path>
                    <path d="M7.8936,42.3446 L11.4386,40.9576 C11.4296,40.9206 11.4256,40.8836 11.4156,40.8466 C10.9256,39.0156 9.4956,37.5856 7.6646,37.0946 C7.6276,37.0846 7.5896,37.0806 7.5536,37.0726 L6.1666,40.6176 C5.7436,41.6996 6.8116,42.7676 7.8936,42.3446" id="Fill-1244" fill="#156CDD"></path>
                </g>
            </g>
        </g>
    </g>
</svg>