<?xml version="1.0" encoding="UTF-8"?>
<svg width="96px" height="96px" viewBox="0 0 96 96" version="1.1" xmlns="http://www.w3.org/2000/svg" xmlns:xlink="http://www.w3.org/1999/xlink">
    <title>iconmonstr-shape-15 copy</title>
    <defs>
        <linearGradient x1="0%" y1="100%" x2="100%" y2="0%" id="linearGradient-1">
            <stop stop-color="#E9E9FA" offset="0%"></stop>
            <stop stop-color="#F7FCFE" offset="100%"></stop>
        </linearGradient>
    </defs>
    <g id="Business" stroke="none" stroke-width="1" fill="none" fill-rule="evenodd">
        <g id="services" transform="translate(-789.000000, -781.000000)">
            <g id="iconmonstr-shape-15-copy" transform="translate(789.000000, 781.000000)">
                <path d="M48,0 C10.272,0 0,10.272 0,48 C0,85.728 10.204,96 48,96 C85.796,96 96,85.796 96,48 C96,10.204 85.728,0 48,0 Z" id="Path" fill="url(#linearGradient-1)"></path>
                <g id="Group-71" transform="translate(24.000000, 24.000000)">
                    <path d="M45.4785,24.1083 L26.5215,24.1083 C25.1285,24.1083 23.9995,22.9793 23.9995,21.5873 L23.9995,2.6293 C23.9995,1.2373 25.1285,0.1083 26.5215,0.1083 L45.4785,0.1083 C46.8715,0.1083 47.9995,1.2373 47.9995,2.6293 L47.9995,21.5873 C47.9995,22.9793 46.8715,24.1083 45.4785,24.1083" id="Fill-589" fill="#156CDD"></path>
                    <path d="M32.0742,7.497 L32.0742,16.721 C32.0742,17.391 32.8152,17.796 33.3802,17.435 L40.5952,12.823 C41.1182,12.489 41.1182,11.727 40.5952,11.393 L33.3802,6.782 C32.8152,6.421 32.0742,6.826 32.0742,7.497" id="Fill-590" fill="#0795FF"></path>
                    <path d="M39.2285,47.2235 C38.0485,48.4035 36.1345,48.4035 34.9555,47.2235 L25.7965,38.0655 C24.6175,36.8855 24.6175,34.9715 25.7965,33.7915 C26.9775,32.6125 28.8905,32.6125 30.0715,33.7915 L39.2285,42.9505 C40.4085,44.1295 40.4085,46.0435 39.2285,47.2235" id="Fill-591" fill="#DFE8F4"></path>
                    <path d="M10.0869,34.496 C3.9949,29.777 3.9969,20.643 10.0899,15.926 C14.2429,12.71 20.1919,12.71 24.3449,15.927 C30.4379,20.644 30.4369,29.779 24.3439,34.497 C20.1909,37.713 14.2399,37.713 10.0869,34.496" id="Fill-592" fill="#0795FF"></path>
                    <path d="M26.5215,24.1083 L28.8535,24.1083 C28.5635,21.0253 27.0675,18.0343 24.3445,15.9263 C24.2335,15.8393 24.1145,15.7643 24.0005,15.6813 L24.0005,21.5873 C24.0005,22.9793 25.1285,24.1083 26.5215,24.1083" id="Fill-593" fill="#156CDD"></path>
                    <path d="M10.0869,34.496 C3.9949,29.777 3.9969,20.643 10.0899,15.926 C14.2429,12.71 20.1919,12.71 24.3449,15.927 C30.4379,20.644 30.4369,29.779 24.3439,34.497 C20.1909,37.713 14.2399,37.713 10.0869,34.496 M39.1719,42.893 L34.4429,38.164 C32.6609,36.383 32.0089,33.708 32.9249,31.36 C35.2499,25.408 34.0789,18.397 29.3989,13.522 C23.1669,7.03 12.6489,6.622 5.9519,12.635 C-1.2971,19.143 -1.5221,30.35 5.2769,37.15 C10.1549,42.027 17.2929,43.281 23.3439,40.929 C25.7129,40.008 28.4099,40.679 30.2069,42.475 L34.9549,47.224 C36.2799,48.549 38.5319,48.386 39.6299,46.732 C40.4269,45.531 40.1919,43.913 39.1719,42.893" id="Fill-594" fill="#DFE8F4"></path>
                    <path d="M24,9.7811 L24,15.6811 C24.114,15.7641 24.233,15.8401 24.345,15.9271 C27.067,18.0341 28.563,21.0251 28.854,24.1081 L34.042,24.1081 C33.797,20.2681 32.256,16.4971 29.399,13.5221 C27.829,11.8851 25.985,10.6381 24,9.7811" id="Fill-595" fill="#CCD8E5"></path>
                    <path d="M36.3535,40.0751 L32.0805,44.3481 L34.9555,47.2231 C36.1345,48.4031 38.0485,48.4031 39.2285,47.2231 C40.4095,46.0441 40.4095,44.1301 39.2285,42.9501 L36.3535,40.0751 Z" id="Fill-596" fill="#156CDD"></path>
                    <polygon id="Fill-597" fill="#0795FF" points="36.3535 40.0751 32.0805 44.3481 33.3755 45.6441 37.6495 41.3711"></polygon>
                </g>
            </g>
        </g>
    </g>
</svg>