<?xml version="1.0" encoding="UTF-8"?>
<svg width="96px" height="96px" viewBox="0 0 96 96" version="1.1" xmlns="http://www.w3.org/2000/svg" xmlns:xlink="http://www.w3.org/1999/xlink">
    <title>iconmonstr-shape-15 copy 3</title>
    <defs>
        <linearGradient x1="0%" y1="100%" x2="100%" y2="0%" id="linearGradient-1">
            <stop stop-color="#E9E9FA" offset="0%"></stop>
            <stop stop-color="#F7FCFE" offset="100%"></stop>
        </linearGradient>
    </defs>
    <g id="Business" stroke="none" stroke-width="1" fill="none" fill-rule="evenodd">
        <g id="services" transform="translate(-1081.000000, -781.000000)">
            <g id="iconmonstr-shape-15-copy-3" transform="translate(1081.000000, 781.000000)">
                <path d="M48,0 C10.272,0 0,10.272 0,48 C0,85.728 10.204,96 48,96 C85.796,96 96,85.796 96,48 C96,10.204 85.728,0 48,0 Z" id="Path" fill="url(#linearGradient-1)"></path>
                <g id="Group-85" transform="translate(24.000000, 24.000000)">
                    <path d="M36,12.1083 C36,18.7363 30.627,24.1083 24,24.1083 C17.373,24.1083 12,18.7363 12,12.1083 C12,5.4813 17.373,0.1083 24,0.1083 C30.627,0.1083 36,5.4813 36,12.1083" id="Fill-706" fill="#0795FF"></path>
                    <path d="M44.5581,23.078 L36.1021,27.021 C34.9961,27.537 33.7781,27.766 32.5601,27.688 L24.4211,27.167 C24.1511,27.15 23.8861,27.24 23.6831,27.419 L23.2241,27.821 C22.8111,28.183 22.1861,28.154 21.8091,27.755 C21.4231,27.345 21.4421,26.699 21.8511,26.312 L23.5131,24.747 C24.3801,23.929 24.7791,22.729 24.5731,21.555 L24.4701,20.97 C24.2591,19.768 23.0281,19.038 21.8731,19.428 L18.5591,20.545 C12.8111,22.483 7.7531,26.055 4.0031,30.822 L1.0001,34.641 L10.6621,46.682 L14.0031,46.682 L18.1471,40.367 C18.9391,39.159 20.2871,38.432 21.7301,38.432 L33.0681,38.432 C34.4951,38.432 35.8681,37.882 36.9001,36.897 L47.2501,27.021 C47.7291,26.565 48.0001,25.932 48.0001,25.271 C48.0001,23.502 46.1621,22.331 44.5581,23.078" id="Fill-707" fill="#DFE8F4"></path>
                    <polygon id="Fill-708" fill="#CCD8E5" points="1.5049 33.9979 1.5049 35.2689 10.5989 46.6029 14.0549 46.6029 16.3009 43.1809 3.9759 30.8559"></polygon>
                    <path d="M0,34.08 L0,47.953 C0,48.039 0.07,48.108 0.156,48.108 L13.859,48.108 C15.468,48.108 16.273,46.164 15.136,45.026 L2.962,32.852 C1.87,31.76 0,32.534 0,34.08" id="Fill-709" fill="#0795FF"></path>
                    <path d="M12.1357,48.0262 L-0.0003,35.8902 L-0.0003,47.9532 C-0.0003,48.0392 0.0697,48.1082 0.1557,48.1082 L12.1967,48.1082 C12.1727,48.0822 12.1607,48.0512 12.1357,48.0262" id="Fill-710" fill="#156CDD"></path>
                    <path d="M24.6069,7.3759 L25.7319,9.6559 C25.8309,9.8549 26.0209,9.9939 26.2419,10.0259 L28.7579,10.3919 C29.3129,10.4729 29.5339,11.1539 29.1329,11.5459 L27.3119,13.3209 C27.1529,13.4769 27.0799,13.6999 27.1169,13.9199 L27.5469,16.4259 C27.6419,16.9789 27.0619,17.3999 26.5649,17.1389 L24.3149,15.9559 C24.1179,15.8529 23.8819,15.8529 23.6849,15.9559 L21.4349,17.1389 C20.9379,17.3999 20.3579,16.9789 20.4529,16.4259 L20.8829,13.9199 C20.9199,13.6999 20.8469,13.4769 20.6879,13.3209 L18.8669,11.5459 C18.4659,11.1539 18.6869,10.4729 19.2419,10.3919 L21.7579,10.0259 C21.9789,9.9939 22.1689,9.8549 22.2679,9.6559 L23.3929,7.3759 C23.6419,6.8729 24.3579,6.8729 24.6069,7.3759" id="Fill-711" fill="#FFFFFF"></path>
                </g>
            </g>
        </g>
    </g>
</svg>