<?xml version="1.0" encoding="UTF-8"?>
<svg width="128px" height="128px" viewBox="0 0 128 128" version="1.1" xmlns="http://www.w3.org/2000/svg" xmlns:xlink="http://www.w3.org/1999/xlink">
    <title>Artboard</title>
    <g id="Artboard" stroke="none" stroke-width="1" fill="none" fill-rule="evenodd">
        <g id="interaction,-interact,-preferences,-preformance,-award,-reward,-medal,-good" transform="translate(11.000000, 0.000000)" fill-rule="nonzero">
            <path d="M35.7866667,127.066667 L45.3333333,117.626667 C49.8292902,113.144517 57.1040432,113.144517 61.6,117.626667 L71.0133333,127.066667 C71.9286591,127.985184 73.3078183,128.260506 74.5056577,127.763841 C75.7034972,127.267176 76.4831877,126.096721 76.4800097,124.8 L76.4800097,63.68 L30.3199903,63.68 L30.3199903,124.8 C30.3168123,126.096721 31.0965028,127.267176 32.2943423,127.763841 C33.4921817,128.260506 34.8713409,127.985184 35.7866667,127.066667 Z" id="Path" fill="#156CDD"></path>
            <path d="M61.76,3.76 L61.76,3.76 C64.9830215,0.207410931 70.0901328,-0.937918024 74.5216035,0.898062403 C78.9530741,2.73404283 81.7537873,7.15562294 81.52,11.9466667 L81.52,11.9466667 C81.3208008,15.1581663 82.4928671,18.3034944 84.7451111,20.6014951 C86.9973551,22.8994958 90.1184773,24.1345767 93.3333333,24 L93.3333333,24 C98.1243771,23.7662127 102.545957,26.5669259 104.381938,30.9983965 C106.217918,35.4298672 105.072589,40.5369785 101.52,43.76 L101.52,43.76 C99.137772,45.9137463 97.7784571,48.9751821 97.7784571,52.1866667 C97.7784571,55.3981512 99.137772,58.4595871 101.52,60.6133333 L101.52,60.6133333 C104.965948,63.8553718 106.041684,68.8937396 104.220261,73.2604078 C102.398838,77.627076 98.0616814,80.4076205 93.3333333,80.24 L93.3333333,80.24 C90.1248971,80.0775237 86.9976763,81.2811148 84.7260622,83.5527289 C82.4544481,85.824343 81.250857,88.9515638 81.4133333,92.16 L81.4133333,92.16 C81.6471206,96.9510437 78.8464075,101.372624 74.4149368,103.208604 C69.9834661,105.044585 64.8763548,103.899256 61.6533333,100.346667 L61.6533333,100.346667 C59.4995871,97.9644387 56.4381512,96.6051238 53.2266667,96.6051238 C50.0151821,96.6051238 46.9537463,97.9644387 44.8,100.346667 L44.8,100.346667 C41.5769785,103.899256 36.4698672,105.044585 32.0383965,103.208604 C27.6069259,101.372624 24.8062127,96.9510437 25.04,92.16 L25.04,92.16 C25.1980541,88.9901707 24.0228666,85.8987556 21.7990284,83.6343919 C19.5751903,81.3700282 16.5054998,80.1392099 13.3333333,80.24 L13.3333333,80.24 C8.54228961,80.4737873 4.1207095,77.6730741 2.28472907,73.2416035 C0.448748643,68.8101328 1.5940776,63.7030215 5.14666667,60.48 L5.14666667,60.48 C7.52889466,58.3262537 8.88820955,55.2648179 8.88820955,52.0533333 C8.88820955,48.8418488 7.52889466,45.7804129 5.14666667,43.6266667 L5.14666667,43.6266667 C1.70071846,40.3846282 0.624982837,35.3462604 2.44640559,30.9795922 C4.26782834,26.612924 8.60498525,23.8323795 13.3333333,24 L13.3333333,24 C16.5417695,24.1624763 19.6689903,22.9588852 21.9406045,20.6872711 C24.2122186,18.415657 25.4158096,15.2884362 25.2533333,12.08 L25.2533333,12.08 C25.0195461,7.28895628 27.8202592,2.86737616 32.2517299,1.03139574 C36.6832005,-0.80458469 41.7903119,0.340744264 45.0133333,3.89333333 L45.0133333,3.89333333 C47.1794444,6.23064746 50.2294915,7.54802344 53.4160933,7.52265241 C56.6026951,7.49728138 59.6313795,6.13150785 61.76,3.76 Z" id="Path" fill="#DFE8F4"></path>
            <path d="M62.88,43.2266667 C62.6299904,43.2314039 62.3912721,43.122722 62.2306821,42.9310501 C62.0700922,42.7393783 62.0048908,42.4853173 62.0533333,42.24 L63.0666667,36.9066667 C63.1727362,36.3529476 63.2263071,35.7904533 63.2266667,35.2266667 L63.2266667,35.2266667 C63.1876135,32.0391541 61.2599073,29.1790248 58.32,27.9466667 L58.32,27.9466667 C57.8309843,27.7538812 57.2784702,27.8135868 56.8419279,28.1063895 C56.4053857,28.3991922 56.1405079,28.8877374 56.1333333,29.4133333 L56.1333333,29.4133333 C56.1251395,32.6811774 55.3098831,35.896402 53.76,38.7733333 L53.76,38.7733333 C51.3103581,43.2282309 46.6306464,45.9972307 41.5466667,46 L35.28,46 L35.28,70.4 L41.3333333,70.4 C43.9328974,70.4061167 46.5154076,70.8200382 48.9866667,71.6266667 L48.9866667,71.6266667 C51.4459776,72.4446793 54.0215533,72.8589327 56.6133333,72.8533893 L70.4533333,72.8533893 C76.6132751,72.8641722 81.8215408,68.295518 82.6133333,62.1866667 L84.2666667,49.0933333 C84.4500651,47.6376924 84.000195,46.1733148 83.0311855,45.0717041 C82.0621761,43.9700933 80.6671439,43.3371083 79.2,43.3333333 L62.88,43.2266667 Z" id="Path" fill="#FFFFFF"></path>
            <path d="M26.1333333,44.6933333 L39.6266667,44.6933333 C40.4219567,44.6933333 41.0666667,45.3380433 41.0666667,46.1333333 L41.0666667,70.32 C41.0666667,70.7471002 40.7204335,71.0933333 40.2933333,71.0933333 L26.1333333,71.0933333 C24.0420151,71.0933333 22.3466667,69.3979849 22.3466667,67.3066667 L22.3466667,48.48 C22.3466667,46.3886817 24.0420151,44.6933333 26.1333333,44.6933333 L26.1333333,44.6933333 Z" id="Path" fill="#0795FF"></path>
        </g>
    </g>
</svg>