<?xml version="1.0" encoding="UTF-8"?>
<svg width="96px" height="96px" viewBox="0 0 96 96" version="1.1" xmlns="http://www.w3.org/2000/svg" xmlns:xlink="http://www.w3.org/1999/xlink">
    <title>iconmonstr-shape-15 copy 2</title>
    <defs>
        <linearGradient x1="0%" y1="100%" x2="100%" y2="0%" id="linearGradient-1">
            <stop stop-color="#E9E9FA" offset="0%"></stop>
            <stop stop-color="#F7FCFE" offset="100%"></stop>
        </linearGradient>
    </defs>
    <g id="Business" stroke="none" stroke-width="1" fill="none" fill-rule="evenodd">
        <g id="services" transform="translate(-935.000000, -781.000000)">
            <g id="iconmonstr-shape-15-copy-2" transform="translate(935.000000, 781.000000)">
                <path d="M48,0 C10.272,0 0,10.272 0,48 C0,85.728 10.204,96 48,96 C85.796,96 96,85.796 96,48 C96,10.204 85.728,0 48,0 Z" id="Path" fill="url(#linearGradient-1)"></path>
                <g id="Group-135" transform="translate(24.000000, 24.000000)">
                    <path d="M34.3267,10.4901 C34.3267,16.1121 29.7687,20.6701 24.1467,20.6701 C18.5247,20.6701 13.9667,16.1121 13.9667,10.4901 C13.9667,4.8681 18.5247,0.3101 24.1467,0.3101 C29.7687,0.3101 34.3267,4.8681 34.3267,10.4901" id="Fill-1114" fill="#156CDD"></path>
                    <path d="M27.8955,9.4149 L27.8955,7.7389 C27.8955,6.3989 27.1815,5.1619 26.0205,4.4919 C24.8615,3.8219 23.4325,3.8219 22.2725,4.4919 C21.1125,5.1619 20.3975,6.3989 20.3975,7.7389 L20.3975,9.4149 C20.3975,10.5899 21.0245,11.6759 22.0415,12.2629 C23.3445,13.0149 24.9495,13.0149 26.2515,12.2629 C27.2695,11.6759 27.8955,10.5899 27.8955,9.4149" id="Fill-1115" fill="#FFFFFF"></path>
                    <path d="M24.1465,20.6698 C26.8645,20.6698 29.3275,19.5988 31.1535,17.8628 C29.7155,15.4938 27.1205,13.9058 24.1465,13.9058 C21.1735,13.9058 18.5785,15.4938 17.1405,17.8628 C18.9655,19.5988 21.4285,20.6698 24.1465,20.6698" id="Fill-1116" fill="#0795FF"></path>
                    <path d="M20.5068,38.1297 C20.5068,43.7517 15.9488,48.3107 10.3268,48.3107 C4.7048,48.3107 0.1468,43.7517 0.1468,38.1297 C0.1468,32.5077 4.7048,27.9497 10.3268,27.9497 C15.9488,27.9497 20.5068,32.5077 20.5068,38.1297" id="Fill-1117" fill="#156CDD"></path>
                    <path d="M14.0757,37.0555 L14.0757,35.3785 C14.0757,34.0385 13.3607,32.8015 12.2007,32.1325 C11.0407,31.4625 9.6127,31.4625 8.4517,32.1325 C7.2927,32.8015 6.5777,34.0385 6.5777,35.3785 L6.5777,37.0555 C6.5777,38.2305 7.2047,39.3155 8.2217,39.9035 C9.5247,40.6555 11.1287,40.6555 12.4317,39.9035 C13.4487,39.3155 14.0757,38.2305 14.0757,37.0555" id="Fill-1118" fill="#FFFFFF"></path>
                    <path d="M10.3267,48.3104 C13.0447,48.3104 15.5077,47.2384 17.3327,45.5024 C15.8957,43.1334 13.2997,41.5454 10.3267,41.5454 C7.3537,41.5454 4.7577,43.1334 3.3207,45.5024 C5.1457,47.2384 7.6087,48.3104 10.3267,48.3104" id="Fill-1119" fill="#0795FF"></path>
                    <path d="M48.2554,38.1297 C48.2554,43.7517 43.6974,48.3107 38.0754,48.3107 C32.4534,48.3107 27.8954,43.7517 27.8954,38.1297 C27.8954,32.5077 32.4534,27.9497 38.0754,27.9497 C43.6974,27.9497 48.2554,32.5077 48.2554,38.1297" id="Fill-1120" fill="#156CDD"></path>
                    <path d="M41.8242,37.0555 L41.8242,35.3785 C41.8242,34.0385 41.1102,32.8015 39.9492,32.1325 C38.7902,31.4625 37.3612,31.4625 36.2012,32.1325 C35.0412,32.8015 34.3262,34.0385 34.3262,35.3785 L34.3262,37.0555 C34.3262,38.2305 34.9532,39.3155 35.9702,39.9035 C37.2732,40.6555 38.8782,40.6555 40.1802,39.9035 C41.1982,39.3155 41.8242,38.2305 41.8242,37.0555" id="Fill-1121" fill="#FFFFFF"></path>
                    <path d="M38.0757,48.3104 C40.7937,48.3104 43.2567,47.2384 45.0817,45.5024 C43.6447,43.1334 41.0487,41.5454 38.0757,41.5454 C35.1027,41.5454 32.5067,43.1334 31.0697,45.5024 C32.8947,47.2384 35.3577,48.3104 38.0757,48.3104" id="Fill-1122" fill="#0795FF"></path>
                    <path d="M24.147,28.0174 C23.595,28.0174 23.147,27.5704 23.147,27.0174 L23.147,23.7694 C23.147,23.2164 23.595,22.7694 24.147,22.7694 C24.699,22.7694 25.147,23.2164 25.147,23.7694 L25.147,27.0174 C25.147,27.5704 24.699,28.0174 24.147,28.0174" id="Fill-1123" fill="#DFE8F4"></path>
                    <path d="M21.0864,30.3524 C20.7844,30.3524 20.4874,30.2164 20.2904,29.9584 C19.9554,29.5194 20.0404,28.8924 20.4794,28.5574 L24.1474,25.7594 L27.8144,28.5574 C28.2534,28.8924 28.3374,29.5194 28.0034,29.9584 C27.6694,30.3974 27.0414,30.4844 26.6014,30.1474 L24.1474,28.2754 L21.6914,30.1474 C21.5104,30.2864 21.2974,30.3524 21.0864,30.3524" id="Fill-1124" fill="#DFE8F4"></path>
                </g>
            </g>
        </g>
    </g>
</svg>