<?xml version="1.0" encoding="UTF-8"?>
<svg width="96px" height="96px" viewBox="0 0 96 96" version="1.1" xmlns="http://www.w3.org/2000/svg" xmlns:xlink="http://www.w3.org/1999/xlink">
    <title>iconmonstr-shape-15 copy 4</title>
    <defs>
        <linearGradient x1="0%" y1="100%" x2="100%" y2="0%" id="linearGradient-1">
            <stop stop-color="#E9E9FA" offset="0%"></stop>
            <stop stop-color="#F7FCFE" offset="100%"></stop>
        </linearGradient>
    </defs>
    <g id="Business" stroke="none" stroke-width="1" fill="none" fill-rule="evenodd">
        <g id="services" transform="translate(-1227.000000, -781.000000)">
            <g id="iconmonstr-shape-15-copy-4" transform="translate(1227.000000, 781.000000)">
                <path d="M48,0 C10.272,0 0,10.272 0,48 C0,85.728 10.204,96 48,96 C85.796,96 96,85.796 96,48 C96,10.204 85.728,0 48,0 Z" id="Path" fill="url(#linearGradient-1)"></path>
                <g id="Group-48" transform="translate(24.000000, 23.000000)">
                    <path d="M24,0.0009 C10.745,0.0009 0,10.7459 0,24.0009 C0,37.2559 10.745,48.0009 24,48.0009 C37.255,48.0009 48,37.2559 48,24.0009 C48,10.7459 37.255,0.0009 24,0.0009 M24,5.0009 C34.477,5.0009 43,13.5239 43,24.0009 C43,34.4779 34.477,43.0009 24,43.0009 C13.523,43.0009 5,34.4779 5,24.0009 C5,13.5239 13.523,5.0009 24,5.0009" id="Fill-393" fill="#0795FF"></path>
                    <path d="M24,12.0009 C17.373,12.0009 12,17.3739 12,24.0009 C12,30.6279 17.373,36.0009 24,36.0009 C30.627,36.0009 36,30.6279 36,24.0009 C36,17.3739 30.627,12.0009 24,12.0009 M24,17.0009 C27.859,17.0009 31,20.1419 31,24.0009 C31,27.8599 27.859,31.0009 24,31.0009 C20.141,31.0009 17,27.8599 17,24.0009 C17,20.1419 20.141,17.0009 24,17.0009" id="Fill-394" fill="#DFE8F4"></path>
                    <path d="M24,21.8407 C22.807,21.8407 21.84,22.8077 21.84,24.0007 C21.84,25.1947 22.807,26.1607 24,26.1607 C25.193,26.1607 26.16,25.1947 26.16,24.0007 C26.16,22.8077 25.193,21.8407 24,21.8407" id="Fill-395" fill="#0795FF"></path>
                    <path d="M6.584,42.9178 C6.199,42.9178 5.815,42.7718 5.522,42.4788 C4.937,41.8928 4.937,40.9428 5.522,40.3568 L22.939,22.9398 C23.525,22.3548 24.475,22.3548 25.061,22.9398 C25.646,23.5258 25.646,24.4758 25.061,25.0618 L7.644,42.4788 C7.352,42.7718 6.968,42.9178 6.584,42.9178" id="Fill-396" fill="#156CDD"></path>
                    <path d="M10.1807,37.8202 L5.2317,42.7692 L0.4687,41.5792 C0.0757,41.4802 -0.0603,40.9902 0.2267,40.7042 L4.1347,36.7952 C4.3757,36.5532 4.7267,36.4572 5.0577,36.5392 L10.1807,37.8202 Z" id="Fill-397" fill="#156CDD"></path>
                    <path d="M10.1807,37.8202 L5.2317,42.7692 L6.4217,47.5322 C6.5207,47.9252 7.0107,48.0612 7.2967,47.7742 L11.2057,43.8662 C11.4477,43.6252 11.5437,43.2742 11.4617,42.9432 L10.1807,37.8202 Z" id="Fill-398" fill="#156CDD"></path>
                    <path d="M13.9814,34.0194 L9.0324,38.9684 L4.2694,37.7784 C3.8764,37.6794 3.7404,37.1894 4.0274,36.9024 L7.9354,32.9944 C8.1774,32.7524 8.5274,32.6554 8.8584,32.7384 L13.9814,34.0194 Z" id="Fill-399" fill="#156CDD"></path>
                    <path d="M13.9814,34.0194 L9.0324,38.9684 L10.2224,43.7314 C10.3214,44.1244 10.8114,44.2604 11.0984,43.9734 L15.0064,40.0654 C15.2484,39.8234 15.3454,39.4734 15.2624,39.1424 L13.9814,34.0194 Z" id="Fill-400" fill="#156CDD"></path>
                </g>
            </g>
        </g>
    </g>
</svg>