<svg id="Layer_1" data-name="Layer 1" xmlns="http://www.w3.org/2000/svg" viewBox="0 0 64 64"><defs><style>.cls-1{fill:#156cdd;}.cls-2{fill:#0795ff;}.cls-3{fill:#ccd8e5;}.cls-4{fill:#dfe8f4;}.cls-5{fill:#fff;}</style></defs><title>interaction, interact, preferences, preformance, question, answer, message, service</title><path class="cls-1" d="M27.48,28.14,17.39,38.23a1,1,0,0,1-1.62-.67V28.14Z"/><rect class="cls-2" x="8" y="8" width="37.61" height="26.32" rx="2.5" transform="translate(53.61 42.32) rotate(180)"/><path class="cls-3" d="M44.31,49.78l6,6a.57.57,0,0,0,1-.4V49.78Z"/><rect class="cls-4" x="21.63" y="37.7" width="34.37" height="15.79" rx="1.5"/><path class="cls-3" d="M37.82,37.7H23.13a1.5,1.5,0,0,0-1.5,1.5V52a1.5,1.5,0,0,0,1.5,1.5H37.82Z"/><path class="cls-5" d="M26.8,25.46a1.34,1.34,0,0,1-1.33-1.33v-.37a4.09,4.09,0,0,1,2.36-3.69,2.34,2.34,0,1,0-2.5-3.91A2.3,2.3,0,0,0,24.47,18a1.34,1.34,0,0,1-2.67,0,5,5,0,1,1,7.2,4.5,1.45,1.45,0,0,0-.86,1.29v.37A1.34,1.34,0,0,1,26.8,25.46Z"/><path class="cls-5" d="M26.8,29.35a1.37,1.37,0,0,1-.94-.38,1.46,1.46,0,0,1-.16-.21.76.76,0,0,1-.13-.23,1.17,1.17,0,0,1-.07-.25,1.22,1.22,0,0,1,0-.26,1.09,1.09,0,0,1,0-.26,1.25,1.25,0,0,1,.07-.26.71.71,0,0,1,.13-.22.78.78,0,0,1,.16-.2,1.37,1.37,0,0,1,1.88,0,.82.82,0,0,1,.17.2,1,1,0,0,1,.13.22,2.5,2.5,0,0,1,.07.26,1.09,1.09,0,0,1,0,.26,1.22,1.22,0,0,1,0,.26,2.33,2.33,0,0,1-.07.25,1,1,0,0,1-.13.23,1.57,1.57,0,0,1-.17.21A1.33,1.33,0,0,1,26.8,29.35Z"/><path class="cls-5" d="M34.09,48.3l-2.94-6.42a1.09,1.09,0,0,0-2,0l-3,6.51a1.11,1.11,0,0,0,.7,1.52,1.18,1.18,0,0,0,1.35-.68L30,45.29a.15.15,0,0,1,.28,0L31,46.85h-.85a.37.37,0,0,0-.37.37.38.38,0,0,0,.37.37H31a.59.59,0,0,1,.52.33l.63,1.38a1.09,1.09,0,0,0,1,.65,1.11,1.11,0,0,0,1-1.65Z"/><rect class="cls-5" x="41.07" y="42.44" width="11.88" height="0.74"/><rect class="cls-5" x="41.07" y="44.3" width="11.88" height="0.74"/><rect class="cls-5" x="41.07" y="46.15" width="11.88" height="0.74"/><rect class="cls-5" x="41.07" y="48" width="8.69" height="0.74"/></svg>