<?xml version="1.0" encoding="UTF-8"?>
<svg width="300px" height="378px" viewBox="0 0 300 378" version="1.1" xmlns="http://www.w3.org/2000/svg" xmlns:xlink="http://www.w3.org/1999/xlink">
    <title>Artboard</title>
    <defs>
        <linearGradient x1="0.0645020274%" y1="50.0439417%" x2="99.5819158%" y2="50.0439417%" id="linearGradient-1">
            <stop stop-color="#000000" offset="1%"></stop>
            <stop stop-color="#000000" stop-opacity="0.69" offset="13%"></stop>
            <stop stop-color="#000000" stop-opacity="0" offset="100%"></stop>
        </linearGradient>
        <linearGradient x1="0.576261185%" y1="49.9070323%" x2="100.523755%" y2="49.9070323%" id="linearGradient-2">
            <stop stop-color="#000000" offset="1%"></stop>
            <stop stop-color="#000000" stop-opacity="0.69" offset="13%"></stop>
            <stop stop-color="#000000" stop-opacity="0" offset="100%"></stop>
        </linearGradient>
        <linearGradient x1="9.88326206%" y1="37.0221749%" x2="88.9096858%" y2="63.2629353%" id="linearGradient-3">
            <stop stop-color="#000000" offset="1%"></stop>
            <stop stop-color="#000000" stop-opacity="0.69" offset="13%"></stop>
            <stop stop-color="#000000" stop-opacity="0" offset="100%"></stop>
        </linearGradient>
        <linearGradient x1="79.7141367%" y1="80.8221782%" x2="33.5847408%" y2="34.4032531%" id="linearGradient-4">
            <stop stop-color="#000000" offset="1%"></stop>
            <stop stop-color="#000000" stop-opacity="0.69" offset="13%"></stop>
            <stop stop-color="#000000" stop-opacity="0" offset="100%"></stop>
        </linearGradient>
        <linearGradient x1="37.8242295%" y1="31.4754807%" x2="74.2770336%" y2="86.5197667%" id="linearGradient-5">
            <stop stop-color="#000000" offset="1%"></stop>
            <stop stop-color="#000000" stop-opacity="0.69" offset="13%"></stop>
            <stop stop-color="#000000" stop-opacity="0" offset="100%"></stop>
        </linearGradient>
        <linearGradient x1="-0.00287513101%" y1="-38.4838734%" x2="95.4294528%" y2="131.190616%" id="linearGradient-6">
            <stop stop-color="#000000" offset="1%"></stop>
            <stop stop-color="#000000" stop-opacity="0.69" offset="13%"></stop>
            <stop stop-color="#000000" stop-opacity="0" offset="100%"></stop>
        </linearGradient>
        <radialGradient cx="46.8140916%" cy="48.7767686%" fx="46.8140916%" fy="48.7767686%" r="54.1331776%" gradientTransform="translate(0.468141,0.487768),scale(1.000000,0.816109),rotate(-156.347558),translate(-0.468141,-0.487768)" id="radialGradient-7">
            <stop stop-color="#FFFFFF" offset="34%"></stop>
            <stop stop-color="#FFFFFF" stop-opacity="0.39" offset="100%"></stop>
        </radialGradient>
        <linearGradient x1="-0.0422654269%" y1="50.0884956%" x2="100%" y2="50.0884956%" id="linearGradient-8">
            <stop stop-color="#000000" offset="1%"></stop>
            <stop stop-color="#000000" stop-opacity="0.69" offset="13%"></stop>
            <stop stop-color="#000000" stop-opacity="0" offset="100%"></stop>
        </linearGradient>
        <linearGradient x1="-4.29655471e-13%" y1="50%" x2="100%" y2="50%" id="linearGradient-9">
            <stop stop-color="#000000" offset="1%"></stop>
            <stop stop-color="#000000" stop-opacity="0.69" offset="13%"></stop>
            <stop stop-color="#000000" stop-opacity="0" offset="100%"></stop>
        </linearGradient>
    </defs>
    <g id="Artboard" stroke="none" stroke-width="1" fill="none" fill-rule="evenodd">
        <g id="following_the_idea" transform="translate(150.000000, 188.600000) scale(-1, 1) translate(-150.000000, -188.600000) translate(10.000000, 50.000000)">
            <path d="M60.0844037,253.0605 C59.0470191,253.115753 58.0304279,253.372958 57.0917431,253.817667 C55.4332683,254.301451 53.9458797,255.244755 52.8018349,256.538333 C51.2605505,258.643 51.787156,261.581833 52.493578,264.097167 C53.1175312,266.654391 54.0762539,269.118239 55.3449541,271.425 C56.6224569,273.746217 58.587574,275.615557 60.9706422,276.7765 C61.2922966,276.952772 61.6578803,277.032955 62.0238532,277.0075 C62.5866684,276.856011 63.0555634,276.467152 63.3082569,275.942333 C64.5603371,273.909627 65.0644627,271.504547 64.733945,269.140667 C64.4709404,268.169971 64.4709404,267.146863 64.733945,266.176167 C65.1185765,265.499258 65.5987301,264.881197 66.159633,264.341 C67.5507181,262.565948 67.669136,260.106967 66.4550459,258.206667 C65.5174312,256.795 63.8862385,256.204667 62.8587156,254.9855 C61.946789,254.010167 61.6642202,253.0605 60.0844037,253.0605 Z" id="Path" fill="#68E1FD" fill-rule="nonzero"></path>
            <path d="M60.2899083,254.2155 C59.7357083,254.665822 59.3177017,255.261208 59.0825688,255.935167 C58.9815294,256.397344 59.0172306,256.878908 59.1853211,257.321167 C59.5265015,258.225817 60.1359174,259.004861 60.9321101,259.554167 C61.4725428,259.990645 62.138781,260.242525 62.8330275,260.272833 C63.3461038,260.230419 63.8447396,260.081827 64.2972477,259.8365 C66.0294305,259.030074 67.6209078,257.951198 69.0110092,256.641 C69.7723057,256.04069 70.3140765,255.206156 70.5522936,254.266833 C70.6077143,253.694025 70.5598619,253.115928 70.4110092,252.56 C70.2954128,252.008167 70.1541284,251.469167 70.0256881,250.917333 C69.9816194,250.684811 69.9037298,250.459984 69.7944954,250.25 C69.6653457,250.039014 69.5051404,249.848659 69.3192661,249.685333 C68.6040095,248.890888 67.7285537,248.256712 66.7504587,247.8245 C65.8385321,247.490833 65.5431193,247.94 65.0293578,248.645833 C63.5972157,250.622954 62.0125716,252.485183 60.2899083,254.2155 Z" id="Path" fill="#F3BD8F" fill-rule="nonzero"></path>
            <path d="M120.721101,169.7465 C119.809174,177.087167 115.724771,191.832667 113.695413,198.980833 C109.675229,213.0975 108.40367,221.015667 99.2972477,232.5785 C94.2405044,238.993201 88.4804218,244.821663 82.1247706,249.954833 C78.2715596,253.073333 73.9816514,255.999333 69.1137615,257.103 C68.0348624,254.895667 65.2605505,254.010167 63.9761468,251.969667 C63.9119266,251.867 63.8605505,251.764333 63.7963303,251.6745 C62.5119266,249.261833 63.7192661,246.310167 64.9779817,243.871833 C70.145508,233.828731 75.8700065,224.081629 82.1247706,214.676 C83.1719858,213.268446 84.0352219,211.733166 84.693578,210.107333 C85.145733,208.573163 85.4257411,206.993511 85.5284404,205.3975 C85.7853211,203.228667 86.1321101,201.0855 86.5559633,198.980833 C88.2742374,191.266309 90.4879935,183.670366 93.1834862,176.240167 C93.9056033,173.601093 95.1072336,171.117183 96.7284404,168.912333 C99.7724771,165.293333 104.755963,163.984333 109.444037,163.317 C116.662385,162.251833 121.787156,161.1995 120.721101,169.7465 Z" id="Path" fill="#3E3E54" fill-rule="nonzero"></path>
            <path d="M15.8623853,183.106 C15.0326592,182.475463 14.0849826,182.017292 13.0752294,181.7585 C11.4921676,181.070905 9.74809653,180.839742 8.04036697,181.091167 C5.47155963,181.72 4.03302752,184.312333 2.90275229,186.6865 C1.72435418,189.044676 0.86071445,191.547145 0.333944954,194.129833 C-0.175983795,196.725104 0.129058495,199.41441 1.20733945,201.829833 C1.33840931,202.17341 1.56584062,202.471943 1.86238532,202.689667 C2.38917276,202.926845 2.99247862,202.926845 3.51926606,202.689667 C5.78341714,201.933698 7.71347921,200.413623 8.97798165,198.3905 C9.38944518,197.46948 10.0361637,196.67282 10.853211,196.0805 C11.5805458,195.79923 12.3478183,195.634643 13.1266055,195.592833 C15.3332819,195.119112 17.0040399,193.311061 17.3009174,191.0755 C17.4807339,189.394333 16.6458716,187.931333 16.6073394,186.3015 C16.6201835,185.043833 17.0440367,184.132667 15.8623853,183.106 Z" id="Path" fill="#68E1FD" fill-rule="nonzero"></path>
            <path d="M60.0844037,253.0605 C59.0470191,253.115753 58.0304279,253.372958 57.0917431,253.817667 C55.4332683,254.301451 53.9458797,255.244755 52.8018349,256.538333 C51.2605505,258.643 51.787156,261.581833 52.493578,264.097167 C53.1175312,266.654391 54.0762539,269.118239 55.3449541,271.425 C56.6224569,273.746217 58.587574,275.615557 60.9706422,276.7765 C61.2922966,276.952772 61.6578803,277.032955 62.0238532,277.0075 C62.5866684,276.856011 63.0555634,276.467152 63.3082569,275.942333 C64.5603371,273.909627 65.0644627,271.504547 64.733945,269.140667 C64.4709404,268.169971 64.4709404,267.146863 64.733945,266.176167 C65.1185765,265.499258 65.5987301,264.881197 66.159633,264.341 C67.5507181,262.565948 67.669136,260.106967 66.4550459,258.206667 C65.5174312,256.795 63.8862385,256.204667 62.8587156,254.9855 C61.946789,254.010167 61.6642202,253.0605 60.0844037,253.0605 Z" id="Path" fill="url(#linearGradient-1)" fill-rule="nonzero"></path>
            <path d="M15.8623853,183.106 C15.0326592,182.475463 14.0849826,182.017292 13.0752294,181.7585 C11.4921676,181.070905 9.74809653,180.839742 8.04036697,181.091167 C5.47155963,181.72 4.03302752,184.312333 2.90275229,186.6865 C1.72435418,189.044676 0.86071445,191.547145 0.333944954,194.129833 C-0.175983795,196.725104 0.129058495,199.41441 1.20733945,201.829833 C1.33840931,202.17341 1.56584062,202.471943 1.86238532,202.689667 C2.38917276,202.926845 2.99247862,202.926845 3.51926606,202.689667 C5.78341714,201.933698 7.71347921,200.413623 8.97798165,198.3905 C9.38944518,197.46948 10.0361637,196.67282 10.853211,196.0805 C11.5805458,195.79923 12.3478183,195.634643 13.1266055,195.592833 C15.3332819,195.119112 17.0040399,193.311061 17.3009174,191.0755 C17.4807339,189.394333 16.6458716,187.931333 16.6073394,186.3015 C16.6201835,185.043833 17.0440367,184.132667 15.8623853,183.106 Z" id="Path" fill="url(#linearGradient-2)" fill-rule="nonzero"></path>
            <path d="M16.466055,185.493 C15.7646841,185.364498 15.041645,185.426547 14.3724771,185.672667 C13.952954,185.902418 13.6059786,186.244659 13.3706422,186.660833 C12.9088566,187.502847 12.7119052,188.464421 12.8055046,189.42 C12.8175103,190.118443 13.0564269,190.794059 13.4862385,191.345 C13.8481441,191.713589 14.286589,191.998341 14.7706422,192.179167 C16.5065368,192.976968 18.3573395,193.496666 20.2550459,193.719167 C21.2080162,193.910412 22.1975825,193.779482 23.0678899,193.347 C23.5404479,193.026833 23.9497594,192.622213 24.2752294,192.1535 C24.6220183,191.704333 24.9431193,191.255167 25.2770642,190.793167 C25.4125629,190.601872 25.5246742,190.39507 25.6110092,190.177167 C25.681665,189.939495 25.7205345,189.693527 25.7266055,189.445667 C25.9015058,188.409179 25.8621659,187.347887 25.6110092,186.327167 C25.2770642,185.428833 24.7376147,185.480167 23.8642202,185.544333 C21.400701,185.723162 18.926851,185.705997 16.466055,185.493 L16.466055,185.493 Z" id="Path" fill="#F3BD8F" fill-rule="nonzero"></path>
            <path d="M105.488073,172.467167 C105.265445,173.443814 104.700531,174.308686 103.895413,174.9055 C96.0605505,182.207667 93.2990826,191.871167 85.4770642,199.173333 C83.6993414,201.025717 81.6188249,202.56202 79.3247706,203.716333 C77.4366972,204.537667 52.7633028,204.114167 45.0055046,204.114167 C37.2477064,204.114167 28.8990826,203.511 22.2972477,199.263167 C21.4338002,198.791013 20.7180605,198.089195 20.2293578,197.2355 C19.8050827,196.098844 19.7246839,194.862626 19.9981651,193.680667 C20.2141635,191.4785 20.7417441,189.318086 21.5651376,187.264 C22.0996881,185.987502 22.9478728,184.866359 24.0311927,184.004333 C26.6,182.040833 30.1192661,182.092167 33.3431193,182.182 C44.8778718,182.509483 56.4218173,182.110861 67.906422,180.9885 C68.64314,180.984558 69.3656054,180.785271 70,180.411 C70.6850535,179.761619 71.1365256,178.904536 71.2844037,177.972667 C72.815826,172.520227 74.6817405,167.167158 76.8715596,161.943833 C78.040367,159.184667 80.7247706,150.008833 83.9743119,148.943667 L84.2183486,148.8795 C87.6605505,148.199333 93.440367,155.822333 95.4954128,158.081 C98.8827305,161.790971 101.934416,165.793508 104.614679,170.041667 C105.166294,170.731391 105.473452,171.584399 105.488073,172.467167 L105.488073,172.467167 Z" id="Path" fill="#3E3E54" fill-rule="nonzero"></path>
            <path d="M40.0091743,124.791333 C39.9625718,123.189774 40.3771616,121.608519 41.2036697,120.2355 C43.9429899,115.074122 48.6690833,111.250984 54.2917431,109.648 C55.4220183,111.6885 56.5394495,113.652 57.6568807,115.6925 C58.0101443,116.232227 58.2464048,116.839872 58.3504587,117.476333 C58.2990355,118.586139 57.9240213,119.656716 57.2715596,120.556333 C56.4757663,122.008342 55.9123711,123.575873 55.6018349,125.202 C55.5406145,125.998249 55.2895881,126.768302 54.8697248,127.447833 C54.6453627,127.773915 54.2963798,127.993152 53.9050331,128.05387 C53.5136864,128.114587 53.114598,128.011413 52.8018349,127.768667 C52.9434888,126.002133 52.7250161,124.225247 52.159633,122.5455 C50.4513761,123.212833 49.5908257,125.048 48.987156,126.767667 C48.6125155,128.558097 47.8253259,130.236621 46.6880734,131.67 C46.4311927,131.9395 46.0458716,132.183333 45.7119266,132.029333 C45.3779817,131.875333 45.3137615,131.362 45.3394495,130.951333 L45.5963303,126.870333 C45.5953995,128.844496 44.3425067,130.601206 42.4752294,131.2465 C41.9624885,129.14411 42.2175425,126.9279 43.1944954,124.996667 C42.6678899,125.561333 42.6036697,126.408333 42.2183486,127.075667 C41.8330275,127.743 40.7541284,128.153667 40.3559633,127.486333 C40.222378,127.206058 40.1949989,126.886901 40.2788991,126.588 C40.5069469,124.923788 40.8984379,123.286054 41.4477064,121.6985 L40.4073394,124.5475 C40.2018349,124.727167 40.2018349,124.945333 40.0091743,124.791333 Z" id="Path" fill="#F3BD8F" fill-rule="nonzero"></path>
            <path d="M219.722936,62.447 C219.105897,64.3985402 218.066648,66.1905181 216.678899,67.6958333 C212.902752,72.0848333 207.906422,75.2033333 203.12844,78.463 C190.425688,87.1255 178.724771,97.2766667 164.981651,104.283667 C161.295413,106.170167 157.416514,107.864167 154.411009,110.700333 C152.674082,112.448124 151.179432,114.420627 149.966972,116.565167 C147.785384,120.17768 145.981985,124.005096 144.585321,127.986833 C142.016514,135.135 138.587156,141.859667 135.748624,148.8795 C132.704587,156.412667 129.455046,163.933 124.651376,170.478 C121.427523,174.867 117.214679,178.960833 111.807339,180.038833 C106.669725,181.052667 101.300917,179.050667 97.1522936,175.868 C93.0036697,172.685333 89.8954128,168.4375 86.8770642,164.241 L86.8,164.151167 C86.0422018,163.111667 85.2715596,162.0465 84.5908257,160.93 C83.5824618,159.408969 82.8720428,157.71061 82.4972477,155.925 C82.3928195,155.301196 82.3327304,154.670786 82.3174312,154.0385 C82.3174312,150.393833 83.8972477,146.813333 85.4899083,143.463833 C91.3382263,131.1695 97.182263,118.879444 103.022018,106.593667 C103.022018,106.593667 103.022018,106.593667 103.022018,106.491 C92.1613977,106.918414 81.5480558,109.857274 72.0165138,115.0765 C69.4638637,116.676699 66.7304344,117.969042 63.8733945,118.9265 C60.9534636,119.864378 57.7596208,119.328528 55.306422,117.489167 C52.1981651,114.755667 52.3266055,109.622333 54.4844037,106.093167 C56.6422018,102.564 60.3027523,100.254 63.8477064,98.098 C77.1541284,90.0643333 91.6036697,82.2488333 107.157798,82.698 C113.348624,82.8776667 122.33945,81.5558333 128.504587,82.236 C141.489908,83.6605 153.666055,87.2025 164.172477,79.4511667 C171.563976,73.7219397 179.359089,68.5323877 187.497248,63.9228333 C193.225688,60.8685 199.262385,58.3788333 205.273394,55.902 C207.488673,54.8494761 209.862345,54.1687521 212.299083,53.8871667 C214.784428,53.6271791 217.234676,54.6295944 218.823853,56.5565 C219.982381,58.2898582 220.311691,60.4473937 219.722936,62.447 Z" id="Path" fill="#68E1FD" fill-rule="nonzero"></path>
            <path d="M133.179817,62.2416667 L132.524771,61.2791667 C132.204239,60.7631346 131.800648,60.3035111 131.330275,59.9188333 C130.840654,59.5378556 130.185493,59.4450371 129.609174,59.675 C128.8,60.06 127.862385,60.4835 127.798165,61.3818333 C127.777845,63.3736568 128.249912,65.3396958 129.172477,67.1055 C129.764718,67.8864573 130.236614,68.7516002 130.572477,69.6721667 C130.643199,70.1959608 130.643199,70.7268725 130.572477,71.2506667 C130.354128,75.5626667 132.26789,80.0286667 130.816514,84.084 C130.315596,85.47 129.442202,86.779 129.53211,88.2548333 C129.613135,89.347674 130.103937,90.3697091 130.906422,91.1166667 C131.714615,91.8497947 132.656533,92.4205741 133.680734,92.7978333 C135.240953,93.428227 136.885443,93.826035 138.561468,93.9785 C139.977848,94.2806488 141.433946,93.6782754 142.222018,92.4641667 C143.545751,90.8944011 144.608243,89.1221684 145.368807,87.2153333 C147.743726,85.7956876 150.196512,84.5103333 152.715596,83.3653333 C159.818349,80.3623333 163.234862,72.149 164.082569,64.4875 C164.480734,60.9583333 164.442202,57.2238333 162.798165,54.0796667 C160.545781,50.1054844 156.373091,47.602008 151.80367,47.4833333 C147.280964,47.4470094 142.905631,49.0886783 139.524771,52.0905 C136.583486,54.5673333 132.910092,58.3788333 133.179817,62.2416667 Z" id="Path" fill="#F3BD8F" fill-rule="nonzero"></path>
            <path d="M160.730275,43.8771667 C157.994495,41.7853333 154.308257,41.7083333 151.07156,40.3865 C150.02041,39.8697708 148.939629,39.4155352 147.834862,39.0261667 C144.662385,38.1406667 141.412844,39.6293333 138.433028,41.1308333 C136.735662,41.9172528 135.164435,42.9508902 133.770642,44.198 C131.831193,46.0973333 130.777982,48.7281667 129.018349,50.7943333 C127.258716,52.8605 124.831193,54.2721667 122.724771,56.0046667 C120.618349,57.7371667 118.704587,60.0215 118.524771,62.7421667 C118.306422,66.143 120.849541,69.0946667 123.546789,71.1993333 C126.244037,73.304 129.33945,75.0493333 131.06055,78.0651667 L131.779817,72.0078333 C131.909582,71.4419429 131.909582,70.8540571 131.779817,70.2881667 C131.529752,69.7234406 131.176993,69.2099734 130.73945,68.7738333 C129.112349,66.8078965 128.258417,64.3166746 128.337615,61.7668333 C128.337615,61.0481667 128.555963,60.2011667 129.236697,59.9445 C129.917431,59.6878333 130.842202,60.4193333 131.368807,61.1251667 L134.708257,65.6296667 C133.731228,60.9074561 135.254961,56.0152098 138.741284,52.6808333 C142.233185,49.4113754 146.864999,47.6338726 151.649541,47.7271667 C154.295413,47.7271667 157.185321,48.4201667 158.777982,50.5376667 C160.370642,52.6551667 162.631193,56.8773333 163.555963,51.4873333 C164.049098,48.6277624 162.970711,45.7234419 160.730275,43.8771667 L160.730275,43.8771667 Z" id="Path" fill="#3E3E54" fill-rule="nonzero"></path>
            <path d="M217.53945,49.0105 C218.153505,47.1364863 219.017552,45.3537162 220.108257,43.7103333 C221.080246,42.669364 222.222572,41.8013992 223.486239,41.1436667 C223.678583,40.9924221 223.924966,40.9273941 224.166972,40.964 C224.401305,41.0738414 224.561778,41.2973447 224.590826,41.5543333 C224.950459,42.966 224.12844,44.429 224.256881,45.8791667 C224.254528,46.0091193 224.305593,46.1343549 224.398165,46.2256667 C224.590826,46.3796667 224.86055,46.2256667 225.040367,46.0588333 C226.840837,44.3463493 228.750001,42.7517045 230.755963,41.2848333 C232.778457,39.8022334 235.235397,39.0305668 237.743119,39.0903333 C237.743119,41.0666667 236.086239,42.5938333 234.53211,43.8258333 C236.563988,42.1463613 239.014749,41.0506483 241.622018,40.656 C242.097248,41.3875 241.442202,42.3115 240.825688,42.9403333 L236.548624,47.2651667 C238.326974,46.0174976 240.380019,45.2163326 242.533945,44.9295 C242.738828,44.8654085 242.95842,44.8654085 243.163303,44.9295 C243.487119,45.1326779 243.612862,45.5423689 243.458716,45.892 C243.312345,46.2339833 243.077364,46.5307883 242.777982,46.7518333 C240.361735,48.9061164 237.727315,50.8028663 234.917431,52.4113333 C236.495037,51.6761423 238.168315,51.1663689 239.888073,50.897 C240.058724,51.7990361 239.693617,52.718539 238.950459,53.2583333 C237.854648,54.2157553 236.641952,55.0307327 235.341284,55.6838333 C232.966285,57.211471 230.326477,58.2821831 227.557798,58.8408333 C225.811009,59.0718333 223.93578,58.9306667 222.420183,59.8033333 C221.713761,60.214 221.13578,60.83 220.46789,61.292 C219.13225,62.2422411 217.445644,62.5567492 215.856881,62.1518333 C214.452393,61.75337 213.290176,60.7653725 212.67156,59.444 C211.827892,57.8103853 212.089081,55.8249506 213.326606,54.4646667 C215.083189,52.9477095 216.515964,51.0927645 217.53945,49.0105 L217.53945,49.0105 Z" id="Path" fill="#F3BD8F" fill-rule="nonzero"></path>
            <path d="M107.388991,119.260167 C102.011355,128.911708 97.5231539,139.031814 93.9798165,149.4955 C92.2330275,154.718667 90.5889908,160.1985 86.9027523,164.253833 C86.8272492,164.356667 86.7411505,164.451296 86.6458716,164.536167 C85.8781256,163.392202 85.1996681,162.190874 84.6165138,160.942833 C83.583769,158.745506 82.8204424,156.43158 82.3431193,154.051333 C82.3431193,150.406667 83.9229358,146.826167 85.5155963,143.476667 C91.3639144,131.182333 97.2079511,118.892278 103.047706,106.6065 C105.12844,106.414 107.491743,107.350833 110.099083,110.341 C112.192661,112.728 108.930275,116.488167 107.388991,119.260167 Z" id="Path" fill="url(#linearGradient-3)" fill-rule="nonzero"></path>
            <path d="M86.106422,163.227167 C85.5669725,165.498667 83.8073394,167.526333 82.9211009,169.643833 C80.9816514,174.3665 80.493578,181.2965 76.0880734,184.581833 C72.9284404,187.392333 68.3816514,188.059667 64.2330275,188.431833 C51.8385321,189.561167 39.3541284,189.3045 26.9853211,189.035 C25.3144558,189.188185 23.6396486,188.786747 22.2201835,187.892833 C22.0014114,187.719148 21.8031875,187.52109 21.6293578,187.3025 C22.1639083,186.026002 23.012093,184.904859 24.0954128,184.042833 C26.6642202,182.079333 30.1834862,182.130667 33.4073394,182.2205 C44.942092,182.547983 56.4860375,182.149361 67.9706422,181.027 C68.7073602,181.023058 69.4298256,180.823771 70.0642202,180.4495 C70.7492737,179.800119 71.2007457,178.943036 71.3486239,178.011167 C72.8575657,172.547129 74.7020392,167.181184 76.8715596,161.943833 C78.040367,159.184667 80.7247706,150.008833 83.9743119,148.943667 C84.7009513,150.297851 85.1383139,151.788015 85.2587156,153.319833 C85.6311927,156.335667 86.8385321,160.134333 86.106422,163.227167 Z" id="Path" fill="url(#linearGradient-4)" fill-rule="nonzero"></path>
            <path d="M65.1192661,251.084167 C64.7664382,251.430399 64.3690667,251.728179 63.9376147,251.969667 C63.8733945,251.867 63.8220183,251.764333 63.7577982,251.6745 C62.4733945,249.261833 63.6807339,246.310167 64.9394495,243.871833 C70.1194911,233.827839 75.856864,224.080719 82.1247706,214.676 C83.1719858,213.268446 84.0352219,211.733166 84.693578,210.107333 C85.145733,208.573163 85.4257411,206.993511 85.5284404,205.3975 C85.7853211,203.228667 86.1321101,201.0855 86.5559633,198.980833 C89.8055046,196.3115 94.9559633,193.552333 94.9559633,192.564167 C95.1743119,197.363833 95.3027523,202.137833 95.3412844,206.950333 C95.2513761,209.773667 69.0366972,247.5935 65.1192661,251.084167 Z" id="Path" fill="url(#linearGradient-5)" fill-rule="nonzero"></path>
            <path d="M130.456881,62.6266667 C130.090014,62.5780765 129.733139,62.769285 129.570642,63.1015 C129.416347,63.4354238 129.388955,63.8140415 129.493578,64.1666667 C129.611739,64.5077503 129.748957,64.8419421 129.904587,65.1676667 C130.124314,65.7969115 130.422043,66.3961855 130.790826,66.9515 C131.171228,67.5180811 131.854683,67.8013519 132.524771,67.6701667 C132.67134,67.6218173 132.803696,67.5380616 132.910092,67.4263333 C133.014917,67.252196 133.068347,67.0520006 133.06422,66.8488333 C133.093696,65.8923326 132.824347,64.9503975 132.293578,64.1538333 C132.07088,63.8947922 131.811213,63.669935 131.522936,63.4865 C131.188991,63.2041667 130.93211,62.7165 130.456881,62.6266667 Z" id="Path" fill="url(#linearGradient-6)" fill-rule="nonzero"></path>
            <path d="M220.280593,62.5834999 L245.945502,62.5756348 C247.248894,62.573789 248.305826,63.6300731 248.306225,64.9334651 C248.306225,64.9339473 248.306225,64.9344296 248.304779,64.9349115 L248.301779,74.7185278 C248.299932,76.0213543 247.243882,77.0774043 245.941055,77.0792509 L220.276146,77.087116 C218.972754,77.0889618 217.915823,76.0326777 217.915423,74.7292857 C217.915423,74.7288034 217.915423,74.7283212 217.91687,74.7278393 L217.91987,64.944223 C217.921716,63.6413965 218.977767,62.5853465 220.280593,62.5834999 Z" id="Rectangle" fill="#68E1FD" fill-rule="nonzero" transform="translate(233.110824, 69.831375) rotate(23.670000) translate(-233.110824, -69.831375) "></path>
            <path d="M218.176613,67.4461885 L248.19737,67.4369885 C249.290893,67.4354399 250.177641,68.3216444 250.177976,69.4151681 C250.177976,69.4155727 250.177976,69.4159774 250.176762,69.4163816 L250.176363,70.7187558 C250.174814,71.8118052 249.288805,72.6978132 248.195756,72.6993625 L218.174999,72.7085624 C217.081476,72.7101111 216.194728,71.8239066 216.194393,70.7303828 C216.194393,70.7299782 216.194393,70.7295736 216.195607,70.7291693 L216.196006,69.4267951 C216.197555,68.3337458 217.083564,67.4477377 218.176613,67.4461885 Z" id="Rectangle" fill="#68E1FD" fill-rule="nonzero" transform="translate(233.186185, 70.072775) rotate(23.670000) translate(-233.186185, -70.072775) "></path>
            <path d="M277.508257,38.1021667 C275.777571,42.0602673 273.110984,45.5393551 269.737615,48.2405 L248.544954,69.0433333 L223.781651,58.1991667 L226.055046,27.3991667 C226.004665,16.4639475 232.600394,6.59201131 242.727449,2.44530615 C252.854504,-1.70139901 264.486906,0.706700766 272.131339,8.53239835 C279.775773,16.3580959 281.902922,28.0358124 277.508257,38.0508333 L277.508257,38.1021667 Z" id="Path" fill="#68E1FD" fill-rule="nonzero"></path>
            <path d="M277.508257,38.1021667 C275.777571,42.0602673 273.110984,45.5393551 269.737615,48.2405 L248.544954,69.0433333 L223.781651,58.1991667 L226.055046,27.3991667 C226.004665,16.4639475 232.600394,6.59201131 242.727449,2.44530615 C252.854504,-1.70139901 264.486906,0.706700766 272.131339,8.53239835 C279.775773,16.3580959 281.902922,28.0358124 277.508257,38.0508333 L277.508257,38.1021667 Z" id="Path" fill="url(#radialGradient-7)" fill-rule="nonzero" opacity="0.69"></path>
            <path d="M232.656881,62.5625 C232.35071,53.4363101 234.070125,44.3555475 237.691743,35.9718333 C238.500917,34.0981667 239.759633,32.0063333 241.788991,31.8138333 C244.293578,31.5828333 246.014679,34.3805 246.233028,36.9471667 C246.504675,40.2659417 245.329574,43.5403846 243.009174,45.9305 C242.599054,43.6346109 242.839282,41.2698894 243.702752,39.1031667 C244.120387,37.4377698 244.910886,35.888806 246.014679,34.573 C247.181716,33.2586828 249.014637,32.7555529 250.689908,33.2896667 C253.130275,34.265 253.515596,37.653 252.73211,40.1683333 C251.824676,43.0335753 249.984661,45.5134931 247.504587,47.2138333 C247.846833,43.6198162 250.085375,40.4825952 253.374312,38.9876667 C254.45813,38.4609764 255.67962,38.2859823 256.86789,38.4871667 C258.073149,38.7159177 259.041225,39.6133842 259.359633,40.7971667 C259.461981,41.4786373 259.395836,42.1747807 259.166972,42.8248333 C257.882569,47.6373333 254.247706,51.4873333 250.47156,54.7726667 C246.695413,58.058 242.559633,60.984 239.46422,64.911" id="Path" stroke="#FFFFFF" stroke-width="0.8"></path>
            <path d="M220.280593,62.5834999 L245.945502,62.5756348 C247.248894,62.573789 248.305826,63.6300731 248.306225,64.9334651 C248.306225,64.9339473 248.306225,64.9344296 248.304779,64.9349115 L248.301779,74.7185278 C248.299932,76.0213543 247.243882,77.0774043 245.941055,77.0792509 L220.276146,77.087116 C218.972754,77.0889618 217.915823,76.0326777 217.915423,74.7292857 C217.915423,74.7288034 217.915423,74.7283212 217.91687,74.7278393 L217.91987,64.944223 C217.921716,63.6413965 218.977767,62.5853465 220.280593,62.5834999 Z" id="Rectangle" fill="url(#linearGradient-8)" fill-rule="nonzero" transform="translate(233.110824, 69.831375) rotate(23.670000) translate(-233.110824, -69.831375) "></path>
            <path d="M218.176613,67.4461885 L248.19737,67.4369885 C249.290893,67.4354399 250.177641,68.3216444 250.177976,69.4151681 C250.177976,69.4155727 250.177976,69.4159774 250.176762,69.4163816 L250.176363,70.7187558 C250.174814,71.8118052 249.288805,72.6978132 248.195756,72.6993625 L218.174999,72.7085624 C217.081476,72.7101111 216.194728,71.8239066 216.194393,70.7303828 C216.194393,70.7299782 216.194393,70.7295736 216.195607,70.7291693 L216.196006,69.4267951 C216.197555,68.3337458 217.083564,67.4477377 218.176613,67.4461885 Z" id="Rectangle" fill="url(#linearGradient-9)" fill-rule="nonzero" transform="translate(233.186185, 70.072775) rotate(23.670000) translate(-233.186185, -70.072775) "></path>
        </g>
    </g>
</svg>