<?xml version="1.0" encoding="UTF-8"?>
<svg width="400px" height="541px" viewBox="0 0 400 541" version="1.1" xmlns="http://www.w3.org/2000/svg" xmlns:xlink="http://www.w3.org/1999/xlink">
    <title>Artboard</title>
    <defs>
        <linearGradient x1="57.7369139%" y1="-22.9263747%" x2="32.5804305%" y2="310.981671%" id="linearGradient-1">
            <stop stop-color="#010101" stop-opacity="0" offset="0%"></stop>
            <stop stop-color="#010101" offset="95%"></stop>
        </linearGradient>
        <linearGradient x1="56.5740742%" y1="-7.67319043%" x2="31.429104%" y2="326.234856%" id="linearGradient-2">
            <stop stop-color="#010101" stop-opacity="0" offset="0%"></stop>
            <stop stop-color="#010101" offset="95%"></stop>
        </linearGradient>
        <linearGradient x1="57.2140222%" y1="72.3816044%" x2="30.4322052%" y2="-35.2237938%" id="linearGradient-3">
            <stop stop-color="#010101" stop-opacity="0" offset="0%"></stop>
            <stop stop-color="#010101" offset="95%"></stop>
        </linearGradient>
        <linearGradient x1="55.9788578%" y1="59.9194337%" x2="33.0848857%" y2="26.3173738%" id="linearGradient-4">
            <stop stop-color="#010101" stop-opacity="0" offset="0%"></stop>
            <stop stop-color="#010101" offset="95%"></stop>
        </linearGradient>
        <linearGradient x1="50.8957166%" y1="35.1921669%" x2="41.2784051%" y2="253.606865%" id="linearGradient-5">
            <stop stop-color="#010101" stop-opacity="0" offset="0%"></stop>
            <stop stop-color="#010101" offset="95%"></stop>
        </linearGradient>
        <linearGradient x1="47.4793248%" y1="-34.6296296%" x2="56.3205412%" y2="262.314815%" id="linearGradient-6">
            <stop stop-color="#010101" stop-opacity="0" offset="0%"></stop>
            <stop stop-color="#010101" offset="95%"></stop>
        </linearGradient>
        <linearGradient x1="35.3456086%" y1="52.0026408%" x2="57.9871589%" y2="49.5983715%" id="linearGradient-7">
            <stop stop-color="#FFFFFF" stop-opacity="0" offset="0%"></stop>
            <stop stop-color="#FFFFFF" offset="95%"></stop>
        </linearGradient>
        <linearGradient x1="48.5563063%" y1="84.4829633%" x2="53.3023896%" y2="-124.041315%" id="linearGradient-8">
            <stop stop-color="#010101" stop-opacity="0" offset="0%"></stop>
            <stop stop-color="#010101" offset="95%"></stop>
        </linearGradient>
        <linearGradient x1="48.5624052%" y1="84.5136187%" x2="53.2869788%" y2="-123.910506%" id="linearGradient-9">
            <stop stop-color="#010101" stop-opacity="0" offset="0%"></stop>
            <stop stop-color="#010101" offset="95%"></stop>
        </linearGradient>
        <linearGradient x1="76.1769912%" y1="53.4329358%" x2="-66.0884956%" y2="38.4474292%" id="linearGradient-10">
            <stop stop-color="#010101" stop-opacity="0" offset="0%"></stop>
            <stop stop-color="#010101" offset="95%"></stop>
        </linearGradient>
    </defs>
    <g id="Artboard" stroke="none" stroke-width="1" fill="none" fill-rule="evenodd">
        <g id="startup_1" transform="translate(0.000000, 43.000000)">
            <path d="M10.6206897,423.981191 C7.51097179,424.60815 4.20062696,425.423197 2.10658307,427.742947 C-0.840125392,431.103448 -0.175548589,436.520376 2.52037618,440.094044 C5.21630094,443.667712 9.4169279,445.69906 13.5799373,447.291536 C33.1912226,454.815047 54.7335423,454.877743 75.7241379,454.902821 C118.094044,454.902821 162.068966,454.652038 200.438871,436.658307 C169.429467,424.683386 140.551724,425.272727 108.275862,422.990596 C74.6959248,420.721003 44.2131661,417.109718 10.6206897,423.981191 Z" id="Path" fill="#68E1FD" fill-rule="nonzero" opacity="0.24"></path>
            <polygon id="Path" fill="#68E1FD" fill-rule="nonzero" points="265.366771 178.169279 245.429467 189.090909 217.166144 258.896552 277.003135 226.131661"></polygon>
            <polygon id="Path" fill="#68E1FD" fill-rule="nonzero" points="351.322884 178.169279 371.260188 189.090909 399.523511 258.896552 339.68652 226.131661"></polygon>
            <polygon id="Path" fill="url(#linearGradient-1)" fill-rule="nonzero" points="265.366771 178.169279 245.429467 189.090909 217.166144 258.896552 277.003135 226.131661"></polygon>
            <polygon id="Path" fill="url(#linearGradient-2)" fill-rule="nonzero" points="351.322884 178.169279 371.260188 189.090909 399.523511 258.896552 339.68652 226.131661"></polygon>
            <path d="M114.821317,419.467085 C114.025743,422.258326 115.24998,425.230732 117.780564,426.652038 C119.002885,427.198518 120.28713,427.594318 121.605016,427.830721 C125.649292,428.82221 129.392693,430.779966 132.514107,433.53605 C133.546999,434.21711 134.154144,435.383967 134.119122,436.62069 C133.830721,438.012539 132.200627,438.601881 130.821317,438.9279 C127.921247,439.715429 124.959828,440.256538 121.968652,440.545455 C115.887147,440.959248 109.868339,439.291536 104,437.598746 C101.768025,436.959248 98.4075235,435.99373 97.8934169,433.398119 C97.7896442,431.609515 97.8736983,429.81496 98.1442006,428.043887 L98.5329154,419.015674" id="Path" fill="#606161" fill-rule="nonzero"></path>
            <path d="M80.1755486,430.238245 C79.6306614,431.645895 79.9646907,433.242358 81.0282132,434.31348 C82.0832485,435.34533 83.2880541,436.211945 84.6018809,436.884013 C88.0700725,438.988266 91.1287751,441.702864 93.630094,444.896552 C94.7836991,446.363636 95.862069,448.282132 95.1347962,450 C94.7476035,450.79666 94.132157,451.46012 93.3667712,451.905956 C90.8637556,453.362016 87.9786708,454.02646 85.0909091,453.811912 C77.8056426,453.623824 67.0344828,449.0721 64.9278997,441.184953 C64.2633229,438.739812 64.9905956,435.39185 65.0909091,432.871473 L65.354232,426.789969" id="Path" fill="#606161" fill-rule="nonzero"></path>
            <path d="M121.467085,279.99373 L115.799373,421.68652 C113.612143,423.293437 110.988641,424.198545 108.275862,424.282132 C103.047022,424.583072 102.106583,424.959248 98.3448276,421.53605 L81.9184953,272.934169 L121.467085,272.106583 L121.467085,279.99373 Z" id="Path" fill="#606161" fill-rule="nonzero"></path>
            <path d="M121.467085,279.99373 L115.799373,421.68652 C113.612143,423.293437 110.988641,424.198545 108.275862,424.282132 C103.047022,424.583072 102.106583,424.959248 98.3448276,421.53605 L81.9184953,272.934169 L121.467085,272.106583 L121.467085,279.99373 Z" id="Path" fill="url(#linearGradient-3)" fill-rule="nonzero"></path>
            <path d="M99.1222571,292.721003 L82.8213166,430.526646 C82.8213166,430.526646 80.4639498,432.946708 74.0438871,433.034483 C66.7586207,433.122257 66.0940439,432.131661 64.4639498,428.445141 L61.2413793,270.376176 L98.6708464,276.758621 L99.1222571,292.721003 Z" id="Path" fill="#606161" fill-rule="nonzero"></path>
            <path d="M99.1222571,292.721003 L82.8213166,430.526646 C82.8213166,430.526646 80.4639498,432.946708 74.0438871,433.034483 C66.7586207,433.122257 66.0940439,432.131661 64.4639498,428.445141 L61.2413793,270.376176 L98.6708464,276.758621 L99.1222571,292.721003 Z" id="Path" fill="url(#linearGradient-4)" fill-rule="nonzero"></path>
            <path d="M104.200627,278.9279 C99.0930542,280.655251 93.8318601,281.889721 88.4890282,282.61442 C81.4043887,283.341693 73.9811912,279.918495 68.4263323,279.630094 C61.015674,279.253918 60.815047,279.015674 60.815047,274.188088 C60.815047,271.755486 122.432602,265.924765 122.432602,265.924765 C122.432602,265.924765 122.144201,270.376176 122.15674,274.489028 C122.15674,277.573668 120.840125,277.398119 115.23511,277.724138 C109.630094,278.050157 108.551724,276.344828 104.200627,278.9279 Z" id="Path" fill="#F2FBFF" fill-rule="nonzero"></path>
            <path d="M79.8871473,170.137931 C79.8871473,170.137931 69.5548589,172.821317 62.1818182,178.188088 C57.630094,181.498433 60.7774295,274.188088 60.7774295,274.188088 C61.2288401,274.112853 81.0282132,282.137931 100.175549,278.840125 C116.476489,276.031348 122.357367,268.382445 122.357367,268.382445 C122.357367,268.382445 123.824451,179.442006 120.652038,175.793103 C119.247649,174.163009 103.736677,168.432602 103.736677,168.432602 C103.736677,168.432602 96.9655172,178.61442 79.8871473,170.137931 Z" id="Path" fill="#68E1FD" fill-rule="nonzero"></path>
            <path d="M79.8871473,170.137931 C79.8871473,170.137931 69.5548589,172.821317 62.1818182,178.188088 C57.630094,181.498433 60.7774295,274.188088 60.7774295,274.188088 C61.2288401,274.112853 81.0282132,282.137931 100.175549,278.840125 C116.476489,276.031348 122.357367,268.382445 122.357367,268.382445 C122.357367,268.382445 123.824451,179.442006 120.652038,175.793103 C119.247649,174.163009 103.736677,168.432602 103.736677,168.432602 C103.736677,168.432602 96.9655172,178.61442 79.8871473,170.137931 Z" id="Path" fill="url(#linearGradient-5)" fill-rule="nonzero"></path>
            <path d="M83.2727273,149.548589 L79.8871473,170.137931 C79.8871473,170.137931 87.4106583,181.222571 97.0282132,179.567398 C106.645768,177.912226 104.225705,173.448276 104.225705,173.448276 L102.971787,156.056426 C102.971787,156.056426 94.3322884,157.573668 83.2727273,149.548589 Z" id="Path" fill="#C8A59C" fill-rule="nonzero"></path>
            <path d="M82.0815047,156.77116 L83.3354232,149.548589 C94.3949843,157.573668 100.137931,154.163009 100.137931,154.163009 L102.808777,163.504702 C101.306193,165.077096 99.2826168,166.048769 97.1159875,166.238245 C91.7492163,166.61442 86.3824451,162.413793 82.0815047,156.77116 Z" id="Path" fill="#B58B81" fill-rule="nonzero"></path>
            <path d="M80.3134796,167.655172 L70.2821317,172.369906 C70.2821317,172.369906 86.0815047,189.0721 90.8965517,188.746082 C90.8965517,188.746082 95.4482759,180.294671 99.6739812,178.965517 L80.3134796,167.655172 Z" id="Path" fill="#F2FBFF" fill-rule="nonzero"></path>
            <path d="M103.548589,170.526646 C102.720031,173.519492 101.425162,176.363126 99.7115987,178.952978 C100.652038,179.316614 106.783699,183.592476 106.884013,186.476489 C106.884013,186.476489 112.978056,172.683386 110.45768,170.514107 C108.350017,169.440969 106.185947,168.482416 103.974922,167.642633 L103.548589,170.526646 Z" id="Path" fill="#F2FBFF" fill-rule="nonzero"></path>
            <path d="M66.2570533,175.742947 C66.2570533,175.742947 50.7460815,180.758621 48.9905956,205.523511 C47.3855799,228.094044 43.3479624,244.482759 46.6332288,251.166144 C50.9090909,259.880878 80.815047,261.322884 80.815047,261.322884 C81.5382042,256.985399 81.3546155,252.545114 80.2758621,248.282132 L63.8871473,241.736677 C63.8871473,241.736677 66.5203762,179.605016 66.2570533,175.742947 Z" id="Path" fill="#68E1FD" fill-rule="nonzero"></path>
            <path d="M74.6081505,134.551724 C75.4231975,145.974922 87.1473354,166.163009 98.5579937,165.347962 C109.968652,164.532915 113.291536,140.896552 112.476489,129.473354 C111.661442,118.050157 105.253918,111.567398 93.8181818,112.382445 C88.3306757,112.774171 83.2236405,115.330118 79.6209179,119.487829 C76.0181953,123.64554 74.2150042,129.06432 74.6081505,134.551724 L74.6081505,134.551724 Z" id="Path" fill="#C8A59C" fill-rule="nonzero"></path>
            <path d="M101.504702,259.529781 C101.22884,257.347962 102.257053,255.253918 102.557994,251.54232 C102.858934,247.830721 100.451411,246.865204 96.9278997,246.526646 C95.9623824,246.413793 95.2100313,246.30094 94.5705329,246.200627 C91.2852665,246.990596 93.9059561,250.978056 94.0815047,253.724138 C94.2570533,256.470219 93.6426332,260.407524 94.5956113,261.247649 C94.9968652,261.611285 98.0188088,261.448276 101.517241,260.996865 C101.573538,260.509189 101.569326,260.016423 101.504702,259.529781 L101.504702,259.529781 Z" id="Path" fill="#B58B81" fill-rule="nonzero"></path>
            <path d="M103.673981,153.548589 C103.673981,153.548589 103.360502,153.260188 100.965517,153.435737 C98.1218965,153.580815 95.2711938,153.378697 92.476489,152.833856 C90.6332288,152.369906 89.7554859,152.658307 89.968652,155.128527 C90.1818182,157.598746 92.1128527,159.793103 96.9529781,160.056426 C102.382445,160.344828 104.664577,158.30094 105.090909,155.855799 C105.39185,154.087774 104.275862,153.498433 103.673981,153.548589 Z" id="Path" fill="#C8A59C" fill-rule="nonzero"></path>
            <path d="M82.8213166,248.670846 C84.8567804,248.237756 86.8628626,247.676556 88.8275862,246.990596 C91.4106583,246.012539 92.2257053,246.589342 96.0125392,246.990596 C99.799373,247.39185 102.394984,248.357367 102.068966,252.15674 C101.742947,255.956113 100.652038,258.087774 100.940439,260.30721 C101.22884,262.526646 100.539185,264.432602 97.1786834,264.507837 C93.8181818,264.583072 82.8213166,261.197492 82.8213166,261.197492" id="Path" fill="#C8A59C" fill-rule="nonzero"></path>
            <path d="M79.1598746,247.680251 L84.9153605,247.680251 C84.9153605,247.680251 87.4231975,255.981191 84.1630094,261.736677 L77.8056426,261.473354 C77.8056426,261.473354 79.9623824,253.398119 79.1598746,247.680251 Z" id="Path" fill="#F2FBFF" fill-rule="nonzero"></path>
            <ellipse id="Oval" fill="#D2E8EC" fill-rule="nonzero" cx="82.0689655" cy="250.363636" rx="1.26645768" ry="1.34169279"></ellipse>
            <path d="M104.501567,139.943574 L104.501567,139.943574 C104.121378,138.477325 104.342569,136.919958 105.115987,135.617555 C105.875428,134.308256 107.133148,133.362704 108.601881,132.996865 C110.608984,132.378076 112.793763,132.912089 114.289123,134.386966 C115.784483,135.861843 116.348577,138.039049 115.757528,140.054495 C115.166479,142.069942 113.515878,143.597667 111.460815,144.031348 L111.260188,144.031348 C108.275812,144.700589 105.294583,142.897471 104.501567,139.943574 L104.501567,139.943574 Z M108.940439,134.326019 C106.626195,134.928014 105.235369,137.289054 105.830721,139.605016 L105.830721,139.605016 C106.423312,141.907376 108.758453,143.303997 111.067227,142.73691 C113.376001,142.169823 114.798367,139.850273 114.256852,137.535367 C113.715338,135.220461 111.411663,133.772526 109.090909,134.288401 L108.940439,134.326019 Z" id="Shape" fill="#292F67" fill-rule="nonzero"></path>
            <path d="M92.8526646,144.119122 C91.3690968,143.249368 90.2946451,141.822785 89.8683386,140.15674 L89.8683386,140.15674 C88.980619,136.69867 91.0616541,133.17508 94.5185933,132.282969 C97.9755324,131.390858 101.501763,133.467416 102.398264,136.923219 C103.294765,140.379023 101.222687,143.907888 97.7680251,144.808777 L97.5297806,144.808777 C95.9399399,145.186072 94.2659437,144.939236 92.8526646,144.119122 L92.8526646,144.119122 Z M94.8589342,133.598746 C93.5356547,133.934303 92.4025874,134.787265 91.7141357,135.966121 C91.0256839,137.144977 90.8395378,138.550941 91.1974922,139.868339 C91.9000217,142.571143 94.6444553,144.207357 97.3561861,143.540114 C100.067917,142.872871 101.739762,140.149997 101.107919,137.4298 C100.476077,134.709602 97.7752231,133.002411 95.0470219,133.598746 L94.8589342,133.598746 Z" id="Shape" fill="#292F67" fill-rule="nonzero"></path>
            <path d="M104.351097,138.589342 L105.667712,138.200627 C105.49739,137.663734 105.090934,137.234185 104.564263,137.034483 C103.38828,136.711881 102.129774,136.927756 101.128527,137.623824 L101.780564,138.877743 C103.122257,138.15047 103.774295,138.225705 104.037618,138.338558 C104.170496,138.378686 104.28278,138.468513 104.351097,138.589342 Z" id="Path" fill="#292F67" fill-rule="nonzero"></path>
            <polygon id="Path" fill="#292F67" fill-rule="nonzero" points="90.4075235 138.225705 90.3573668 136.858934 82.5329154 137.084639 82.5956113 138.451411"></polygon>
            <path d="M120.652038,175.793103 C120.652038,175.793103 129.316614,199.943574 134.708464,219.517241 C140.100313,239.090909 156.025078,219.855799 156.025078,219.855799 C156.025078,219.855799 164.802508,219.517241 165.128527,224.871473 C165.454545,230.225705 160.112853,247.442006 144.890282,247.818182 C129.667712,248.194357 113.54232,228.244514 113.54232,228.244514 L120.652038,175.793103 Z" id="Path" fill="#68E1FD" fill-rule="nonzero"></path>
            <path d="M143.962382,259.705329 L113.003135,259.253918 C111.376809,259.345822 109.803535,258.659665 108.76438,257.405257 C107.725225,256.150848 107.343779,254.477379 107.736677,252.896552 L119.561129,198.163009 C120.510295,194.539649 123.777919,192.007883 127.523511,191.99373 L158.482759,192.445141 C160.110788,192.347699 161.68772,193.032328 162.728165,194.288293 C163.768609,195.544259 164.147873,197.221038 163.749216,198.802508 L151.937304,253.53605 C150.98309,257.161359 147.711145,259.692486 143.962382,259.705329 Z" id="Path" fill="#68E1FD" fill-rule="nonzero"></path>
            <path d="M143.962382,259.705329 L113.003135,259.253918 C111.376809,259.345822 109.803535,258.659665 108.76438,257.405257 C107.725225,256.150848 107.343779,254.477379 107.736677,252.896552 L119.561129,198.163009 C120.510295,194.539649 123.777919,192.007883 127.523511,191.99373 L158.482759,192.445141 C160.110788,192.347699 161.68772,193.032328 162.728165,194.288293 C163.768609,195.544259 164.147873,197.221038 163.749216,198.802508 L151.937304,253.53605 C150.98309,257.161359 147.711145,259.692486 143.962382,259.705329 Z" id="Path" fill="url(#linearGradient-6)" fill-rule="nonzero"></path>
            <path d="M144.175549,260.031348 L114.557994,259.592476 C113.004516,259.670081 111.505975,259.00783 110.517533,257.806873 C109.529091,256.605916 109.1674,255.007986 109.54232,253.498433 L120.827586,201.122257 C121.745734,197.654003 124.876262,195.232856 128.46395,195.216301 L158.094044,195.655172 C159.649235,195.572099 161.151392,196.232851 162.1411,197.435347 C163.130809,198.637843 163.490333,200.239034 163.109718,201.749216 L151.824451,254.125392 C150.905093,257.598132 147.767905,260.020452 144.175549,260.031348 Z" id="Path" fill="#68E1FD" fill-rule="nonzero"></path>
            <path d="M164.125392,222.376176 C164.102298,221.16307 163.84247,219.966156 163.360502,218.852665 C163.029882,217.721432 162.365611,216.716286 161.454545,215.968652 C160.4463,215.400783 159.300564,215.123029 158.144201,215.166144 C156.978056,215.166144 155.799373,215.166144 154.633229,215.166144 C153.347191,215.144861 152.069369,215.374869 150.871473,215.84326 C149.158358,216.775823 147.827022,218.280232 147.109718,220.094044 C145.504702,223.517241 145.166144,227.868339 147.460815,230.865204 C148.473763,232.055187 149.666917,233.0791 150.996865,233.899687 C152.438871,234.890282 154.131661,235.931034 155.824451,235.467085 C156.630362,235.183823 157.365912,234.730519 157.981191,234.137931 L160.489028,232.056426 C161.344631,231.420132 162.068576,230.623792 162.62069,229.711599 C163.080637,228.533865 163.302264,227.276555 163.272727,226.012539 C163.617734,224.81548 163.902315,223.601825 164.125392,222.376176 Z" id="Path" fill="#C8A59C" fill-rule="nonzero"></path>
            <path d="M110.946708,114.664577 C109.337881,110.84871 106.984862,107.391649 104.025078,104.495298 L103.786834,106.789969 C99.0875014,104.643699 94.0148415,103.434097 88.8526646,103.22884 L89.3040752,104.833856 C87.4266656,104.364716 85.6243567,103.634507 83.9498433,102.664577 L82.3322884,105.548589 C81.2335594,104.676567 80.0285129,103.94764 78.7460815,103.37931 L76.6520376,110.902821 C76.0604831,110.58631 75.5125364,110.194318 75.0219436,109.736677 C74.4702194,109.360502 73.5799373,109.247649 73.2288401,109.811912 C73.0932411,110.083409 73.036753,110.387576 73.0658307,110.689655 L73.0658307,113.924765 L69.9811912,112.821317 C69.7150163,112.696684 69.4072408,112.696684 69.1410658,112.821317 C68.9341951,112.993155 68.8072083,113.242594 68.7899687,113.510972 C66.5454545,124.721003 71.2978056,139.304075 78.6833856,148.018809 C78.9674506,146.676115 78.8272336,145.278326 78.2821317,144.018809 C77.6677116,142.413793 75.7742947,141.510972 76.1003135,139.818182 C76.2797325,138.045576 77.7669552,136.693555 79.5485893,136.683386 C81.9435737,136.959248 81.0532915,137.836991 82.7586207,139.54232 C83.3605016,136.219436 81.9184953,130.76489 82.9592476,127.567398 C83.658292,125.861337 85.1230605,124.58642 86.9092348,124.129377 C88.6954092,123.672334 90.5925106,124.087021 92.0250784,125.247649 C91.9498433,123.115987 94.4576803,121.749216 96.5893417,121.824451 C98.7210031,121.899687 101.141066,122.714734 103.398119,122.990596 C105.316614,123.216301 107.285266,124.557994 109.128527,124.532915 C113.868339,124.45768 111.962382,117.335423 110.946708,114.664577 Z" id="Path" fill="#606161" fill-rule="nonzero"></path>
            <ellipse id="Oval" fill="#68E1FD" fill-rule="nonzero" opacity="0.24" cx="307.297806" cy="407.968652" rx="34.5203762" ry="4.20062696"></ellipse>
            <ellipse id="Oval" fill="#68E1FD" fill-rule="nonzero" opacity="0.24" cx="305.203762" cy="432.758621" rx="55.9874608" ry="6.80877743"></ellipse>
            <ellipse id="Oval" stroke="#FFFFFF" stroke-width="6.21" cx="306.244514" cy="380.683386" rx="87.6990596" ry="10.6708464"></ellipse>
            <path d="M308.200627,0.940438871 C308.200627,0.940438871 213.968652,56.2758621 269.329154,228.852665 L346.144201,228.852665 C346.144201,228.852665 403.172414,91.523511 308.200627,0.940438871 Z" id="Path" fill="#68E1FD" fill-rule="nonzero"></path>
            <path d="M308.200627,0.940438871 C308.200627,0.940438871 213.968652,56.2758621 269.329154,228.852665 L346.144201,228.852665 C346.144201,228.852665 403.172414,91.523511 308.200627,0.940438871 Z" id="Path" fill="url(#linearGradient-7)" fill-rule="nonzero"></path>
            <circle id="Oval" fill="#68E1FD" fill-rule="nonzero" cx="306.595611" cy="113.216301" r="25.7931034"></circle>
            <path d="M275.774295,289.479624 L285.253918,272.213166 C286.930613,293.408193 292.134891,314.174447 300.652038,333.655172 C315.962382,318.420063 319.799373,295.423197 322.758621,274.031348 C327.105538,284.530825 330.988506,295.201672 334.407524,306.043887 C341.355959,292.261837 343.62301,276.590572 340.865204,261.404389 L346.758621,271.435737 C350.7867,256.884285 349.048577,241.339991 341.905956,228.037618 C329.734587,228.940439 317.53814,229.53814 305.316614,229.830721 C299.464995,229.981191 293.588297,230.056426 287.68652,230.056426 C283.811912,230.056426 276.677116,228.539185 273.141066,230.507837 C266.344828,234.269592 268.827586,250.482759 269.253918,257.141066 C269.606106,262.646688 270.330858,268.122128 271.423197,273.529781 C271.937304,276.075235 276.739812,287.724138 275.774295,289.479624 Z" id="Path" fill="#68E1FD" fill-rule="nonzero"></path>
            <path d="M275.774295,289.479624 L285.253918,272.213166 C286.930613,293.408193 292.134891,314.174447 300.652038,333.655172 C315.962382,318.420063 319.799373,295.423197 322.758621,274.031348 C327.105538,284.530825 330.988506,295.201672 334.407524,306.043887 C341.355959,292.261837 343.62301,276.590572 340.865204,261.404389 L346.758621,271.435737 C350.7867,256.884285 349.048577,241.339991 341.905956,228.037618 C329.734587,228.940439 317.53814,229.53814 305.316614,229.830721 C299.464995,229.981191 293.588297,230.056426 287.68652,230.056426 C283.811912,230.056426 276.677116,228.539185 273.141066,230.507837 C266.344828,234.269592 268.827586,250.482759 269.253918,257.141066 C269.606106,262.646688 270.330858,268.122128 271.423197,273.529781 C271.937304,276.075235 276.739812,287.724138 275.774295,289.479624 Z" id="Path" fill="url(#linearGradient-8)" fill-rule="nonzero"></path>
            <path d="M288.815047,267.799373 L294.583072,257.266458 C295.613147,270.19146 298.791541,282.854184 303.987461,294.733542 C313.316614,285.442006 315.661442,271.410658 317.467085,258.369906 C320.125392,264.781609 322.495298,271.293626 324.576803,277.905956 C328.813342,269.496462 330.195489,259.935878 328.514107,250.670846 L332.100313,256.815047 C334.577275,247.920447 333.516836,238.412439 329.141066,230.282132 C321.717868,230.833856 314.282132,231.201672 306.833856,231.38558 C303.247649,231.469175 299.661442,231.510972 296.075235,231.510972 C293.717868,231.510972 289.366771,230.583072 287.210031,231.786834 C283.059561,234.106583 284.564263,243.974922 284.827586,248.087774 C285.048728,251.45723 285.492751,254.808344 286.15674,258.119122 C286.470219,259.623824 289.39185,266.733542 288.815047,267.799373 Z" id="Path" fill="url(#linearGradient-9)" fill-rule="nonzero"></path>
            <path d="M288.940439,18.5579937 C288.940439,18.5579937 308.476489,25.1410658 324.363636,18.5579937 L308.589342,1.40438871 C307.828238,0.576812296 306.745181,0.120660074 305.621336,0.154351342 C304.497492,0.188042609 303.443704,0.708254418 302.733542,1.5799373 L288.940439,18.5579937 Z" id="Path" fill="#68E1FD" fill-rule="nonzero"></path>
            <path d="M288.940439,18.5579937 C288.940439,18.5579937 308.476489,25.1410658 324.363636,18.5579937 L308.401254,1.20376176 C307.687244,0.428112537 306.671754,0.000515973526 305.617969,0.031792703 C304.564184,0.0630694325 303.575841,0.550140486 302.909091,1.36677116 L288.940439,18.5579937 Z" id="Path" fill="url(#linearGradient-10)" fill-rule="nonzero"></path>
            <path d="M340.012539,291.724138 C353.153605,292.978056 361.529781,295.021944 361.529781,297.253918 C361.529781,301.216301 335.197492,304.426332 302.595611,304.426332 C269.99373,304.426332 243.661442,301.216301 243.661442,297.253918 C243.661442,293.981191 261.768025,291.210031 286.482759,290.357367" id="Path" stroke="#FFFFFF" stroke-width="4.17"></path>
        </g>
    </g>
</svg>