<?xml version="1.0" encoding="UTF-8"?>
<svg width="105px" height="105px" viewBox="0 0 105 105" version="1.1" xmlns="http://www.w3.org/2000/svg" xmlns:xlink="http://www.w3.org/1999/xlink">
    <!-- Generator: Sketch 53.2 (72643) - https://sketchapp.com -->
    <title>Artboard</title>
    <desc>Created with Sketch.</desc>
    <g id="Artboard" stroke="none" stroke-width="1" fill="none" fill-rule="evenodd">
        <path d="M80.164984,90.4758124 L79.7098979,91.1815047 C79.5076255,90.9890815 79.2474704,90.8737864 78.9294248,90.835616 C78.6113791,90.7974456 78.2934895,90.9014897 77.9757463,91.1477516 C77.6959426,91.364609 77.5260502,91.6253285 77.4660639,91.9299177 C77.4060776,92.234507 77.4679723,92.5053584 77.6517498,92.7424802 C77.7950963,92.9274352 77.9721104,93.0407461 78.1827974,93.0824164 C78.3934845,93.1240868 78.621536,93.0877726 78.8669586,92.9734727 L79.7478079,92.5526764 C80.2349777,92.3193343 80.6888574,92.2389401 81.1094606,92.3114916 C81.5300639,92.384043 81.8781934,92.5981569 82.1538597,92.9538395 C82.469957,93.361689 82.5807032,93.8375907 82.4861017,94.3815591 C82.3915002,94.9255275 82.0857413,95.3978221 81.5688159,95.798457 C81.0044661,96.2358475 80.4473814,96.4303885 79.8975452,96.3820859 C79.3477089,96.3337833 78.8886656,96.125926 78.5204015,95.7585076 L79.0236826,95.0268491 C79.2873724,95.3083117 79.6044083,95.4725119 79.9747996,95.5194549 C80.345191,95.5663979 80.7105937,95.4502002 81.0710188,95.1708584 C81.4029893,94.9135699 81.600269,94.6392153 81.662864,94.3477865 C81.7254589,94.0563577 81.6667063,93.7944575 81.4866043,93.5620782 C81.3395823,93.3723808 81.147837,93.2572028 80.9113625,93.2165408 C80.674888,93.1758788 80.4131359,93.225028 80.1260982,93.3639898 L79.2863303,93.7643333 C78.8491935,93.9740803 78.4272955,94.0467673 78.0206236,93.9823964 C77.6139516,93.9180255 77.2691121,93.7032595 76.9860948,93.3380919 C76.6773486,92.9397274 76.5687068,92.4640923 76.6601662,91.9111725 C76.7516256,91.3582527 77.0273593,90.9035354 77.4873755,90.5470071 C78.0043009,90.1463721 78.497689,89.965141 78.9675544,90.0033082 C79.4374197,90.0414753 79.836559,90.1989752 80.164984,90.4758124 Z M91.5488877,86.9342605 C91.015933,87.6219136 90.3221345,88.0273776 89.4674716,88.1506647 C88.6128086,88.2739518 87.7823826,88.0231773 86.9761686,87.3983338 C86.435531,86.9793211 86.0568574,86.4884702 85.8401366,85.9257662 C85.6234158,85.3630623 85.561835,84.8181246 85.6553923,84.2909369 C85.7489497,83.7637492 85.961125,83.2867529 86.2919245,82.8599338 C86.7329905,82.2908415 87.2485908,81.9218609 87.8387411,81.7529807 C88.4288913,81.5841006 89.0201841,81.6267656 89.6126372,81.8809771 L89.3385629,82.7047417 C88.885657,82.5055465 88.4513095,82.4611657 88.0355072,82.5715981 C87.6197049,82.6820304 87.2519229,82.9435387 86.93215,83.3561305 C86.5498928,83.8493438 86.3970557,84.4064886 86.473634,85.0275818 C86.5502123,85.6486749 86.9014969,86.2017995 87.5274983,86.6869721 C88.1534998,87.1721447 88.7779566,87.3752532 89.4008875,87.2963036 C90.0238184,87.2173541 90.526405,86.931277 90.9086621,86.4380638 C91.228435,86.0254719 91.3846484,85.5961952 91.3773071,85.1502209 C91.3699657,84.7042466 91.2259823,84.285219 90.9453524,83.8931257 L91.652645,83.4506665 C92.0345249,83.9667788 92.2220467,84.5353128 92.2152161,85.1562855 C92.2083854,85.7772583 91.9862782,86.3699107 91.5488877,86.9342605 Z M99.4547434,74.8097175 L96.4819701,75.1267074 L96.107648,76.0042033 L98.5083442,77.028292 L98.1587416,77.84784 L92.2894532,75.3441197 L93.2323211,73.1338235 C93.4630365,72.5929743 93.8153733,72.2295845 94.2893421,72.0436432 C94.7633109,71.8577019 95.2486371,71.8706718 95.7453354,72.0825533 C96.1702883,72.2638297 96.4790019,72.5455507 96.6714853,72.9277247 C96.8639687,73.3098987 96.9074317,73.7393908 96.8018757,74.2162139 L99.8573162,73.8659956 L99.4547434,74.8097175 Z M95.3791609,75.6934453 L95.9088619,74.4517059 C96.0501163,74.1205738 96.0746148,73.8146568 95.9823584,73.5339459 C95.890102,73.2532349 95.6922078,73.048141 95.38867,72.9186579 C95.0796133,72.7868205 94.7890948,72.7835675 94.5171059,72.9088986 C94.2451169,73.0342298 94.0384984,73.2624581 93.8972441,73.5935902 L93.367543,74.8353296 L95.3791609,75.6934453 Z M98.1422712,64.1679944 C98.5126841,64.6750863 99.0899537,64.9842808 99.8740973,65.0955871 C100.658241,65.2068935 101.301722,65.0709801 101.80456,64.687843 C102.307398,64.3047059 102.603503,63.7982994 102.692886,63.1686084 C102.782268,62.5389173 102.638785,61.9701127 102.262431,61.4621776 C101.886078,60.9542424 101.305838,60.6446263 100.521695,60.53332 C99.737551,60.4220136 99.0955551,60.5581378 98.5956874,60.9416965 C98.0958197,61.3252552 97.8011992,61.8318725 97.7118168,62.4615636 C97.6224344,63.0912546 97.7659178,63.6600592 98.1422712,64.1679944 Z M99.7476134,65.9866549 C99.236732,65.9141372 98.7832702,65.7573536 98.3872145,65.5162996 C97.9911588,65.2752456 97.6792813,64.9855423 97.4515725,64.647181 C97.2238637,64.3088197 97.0623174,63.941979 96.9669288,63.5466479 C96.8715403,63.1513168 96.8525161,62.7516809 96.9098558,62.3477281 C96.9671954,61.9437753 97.096681,61.5652198 97.2983166,61.2120502 C97.4999521,60.8588806 97.7572035,60.5514868 98.0700785,60.2898594 C98.3829536,60.028232 98.7631318,59.8367635 99.2106245,59.7154482 C99.6581172,59.5941328 100.137297,59.5697344 100.648178,59.6422522 C101.325393,59.7383804 101.897298,59.9786374 102.36391,60.3630305 C102.830522,60.7474235 103.154844,61.1949405 103.336886,61.7055947 C103.518928,62.2162489 103.571581,62.74186 103.494847,63.2824438 C103.418113,63.8230277 103.22127,64.3132237 102.904311,64.7530466 C102.587352,65.1928694 102.151304,65.5324545 101.596153,65.7718121 C101.041002,66.0111696 100.424828,66.0827831 99.7476134,65.9866549 Z M104.373509,47.8233473 L104.805454,51.6963349 L98.4637718,52.4036071 L98.3660107,51.5270417 L103.884794,50.9115454 L103.550611,47.9151231 L104.373509,47.8233473 Z M101.942986,35.94441 L103.263119,39.6109966 L97.259401,41.7726004 L96.9606179,40.9427494 L102.185292,39.0616358 L101.163942,36.2249002 L101.942986,35.94441 Z M92.65151,20.1218402 L91.7384115,19.1894904 C91.3018013,18.7436749 90.7918256,18.5187886 90.2084692,18.5148246 C89.6251128,18.5108606 89.0590952,18.7775578 88.5103992,19.3149243 C87.9574166,19.8564888 87.6725839,20.4188745 87.6558926,21.0020981 C87.6392014,21.5853218 87.8491577,22.0998336 88.2857679,22.5456491 L89.2114609,23.4908588 L92.65151,20.1218402 Z M92.2789297,18.6223413 L93.8280485,20.2041209 L89.2691796,24.6688578 L87.7074663,23.0742182 C87.1071273,22.4612219 86.8058968,21.7484664 86.8037657,20.9359302 C86.8016346,20.123394 87.1585021,19.3665896 87.8743789,18.6654944 C88.5859689,17.9685973 89.3478657,17.6339368 90.1600921,17.6615028 C90.9723185,17.6890687 91.6785906,18.009345 92.2789297,18.6223413 Z M80.5245033,14.3140073 C81.1340457,14.1629907 81.6386672,13.7456197 82.0383829,13.0618818 C82.4380987,12.3781438 82.5557526,11.7310751 82.3913482,11.1206562 C82.2269438,10.5102374 81.8702158,10.044543 81.3211535,9.72355913 C80.7720912,9.40257527 80.1912835,9.32018279 79.5787129,9.47637921 C78.9661424,9.63257563 78.4600068,10.0525365 78.0602911,10.7362745 C77.6605753,11.4200124 77.5436784,12.0657862 77.7095969,12.6736151 C77.8755154,13.2814441 78.2330004,13.7458435 78.7820627,14.0668274 C79.331125,14.3878112 79.9119327,14.4702037 80.5245033,14.3140073 Z M82.815354,13.5161019 C82.5549331,13.9615676 82.2382357,14.3219998 81.8652521,14.5974093 C81.4922686,14.8728189 81.1061015,15.0519014 80.7067391,15.1346623 C80.3073767,15.2174231 79.9066849,15.2281646 79.5046517,15.166887 C79.1026185,15.1056094 78.7254932,14.9720155 78.3732646,14.7661013 C78.0210359,14.5601872 77.7196133,14.2970994 77.4689875,13.9768301 C77.2183618,13.6565609 77.0311513,13.3021296 76.9073506,12.9135257 C76.7835498,12.5249217 76.7501568,12.1005627 76.8071705,11.640436 C76.8641842,11.1803093 77.0228991,10.7275199 77.28332,10.2820543 C77.6285291,9.69155334 78.0673081,9.25306554 78.5996702,8.96657776 C79.1320323,8.68008998 79.6689897,8.54919754 80.2105586,8.57389653 C80.7521276,8.59859551 81.2585868,8.74872356 81.7299516,9.02428517 C82.2013164,9.29984679 82.5805953,9.66752456 82.8677997,10.1273295 C83.155004,10.5871345 83.3043642,11.1192507 83.3158845,11.7236942 C83.3274049,12.3281377 83.160563,12.925601 82.815354,13.5161019 Z M65.7004947,3.50754651 L63.1854267,8.09698689 L62.3014246,7.88527647 L65.5555941,2.10317768 L66.4395962,2.31488811 L66.8535258,7.7353597 L69.6605147,3.08626865 L70.5182593,3.29169065 L70.8263557,9.92691955 L69.9423536,9.71520913 L69.7403235,4.5305756 L67.01902,9.01509744 L66.1175129,8.79919473 L65.7004947,3.50754651 Z M50.5740472,0.280133471 L51.4907379,0.231122126 L55.2105527,5.24167011 L54.9328217,0.0470893314 L55.8135638,0 L56.1542407,6.37189927 L54.9769222,6.43484521 L51.5340723,1.7159262 L51.7954661,6.60494341 L50.9147241,6.65203274 L50.5740472,0.280133471 Z M24.0818235,14.5044716 L24.5268429,13.7923882 C24.7318272,13.9819197 24.9935933,14.0935089 25.3121489,14.1271592 C25.6307045,14.1608096 25.9470847,14.0522619 26.2612989,13.8015129 C26.537995,13.5807041 26.7041681,13.3175984 26.7598231,13.0121881 C26.8154782,12.7067778 26.7497436,12.4368325 26.5626175,12.2023443 C26.4166592,12.0194435 26.2380539,11.9086576 26.0267963,11.8699832 C25.8155388,11.8313089 25.588026,11.8708578 25.3442511,11.9886311 L24.469466,12.4218931 C23.9856588,12.6621295 23.5329665,12.7489606 23.1113754,12.682389 C22.6897843,12.6158175 22.3386494,12.4066687 22.0579603,12.0549364 C21.7361034,11.6516166 21.6186105,11.1773355 21.7054781,10.6320786 C21.7923457,10.0868217 22.0913672,9.61023294 22.6025515,9.20229804 C23.1606334,8.75693791 23.7148994,8.55450589 24.2653661,8.59499592 C24.8158328,8.63548594 25.2777814,8.83680392 25.6512257,9.1989559 L25.1583849,9.93768721 C24.8907249,9.65999743 24.5713894,9.50031561 24.2003688,9.45863696 C23.8293482,9.4169583 23.4656323,9.538333 23.1092103,9.82276467 C22.7809268,10.0847412 22.5875628,10.3618695 22.5291124,10.6541578 C22.4706621,10.9464461 22.5331278,11.2074855 22.7165114,11.437284 C22.8662122,11.6248745 23.0595738,11.7373181 23.2966018,11.7746181 C23.5336299,11.811918 23.7946577,11.7590569 24.0796932,11.6160332 L24.9136915,11.2038054 C25.3478058,10.9878721 25.7686291,10.9092015 26.1761741,10.9677912 C26.5837192,11.0263808 26.9315735,11.2362284 27.2197477,11.5973403 C27.5341196,11.9912805 27.6495044,12.4653249 27.5659058,13.0194877 C27.4823071,13.5736504 27.2130582,14.0322373 26.758151,14.3952619 C26.2469667,14.8031968 25.756202,14.9914159 25.285842,14.9599246 C24.815482,14.9284334 24.4141465,14.7766172 24.0818235,14.5044716 Z M12.7399927,18.2199391 C13.2628613,17.524586 13.9506723,17.1090461 14.8034462,16.973307 C15.6562201,16.8375678 16.4902153,17.0762038 17.3054569,17.6892223 C17.8521483,18.1003052 18.2379406,18.585581 18.4628454,19.1450642 C18.6877502,19.7045474 18.7572724,20.248529 18.671414,20.7770251 C18.5855556,21.3055213 18.3803598,21.7855614 18.0558207,22.2171599 C17.6231018,22.7926245 17.1129378,23.1690859 16.5253135,23.3465554 C15.9376892,23.5240249 15.345837,23.4899885 14.7497393,23.244445 L15.0117698,22.4167705 C15.4675327,22.609339 15.9024814,22.6473801 16.3166288,22.530895 C16.7307762,22.4144099 17.094705,22.1475654 17.4084262,21.7303536 C17.7834492,21.2316176 17.9281442,20.6723028 17.8425154,20.0523927 C17.7568866,19.4324825 17.3975721,18.8845402 16.764561,18.4085495 C16.1315499,17.9325587 15.5041972,17.7385795 14.882484,17.826606 C14.2607708,17.9146326 13.7624102,18.2080094 13.3873872,18.7067455 C13.073666,19.1239573 12.9237302,19.5554667 12.9375752,20.0012865 C12.9514203,20.4471063 13.1015,20.8639893 13.3878187,21.251948 L12.6870545,21.7046759 C12.2976878,21.1941883 12.1018939,20.6284498 12.0996669,20.0074434 C12.09744,19.386437 12.3108798,18.7906082 12.7399927,18.2199391 Z M5.01863868,30.4456509 L7.98648225,30.0854169 L8.34799004,29.2025646 L5.93263952,28.2135339 L6.27027416,27.3889832 L12.1753898,29.8069929 L11.2647994,32.0307811 C11.0419821,32.5749318 10.6949729,32.9434124 10.2237613,33.136234 C9.75254962,33.3290557 9.26708598,33.3231526 8.76735579,33.1185245 C8.33980885,32.9434538 8.02702671,32.6662569 7.829,32.2869256 C7.63097329,31.9075943 7.58126231,31.4787804 7.67986557,31.0004711 L4.62984728,31.3951335 L5.01863868,30.4456509 Z M9.080924,29.5026843 L8.56935636,30.7520036 C8.43293764,31.085157 8.41289521,31.3913982 8.50922846,31.6707363 C8.60556171,31.9500744 8.80642066,32.1522657 9.11181133,32.2773162 C9.42275456,32.4046403 9.7132896,32.4036636 9.98342516,32.2743861 C10.2535607,32.1451086 10.4568348,31.9138966 10.5932535,31.5807431 L11.1048212,30.3314239 L9.080924,29.5026843 Z M6.48012188,41.0820596 C6.10236201,40.5804168 5.52064997,40.2796636 4.73496829,40.1797908 C3.94928662,40.079918 3.30785349,40.2251898 2.81064967,40.6156105 C2.31344585,41.0060313 2.02474783,41.5166971 1.94454694,42.1476233 C1.86434605,42.7785495 2.01609933,43.3452037 2.39981133,43.8476031 C2.78352333,44.3500024 3.3682114,44.651134 4.15389307,44.7510068 C4.93957475,44.8508796 5.57951987,44.7054186 6.07374762,44.3146196 C6.56797537,43.9238205 6.85518538,43.4129656 6.93538627,42.7820394 C7.01558716,42.1511132 6.86383388,41.5844589 6.48012188,41.0820596 Z M4.84845955,39.2869752 C5.36034306,39.3520438 5.8160404,39.5022056 6.21556524,39.7374652 C6.61509008,39.9727247 6.93115435,40.2578545 7.16376753,40.5928632 C7.39638071,40.9278718 7.56325318,41.2923205 7.66438997,41.6862202 C7.76552675,42.08012 7.79036996,42.4794364 7.73892033,42.8841815 C7.6874707,43.2889266 7.56351279,43.669328 7.36704288,44.0253972 C7.17057297,44.3814663 6.9178263,44.6925746 6.6087953,44.9587315 C6.29976429,45.2248885 5.92241536,45.4218743 5.47673718,45.5496949 C5.031059,45.6775155 4.55228534,45.708891 4.04040182,45.6438224 C3.36185856,45.5575686 2.78651486,45.3256674 2.31435348,44.9481117 C1.84219211,44.570556 1.51138605,44.1278106 1.3219254,43.6198622 C1.13246475,43.1119138 1.07216118,42.5871253 1.14101288,42.0454811 C1.20986459,41.503837 1.39954689,41.0108258 1.71006549,40.5664327 C2.02058408,40.1220397 2.45163974,39.7761392 3.00324539,39.5287209 C3.55485105,39.2813025 4.16991628,39.2007214 4.84845955,39.2869752 Z M0.488371438,57.5104505 L0,53.6441729 L6.3306947,52.844507 L6.4412268,53.7195536 L0.932004477,54.4154547 L1.30984381,57.4066856 L0.488371438,57.5104505 Z M3.09083779,69.3517582 L1.71719709,65.7048801 L7.68864422,63.4556624 L7.99953749,64.2810528 L2.80294669,66.2384115 L3.86569411,69.0598992 L3.09083779,69.3517582 Z M12.6155427,85.0422205 L13.5420908,85.9612056 C13.9851321,86.4006305 14.4983213,86.6180838 15.0816737,86.6135718 C15.6650262,86.6090599 16.2271093,86.3341672 16.76794,85.7888856 C17.3129959,85.2393439 17.5896277,84.6728793 17.5978436,84.0894747 C17.6060596,83.5060702 17.3886501,82.9946631 16.9456088,82.5552381 L16.0062807,81.6235774 L12.6155427,85.0422205 Z M13.0098697,86.5361479 L11.4379329,84.9770422 L15.931453,80.4465414 L17.5161698,82.0183227 C18.1253516,82.622532 18.4369059,83.3308358 18.450842,84.1432553 C18.464778,84.9556747 18.1189437,85.7175841 17.4133287,86.4290062 C16.7119389,87.1361683 15.9549847,87.481863 15.1424436,87.4661007 C14.3299024,87.4503384 13.6190516,87.1403572 13.0098697,86.5361479 Z M24.8251834,90.671965 C24.2179326,90.8319475 23.7195164,91.2567094 23.3299198,91.9462635 C22.9403231,92.6358175 22.8322174,93.2845497 23.0055992,93.8924796 C23.178981,94.5004094 23.5425329,94.9607964 24.0962657,95.2736543 C24.6499984,95.5865122 25.2319572,95.6603368 25.8421595,95.4951304 C26.4523618,95.3299239 26.9522538,94.9025501 27.3418504,94.2129961 C27.731447,93.523442 27.8388149,92.8760158 27.6639573,92.2706978 C27.4890997,91.6653799 27.12481,91.2062989 26.5710772,90.893441 C26.0173445,90.5805831 25.4353857,90.5067585 24.8251834,90.671965 Z M22.5463396,91.5035422 C22.8001677,91.0542873 23.1115193,90.6892274 23.4804038,90.4083513 C23.8492883,90.1274752 24.2327746,89.9427215 24.630874,89.8540846 C25.0289734,89.7654476 25.4294634,89.7488026 25.832356,89.8041491 C26.2352485,89.8594956 26.6143015,89.9875175 26.9695263,90.1882188 C27.3247511,90.3889201 27.630018,90.6475375 27.8853361,90.9640787 C28.1406542,91.2806199 28.3330673,91.6322539 28.4625812,92.0189913 C28.592095,92.4057287 28.6317379,92.8295495 28.5815109,93.2904664 C28.5312839,93.7513833 28.3792587,94.2064624 28.1254306,94.6557173 C27.7889608,95.2512412 27.3566911,95.6961473 26.8286085,95.990449 C26.300526,96.2847507 25.7655557,96.4235417 25.2236816,96.4068261 C24.6818075,96.3901105 24.1731909,96.247462 23.6978166,95.9788765 C23.2224422,95.7102909 22.8377863,95.3482422 22.5438373,94.8927195 C22.2498884,94.4371968 22.0927031,93.9073394 22.0722767,93.3031313 C22.0518504,92.6989232 22.2098698,92.0990662 22.5463396,91.5035422 Z M39.8168996,101.265918 L42.2654027,96.6406217 L43.1523711,96.8395391 L39.9820737,102.668047 L39.0951054,102.469129 L38.6029108,97.0552033 L35.8633791,101.744361 L35.0027563,101.551352 L34.5988346,94.9212666 L35.4858029,95.120184 L35.762713,100.301358 L38.4189458,95.7779899 L39.3234779,95.9808463 L39.8168996,101.265918 Z M54.9974214,104.679586 L54.0794215,104.679223 L50.6344808,99.4758587 L50.6324217,104.677858 L49.7504218,104.677509 L49.7529476,98.2965097 L50.9319475,98.2969764 L54.1160093,103.194237 L54.1179473,98.2982375 L54.9999472,98.2985866 L54.9974214,104.679586 Z" id="SCROLLDOWNSCROLLDOWN" fill="#435372" fill-rule="nonzero"></path>
        <circle id="Oval" fill="#435372" opacity="0.5" cx="39" cy="6" r="1"></circle>
        <circle id="Oval-Copy" fill="#435372" opacity="0.5" cx="67" cy="99" r="1"></circle>
    </g>
</svg>