<?xml version="1.0" encoding="UTF-8"?>
<svg width="144px" height="89px" viewBox="0 0 144 89" version="1.1" xmlns="http://www.w3.org/2000/svg" xmlns:xlink="http://www.w3.org/1999/xlink">
    <!-- Generator: Sketch 55.2 (78181) - https://sketchapp.com -->
    <title>Shape</title>
    <desc>Created with Sketch.</desc>
    <g id="Page-1" stroke="none" stroke-width="1" fill="none" fill-rule="evenodd">
        <g id="business" transform="translate(-566.000000, -6855.000000)" fill="#000000" fill-rule="nonzero">
            <path d="M629.08432,6910.70775 C629.184454,6915.3333 628.28325,6919.65719 626.580974,6923.77996 C624.878699,6927.90274 622.575621,6931.42218 619.671739,6934.43885 C616.767858,6937.45551 613.363307,6939.86884 609.458087,6941.57829 C605.552868,6943.28773 601.44738,6944.09218 597.141625,6943.99162 C588.129579,6943.99162 580.719675,6940.77384 574.711644,6934.33829 C568.903881,6927.90274 566,6919.65719 566,6909.60164 C566,6896.83109 570.906558,6885.16665 580.619541,6874.60832 C590.432657,6863.94944 602.648986,6857.51389 617.068259,6855 L618.770535,6856.10611 C614.765181,6858.51944 611.260497,6862.03889 608.556883,6866.56388 C605.853269,6870.98833 604.351261,6875.61388 603.950726,6880.44054 C620.673078,6885.46832 629.08432,6895.52387 629.08432,6910.70775 Z M709.992465,6910.70775 C710.092599,6915.3333 709.191394,6919.65719 707.489119,6923.77996 C705.786843,6927.90274 703.483765,6931.42218 700.579884,6934.43885 C697.676002,6937.45551 694.271452,6939.86884 690.366232,6941.57829 C686.461012,6943.28773 682.355524,6944.09218 678.049769,6943.99162 C669.037723,6943.99162 661.627819,6940.77384 655.619789,6934.33829 C649.812026,6927.90274 646.80801,6919.65719 646.80801,6909.60164 C646.80801,6896.83109 651.714569,6885.16665 661.427551,6874.60832 C671.240668,6864.05 683.456997,6857.51389 697.87627,6855.10056 L699.578545,6856.20667 C695.473058,6858.62 692.068507,6862.13944 689.264759,6866.66444 C686.561146,6871.08888 685.059138,6875.71443 684.658603,6880.5411 C701.581222,6885.46832 709.992465,6895.52387 709.992465,6910.70775 L709.992465,6910.70775 Z" id="Shape"></path>
        </g>
    </g>
</svg>