<?xml version="1.0" encoding="UTF-8"?>
<svg width="79px" height="79px" viewBox="0 0 79 79" version="1.1" xmlns="http://www.w3.org/2000/svg" xmlns:xlink="http://www.w3.org/1999/xlink">
    <title>l1</title>
    <g id="l1" stroke="none" stroke-width="1" fill="none" fill-rule="evenodd">
        <g id="001-website" transform="translate(19.000000, 22.000000)" fill="#37383C" fill-rule="nonzero">
            <path d="M38.2280488,18.9473268 C38.2194439,18.9385463 38.2109268,18.9331024 38.2052195,18.924322 C37.4217366,18.0866634 36.2064293,17.7148098 34.2647122,17.7148098 C33.5671902,17.7148098 32.623639,17.7633659 31.6969463,17.8634634 L31.7113463,2.25948293 C31.7113463,1.0385561 30.7191512,0.0462731707 29.4981366,0.0462731707 L2.2103122,0.0462731707 C0.989385366,0.0462731707 0,1.0386439 0,2.25948293 L0,29.5444098 C0,30.768322 0.989297561,31.7574439 2.2103122,31.7574439 L9.5364,31.7574439 C9.68206829,31.9805561 9.83353171,32.2036683 10.005278,32.4123805 C11.9381268,34.7629171 15.3180878,35.9582049 20.0532293,35.9582049 C23.661922,35.9582049 27.3907317,35.2892195 29.8613854,34.8458049 L30.7648976,34.6857366 C33.7645756,34.1654049 35.4001171,33.504761 36.4209366,32.4180878 C36.8611024,32.2523122 37.4274439,31.9579902 37.6501171,31.5057951 C37.7649659,31.2630146 37.7818244,30.9970537 37.6902439,30.7510244 C37.6157854,30.5539024 37.4843415,30.3965561 37.3214634,30.2677463 C37.4386829,30.1048683 37.5360585,29.9419024 37.6216683,29.7759512 C37.9792098,29.5986732 38.3479902,29.3439512 38.5137659,29.0009854 C38.6339707,28.7605756 38.6452098,28.4921561 38.5538049,28.246039 C38.4566927,27.9915805 38.2650146,27.8028878 38.0304,27.6569561 C38.0218829,27.5025073 38.0102927,27.3509561 37.990361,27.2022146 C38.0447122,27.1195024 38.0934439,27.036439 38.142,26.9533756 C38.688322,26.7618732 39.4859415,26.3901073 39.7778049,25.7868 C39.9206634,25.4952 39.9376098,25.1690927 39.8235512,24.8716976 C39.6289756,24.342761 39.0972293,24.0395707 38.5367707,23.8595707 C38.5510829,23.7909951 38.5768098,23.7251415 38.6338829,23.6680683 C38.7568976,23.4392488 38.9311024,23.2017366 39.0772098,22.9445561 C39.737678,22.6957171 40.6155512,22.252478 40.9501756,21.5634732 C41.1244683,21.2059317 41.1444,20.8055415 41.007161,20.4396585 C40.6185366,19.4018049 39.1860878,19.0617366 38.2280488,18.9473268 Z M37.6475707,22.9161951 L34.2590049,23.4194927 L37.5102439,23.7797561 C37.764878,24.5604293 37.9764878,26.021678 36.6381659,27.2737756 C36.6381659,27.2737756 36.652478,27.3082829 36.6753951,27.3653561 L34.0017366,27.7201756 L36.8326537,27.9945659 C36.9012293,28.4406146 36.8840195,29.0267122 36.5522927,29.5756683 L34.3248585,30.2248976 L36.1292488,30.1763415 C36.1236293,30.5282634 35.7834732,32.0234049 30.5990341,32.9243707 C24.691522,33.950722 8.12379512,37.5482634 10.691561,24.5747415 C13.2593268,11.6013073 27.1333756,5.95097561 29.9584098,5.95097561 L29.9584098,18.4411317 C28.4257756,18.6841756 27.0678732,18.9501366 25.8724098,19.2161854 C24.5485756,19.0358341 21.394361,18.6813659 19.7474049,19.1818537 L23.5018537,19.808078 C20.1219805,20.7346829 18.6550244,21.5582049 18.6550244,21.5582049 C22.5839415,20.4202537 26.999122,19.7395024 29.0491902,19.4593171 C32.5347805,19.073239 36.3808098,19.3221659 37.1500683,20.142878 C38.4653854,21.5466146 38.0450634,22.4670732 37.6475707,22.9161951 Z" id="Shape"></path>
        </g>
    </g>
</svg>