<?xml version="1.0" encoding="UTF-8"?>
<svg width="79px" height="79px" viewBox="0 0 79 79" version="1.1" xmlns="http://www.w3.org/2000/svg" xmlns:xlink="http://www.w3.org/1999/xlink">
    <title>l3</title>
    <g id="l3" stroke="none" stroke-width="1" fill="none" fill-rule="evenodd">
        <g id="003-photodune" transform="translate(18.000000, 17.000000)" fill="#37383C" fill-rule="nonzero">
            <path d="M43.0146795,12.4520499 C41.7744453,13.0316852 39.626572,15.7282917 39.626572,15.7282917 C39.3997505,15.6582764 39.0861382,15.6189866 38.7247601,15.6022994 L38.7247601,7.43707869 C38.7247601,6.19366603 37.7168215,5.18572745 36.4734971,5.18572745 L26.034499,5.18572745 C25.9447946,4.6844952 25.8331056,4.24206526 25.6902495,3.9677428 C25.6902495,3.9677428 27.9863647,1.39439155 28.3476545,0.0726641075 C28.3476545,0.0726641075 28.2691631,-0.870998081 24.746499,4.04605758 L24.7440269,5.18572745 L8.70697889,5.18572745 C7.46383109,5.18572745 6.45571593,6.19375432 6.45571593,7.43716699 L6.45571593,13.3286987 L4.74188484,14.0035125 C4.74188484,14.0035125 4.55152783,14.686714 6.45571593,14.3452015 L6.45571593,22.4348445 C4.56274088,24.6327793 1.8186334,27.8672591 1.52744722,28.4719693 C1.0793666,29.398856 0.586610365,32.9691094 0.00962380038,33.7587025 C0.00962380038,33.7587025 1.00387716,34.2765336 2.33381574,28.6428138 L6.45571593,24.459286 L6.45571593,35.2062457 C6.45571593,36.4498349 7.46383109,37.4576852 8.70697889,37.4576852 L24.348833,37.4576852 L19.5575048,43.1503839 C14.0722035,44.9987716 14.6798273,45.9394319 14.6798273,45.9394319 C15.4107063,45.2926065 18.9192438,44.4663724 19.8041036,43.934238 C20.4790058,43.5310096 24.488952,39.3785605 26.3285106,37.4575969 L34.0374395,37.4575969 C34.2053704,37.6957198 34.4013781,37.6060154 34.4013781,37.6060154 L34.4321919,37.4575969 L36.4734971,37.4575969 C37.7168215,37.4575969 38.7247601,36.4496583 38.7247601,35.2061574 L38.7247601,16.8427102 L39.7048868,16.6718656 C43.9610787,12.3707332 43.0146795,12.4520499 43.0146795,12.4520499 Z M29.3834933,5.89135509 C30.677144,5.82690211 31.2820307,5.77931286 31.3631708,6.78733973 C31.3631708,6.78733973 29.433643,6.49323992 28.0338656,7.29695969 C28.0338656,7.29695969 28.0897543,5.95289443 29.3834933,5.89135509 Z M11.4343109,29.950238 C11.0870595,29.6590518 10.8827524,29.4407063 10.8827524,29.4407063 C10.7791862,29.2052322 10.6839194,28.975762 10.5886526,28.7460269 C10.3198042,28.275785 10.1379232,27.8052783 10.0679079,27.3488983 C6.11676392,15.5966488 15.5729866,12.6508829 21.2629482,11.4888752 C21.3692514,12.228142 21.8929098,14.9499117 24.0293935,17.1647102 L23.8951017,17.061144 L13.8816699,32.3276699 C13.0304491,31.6247793 12.1455893,30.8070211 11.4343109,29.950238 Z M16.9171401,34.5313436 C16.9171401,34.5313436 15.5199232,33.6659079 13.9825873,32.4088983 L25.9477083,18.6795317 C27.5519693,19.6399693 29.6915432,20.2813205 32.558906,20.2224299 C32.558906,20.2224299 32.5700307,20.4183493 32.5868061,20.3063954 C32.5811555,26.0384722 31.9454549,38.3786564 16.9171401,34.5313436 Z M33.3149482,19.3460461 C22.8141459,19.5616545 21.9938273,10.4192207 21.9938273,10.4192207 C26.4319885,9.04707869 28.9241113,10.9148023 30.6153397,12.152476 C34.1437428,14.7426027 33.3149482,19.3460461 33.3149482,19.3460461 Z M34.6309367,13.9277582 C34.1771171,15.5014702 35.8629597,13.432 27.7927409,8.7249904 L27.8825336,8.50364299 C27.8825336,8.50364299 30.8843647,7.53208061 33.1355393,9.32970058 C35.1126564,10.914714 35.0846679,12.3540461 34.6309367,13.9277582 Z M36.0254165,13.0149098 C36.5292975,11.4860499 35.8573973,9.65187716 35.8573973,9.65187716 C36.8626871,9.52871017 36.9325259,10.1306833 37.1342726,11.4103839 C37.3302802,12.6900845 36.0254165,13.0149098 36.0254165,13.0149098 Z" id="Shape"></path>
        </g>
    </g>
</svg>