<?xml version="1.0" encoding="UTF-8"?>
<svg width="79px" height="79px" viewBox="0 0 79 79" version="1.1" xmlns="http://www.w3.org/2000/svg" xmlns:xlink="http://www.w3.org/1999/xlink">
    <title>l4</title>
    <g id="l4" stroke="none" stroke-width="1" fill="none" fill-rule="evenodd">
        <g id="004-audiojungle" transform="translate(23.000000, 22.000000)" fill="#37383C" fill-rule="nonzero">
            <path d="M31.5355443,17.0969924 L31.5355443,2.41209114 C31.5355443,1.07899747 30.4538127,0 29.1236354,0 L2.44781772,0 C1.11745823,0 0.0358177215,1.07899747 0.0358177215,2.41209114 L0.0358177215,29.0849013 C0.0358177215,30.4153519 1.11754937,31.4971747 2.44781772,31.4971747 L6.70739241,31.4971747 C7.14340253,31.8857924 7.60183291,32.2546329 8.07694177,32.6011443 C11.0844456,34.7813772 14.6145418,35.9328304 18.2956557,35.9328304 L18.2956557,35.9328304 C19.2178937,35.9328304 20.1515241,35.8601013 21.0682937,35.7147342 C24.1373165,35.2283241 26.8875342,33.7467646 28.9614076,31.4971747 L29.1236354,31.4971747 C30.4540861,31.4971747 31.5355443,30.4151696 31.5355443,29.0849013 L31.5355443,27.5197671 C32.5278684,25.1858734 32.8519595,22.6115544 32.4439291,20.0458937 C32.2790582,19.0088203 31.9689114,18.0195949 31.5355443,17.0969924 Z M3.60492152,25.2224203 L4.70059747,25.2809316 L4.09124051,26.2118278 C3.91807595,25.887281 3.7558481,25.5575392 3.60492152,25.2224203 Z M8.84005063,31.6005266 C8.83166582,31.5946025 8.82328101,31.5892253 8.8148962,31.5864911 C8.43192911,31.3042329 8.06582278,31.0108557 7.7107443,30.7033519 L9.09988861,30.2142076 L8.84005063,31.6005266 Z M14.2148051,34.1439494 L15.1314835,33.0817215 L15.6068658,34.4484456 C15.1371342,34.3673316 14.6732354,34.2640709 14.2148051,34.1439494 Z M21.4763241,34.3645975 L22.013043,32.858157 L22.9465823,33.9595747 C22.4658228,34.1215291 21.9793215,34.2584203 21.4763241,34.3645975 Z M28.6986532,29.870157 L27.7120709,30.9072304 L27.2478987,29.3255089 L28.8243342,29.7053772 C28.7825013,29.7612456 28.7432203,29.8171139 28.6986532,29.870157 Z M29.1458734,29.2693671 L26.5211544,28.6321215 L27.323362,31.3630177 C26.1913215,32.402643 24.880557,33.2187038 23.4493975,33.7749266 L21.8283038,31.8713924 L20.9059747,34.4681316 C20.8947646,34.4707747 20.8837367,34.4707747 20.8723443,34.4737823 C20.0170937,34.6106734 19.1504506,34.6777519 18.2952911,34.6777519 L18.2952911,34.6777519 C17.5771139,34.6777519 16.8696911,34.6189671 16.1654582,34.5267342 L15.3157671,32.0951392 L13.680638,33.9926582 C12.1350987,33.5287595 10.659281,32.8273519 9.29529114,31.9021975 L9.75381266,29.4509165 L7.28311899,30.3199291 C6.13713418,29.2524152 5.15884557,28.0337924 4.37349873,26.7006076 L5.59494684,24.8276962 L3.37579747,24.7047494 C2.89221266,23.5362532 2.54014177,22.2981266 2.33608101,21.0181671 C1.18426329,13.7736 3.85628354,6.56813165 9.48549873,1.70485063 L10.8215089,0.698582278 L22.2446278,0.698582278 L18.7818835,1.70485063 C10.8581468,4.00228861 5.67897722,11.9206481 7.00377722,20.2776608 C7.48444557,23.301843 9.11674937,25.9568203 11.5931848,27.7570937 C13.5691747,29.1908962 15.8891241,29.9481722 18.3068658,29.9481722 C18.9132152,29.9481722 19.5253975,29.9006886 20.1291038,29.8031696 C23.6341367,29.2494987 26.6331646,25.8534684 26.6750886,22.3907241 C26.6972354,20.8504709 26.1383696,19.4614177 25.0623797,18.3714835 C23.6787949,16.9711291 21.4818835,16.1326481 19.1900962,16.1326481 C18.1726177,16.1326481 17.1945114,16.2919595 16.2720911,16.6105823 C16.0596456,16.6831291 15.8500253,16.7225013 15.6628253,16.7225013 C15.1373165,16.7225013 15.0058937,16.4456203 14.9444658,16.1773975 C14.7851544,15.4563038 15.6963646,14.5450937 15.9983089,14.2459747 C16.0822481,14.1622177 16.1604456,14.0811949 16.2276152,14.0057316 C17.3231089,13.0413873 18.6590278,12.4097013 20.1013063,12.1806684 C22.650562,11.7781063 25.2332658,12.3958481 27.3236354,13.9134987 C29.419838,15.4339747 30.7980456,17.6812861 31.2030684,20.2413873 C31.7115342,23.4306228 30.9765873,26.6254177 29.1458734,29.2693671 Z" id="Shape"></path>
            <path d="M19.6092456,12.672638 C18.8211646,12.672638 18.1837367,13.3126177 18.1837367,14.0980557 C18.1837367,14.8861367 18.8210734,15.5262076 19.6092456,15.5262076 C20.3974177,15.5262076 21.0348456,14.8861367 21.0348456,14.0980557 C21.0347544,13.3125266 20.3974177,12.672638 19.6092456,12.672638 Z M19.6092456,15.0232101 C19.1005063,15.0232101 18.6868253,14.6095291 18.6868253,14.0981468 C18.6868253,13.5894076 19.1003241,13.1757266 19.6092456,13.1757266 C20.1179848,13.1757266 20.531757,13.5894076 20.531757,14.0981468 C20.5316658,14.609438 20.1179848,15.0232101 19.6092456,15.0232101 Z" id="Shape"></path>
        </g>
    </g>
</svg>