<?xml version="1.0" encoding="UTF-8"?>
<svg width="79px" height="79px" viewBox="0 0 79 79" version="1.1" xmlns="http://www.w3.org/2000/svg" xmlns:xlink="http://www.w3.org/1999/xlink">
    <title>l7</title>
    <g id="l7" stroke="none" stroke-width="1" fill="none" fill-rule="evenodd">
        <g id="008-html-5" transform="translate(24.000000, 22.000000)" fill="#37383C" fill-rule="nonzero">
            <path d="M0,0 L2.86875,32.4 L15.75,36 L28.62675,32.40225 L31.5,0 L0,0 Z M25.27875,10.59525 L15.75,10.59525 L10.179,10.59525 L10.539,14.6655 L15.75,14.6655 L24.91875,14.6655 L23.8365,26.8695 L15.75,29.12625 L15.7455,29.1285 L7.6635,26.8695 L7.0965,20.48625 L11.0565,20.48625 L11.349,23.79825 L15.74325,24.99525 L15.75,24.99075 L20.14875,23.79375 L20.60775,18.639 L15.75,18.639 L6.9345,18.639 L5.868,6.624 L15.75,6.624 L25.62975,6.624 L25.27875,10.59525 Z" id="Shape"></path>
        </g>
    </g>
</svg>