<?xml version="1.0" encoding="UTF-8"?>
<svg width="37px" height="32px" viewBox="0 0 37 32" version="1.1" xmlns="http://www.w3.org/2000/svg" xmlns:xlink="http://www.w3.org/1999/xlink">
    <title>Group 3</title>
    <defs>
        <rect id="path-1" x="0" y="0" width="37" height="32"></rect>
    </defs>
    <g id="Page-1" stroke="none" stroke-width="1" fill="none" fill-rule="evenodd">
        <g id="Artboard" transform="translate(-1172.000000, -325.000000)">
            <g id="Group-3" transform="translate(1172.000000, 325.000000)">
                <mask id="mask-2" fill="white">
                    <use xlink:href="#path-1"></use>
                </mask>
                <use id="Rectangle" fill="#FF4C00" xlink:href="#path-1"></use>
                <g id="Group-4" mask="url(#mask-2)">
                    <g transform="translate(7.000000, 9.000000)">
                        <polygon id="Rectangle--Rectangle-Copy-3" fill="#D8D8D8" points="8.11158261 2.50234616e-14 10.6146783 4.25238261 5.00869565 13.773913 -9.54598719e-14 13.773913 8.11100543 2.50234616e-14"></polygon>
                        <polygon id="Rectangle--Rectangle-Copy-4" fill="#FFFFFF" transform="translate(17.829078, 6.886957) scale(-1, 1) translate(-17.829078, -6.886957) " points="20.6333217 2.50234616e-14 23.1364174 4.25238261 17.5304348 13.773913 12.5217391 13.773913 20.6327446 2.50234616e-14"></polygon>
                        <polygon id="Rectangle--Rectangle-Copy-5" fill="#FFFFFF" transform="translate(10.917078, 6.886957) scale(-1, 1) translate(-10.917078, -6.886957) " points="13.7213217 2.50234616e-14 16.2244174 4.25238261 10.6184348 13.773913 5.60973913 13.773913 13.7207446 2.50234616e-14"></polygon>
                    </g>
                </g>
            </g>
        </g>
    </g>
</svg>