<?xml version="1.0" encoding="UTF-8"?>
<svg width="624px" height="600px" viewBox="0 0 624 600" version="1.1" xmlns="http://www.w3.org/2000/svg" xmlns:xlink="http://www.w3.org/1999/xlink">
    <title>Group 2</title>
    <defs>
        <linearGradient x1="0%" y1="0%" x2="100%" y2="100%" id="linearGradient-1">
            <stop stop-color="#C6F1FD" offset="0%"></stop>
            <stop stop-color="#00BDE8" offset="100%"></stop>
        </linearGradient>
        <linearGradient x1="14.0491832%" y1="15.6205611%" x2="83.5804332%" y2="79.5543324%" id="linearGradient-2">
            <stop stop-color="#BAC4CF" offset="0%"></stop>
            <stop stop-color="#8B9BAF" offset="100%"></stop>
        </linearGradient>
        <linearGradient x1="13.6621094%" y1="14.5117187%" x2="84.3098958%" y2="84.5052083%" id="linearGradient-3">
            <stop stop-color="#00EAC9" offset="0%"></stop>
            <stop stop-color="#00D198" offset="100%"></stop>
        </linearGradient>
        <linearGradient x1="14.7460938%" y1="13.3398438%" x2="87.0670573%" y2="81.4648438%" id="linearGradient-4">
            <stop stop-color="#7E7BFF" offset="0%"></stop>
            <stop stop-color="#4845FF" offset="100%"></stop>
        </linearGradient>
        <linearGradient x1="10.5891927%" y1="16.2825521%" x2="76.2434896%" y2="94.375%" id="linearGradient-5">
            <stop stop-color="#6D779D" offset="0%"></stop>
            <stop stop-color="#3B4264" offset="100%"></stop>
        </linearGradient>
        <linearGradient x1="13.5449219%" y1="16.4518229%" x2="81.4973958%" y2="85.390625%" id="linearGradient-6">
            <stop stop-color="#B7DE5E" offset="0%"></stop>
            <stop stop-color="#81BA30" offset="100%"></stop>
        </linearGradient>
        <linearGradient x1="7.80658144%" y1="8.74171402%" x2="88.8257576%" y2="88.5594223%" id="linearGradient-7">
            <stop stop-color="#FFFFFF" offset="0%"></stop>
            <stop stop-color="#EDEEF6" offset="100%"></stop>
        </linearGradient>
        <linearGradient x1="21.1191153%" y1="11.6274351%" x2="83.9742289%" y2="85.5925325%" id="linearGradient-8">
            <stop stop-color="#F7D6C0" offset="0%"></stop>
            <stop stop-color="#EDAD8C" offset="100%"></stop>
        </linearGradient>
        <linearGradient x1="11.2976867%" y1="18.460836%" x2="86.0288149%" y2="84.765625%" id="linearGradient-9">
            <stop stop-color="#FF95A4" offset="0%"></stop>
            <stop stop-color="#FF5C6B" offset="100%"></stop>
        </linearGradient>
        <linearGradient x1="7.75162338%" y1="15.4829545%" x2="87.1601055%" y2="86.3331981%" id="linearGradient-10">
            <stop stop-color="#FFF200" offset="0%"></stop>
            <stop stop-color="#FFE100" offset="100%"></stop>
        </linearGradient>
    </defs>
    <g id="Page-1" stroke="none" stroke-width="1" fill="none" fill-rule="evenodd">
        <g id="Artboard" transform="translate(-196.000000, -224.000000)">
            <g id="Group-2" transform="translate(196.000000, 224.000000)">
                <path d="M304,570 C453.116882,570 574,449.116882 574,300 C574,150.883118 453.116882,30 304,30 C154.883118,30 34,150.883118 34,300 C34,449.116882 154.883118,570 304,570 Z" id="Oval-Copy-15" stroke="#6B7C93" opacity="0.3" stroke-dasharray="10"></path>
                <path d="M304,381 C348.735065,381 385,344.735065 385,300 C385,255.264935 348.735065,219 304,219 C259.264935,219 223,255.264935 223,300 C223,344.735065 259.264935,381 304,381 Z" id="Oval-Copy-13" stroke="#6B7C93" opacity="0.3" stroke-dasharray="10"></path>
                <path d="M304,455 C389.604136,455 459,385.604136 459,300 C459,214.395864 389.604136,145 304,145 C218.395864,145 149,214.395864 149,300 C149,385.604136 218.395864,455 304,455 Z" id="Oval-Copy-14" stroke="#6B7C93" opacity="0.3" stroke-dasharray="10"></path>
                <circle id="Oval" fill="url(#linearGradient-1)" cx="304" cy="300" r="44"></circle>
                <circle id="Oval-Copy-8" fill="url(#linearGradient-2)" cx="162" cy="70" r="44"></circle>
                <path d="M148.315089,57.1347088 C148.315089,57.1347088 148.315089,57.1347088 148.31767,57.1347088 L152.25937,57.1347088 C152.485216,57.1347088 152.666875,56.9507575 152.66733,56.7266088 C152.66733,56.7252 152.619468,53.3468863 152.619468,52.407425 L152.619468,52.3962863 C152.619468,51.6247288 152.781404,50.9519938 153.063486,50.3882838 L153.198271,50.1351113 C153.183213,50.1376575 153.168119,50.1450425 153.15313,50.1600663 L145.494343,57.754865 C145.479354,57.7672025 145.469983,57.78318 145.465678,57.7995863 C145.624105,57.7211863 145.840694,57.6140425 145.871266,57.6006113 C146.538235,57.2996463 147.347024,57.1347088 148.315089,57.1347088 Z M178.986455,56.3077288 C178.673336,54.6316138 177.676851,53.8056225 176.775908,53.4808663 C175.803853,53.1295713 173.832819,52.7656238 171.356341,52.4737413 C169.363966,52.2390925 167.022195,52.2577563 165.607714,52.3015238 C165.437938,51.1387188 164.622315,50.0764163 163.709751,49.708645 C161.27824,48.7299663 157.521445,48.9663913 156.55688,49.2367313 C155.790406,49.4509488 154.942068,49.8899888 154.469874,50.566495 C154.153255,51.0183625 153.948374,51.5973063 153.946781,52.4060863 C153.946781,52.86386 153.959513,53.94214 153.971176,54.9002125 C153.98277,55.8612775 153.995353,56.720825 153.995353,56.7266263 C153.994898,57.5822538 153.30146,58.2785875 152.442088,58.2797163 L148.499749,58.2797163 C147.65883,58.2797163 147.016291,58.4210113 146.525504,58.6440313 C146.033946,58.8672263 145.685793,59.1681125 145.421271,59.5240713 C144.894705,60.2309138 144.803303,61.1032188 144.805452,61.9934088 C144.805452,61.9934088 144.813269,62.7208138 144.988496,64.1287325 C145.134201,65.2181513 146.3156,72.8284375 147.437753,75.1429438 C147.872829,76.0435025 148.16262,76.418545 149.01739,76.8154538 C150.921889,77.630805 155.272039,78.537935 157.310868,78.7976788 C159.346013,79.0580613 160.623355,79.60547 161.384631,78.0094 C161.387169,78.005445 161.537126,77.61229 161.743355,77.0356125 C162.404243,75.0329475 162.496214,73.2560325 162.496214,71.9701675 C162.496214,71.8394512 162.688049,71.83344 162.688049,71.9701675 C162.688049,72.8780062 162.514694,76.0905163 164.94141,76.9524 C165.899404,77.2921713 167.886756,77.5950438 169.906064,77.83174 C171.731909,78.0415738 173.056965,78.76008 173.056965,83.4444538 C173.056965,86.2944337 172.458369,86.6851825 169.329028,86.6851825 C166.792306,86.6851825 165.825519,86.75086 165.825519,84.7355425 C165.825519,83.10673 167.436438,83.2774688 168.630384,83.2774688 C169.163661,83.2774688 168.776588,82.8807875 168.776588,81.8758763 C168.776588,80.8762763 169.401775,80.2984 168.81045,80.2837612 C164.681938,80.1701513 162.252754,80.2790188 162.252754,85.4423063 C162.252754,90.129655 164.046539,91.0000109 169.906055,91.0000109 C174.500216,91.0000109 176.119666,90.84957 178.016666,84.96369 C178.392146,83.8017687 179.299906,80.2557612 179.849328,74.3020775 C180.196554,70.53753 179.52171,59.17541 178.986455,56.3077288 Z M170.97793,68.8664463 C170.410326,68.8465838 169.864396,68.8824238 169.355374,68.9642275 C169.498611,67.807145 169.976239,66.3873525 171.668086,66.4467738 C173.540945,66.5111825 173.803375,68.2813513 173.81006,69.4803288 C173.02032,69.1282375 172.042744,68.9038438 170.97793,68.8664463 Z" id="Shape" fill="#FFFFFF" fill-rule="nonzero"></path>
                <circle id="Oval-Copy-9" fill="url(#linearGradient-3)" cx="60" cy="205" r="60"></circle>
                <polygon id="Path" fill="#22243E" fill-rule="nonzero" points="73.88889 181 65.16667 181 64 182.16667 59.85189 190.08053 59 191 43 191 43 202.6111 52.33333 202.6111 52.89969 203.34406 44.11111 220.11112 44.11111 229 52.88887 229 53.94445 227.88892 58.05811 220.03975 59 219 75 219 75 207.44444 65.72221 207.44444 65.04908 206.70042 73.88889 189.83334"></polygon>
                <circle id="Oval-Copy-10" fill="url(#linearGradient-4)" cx="419" cy="60" r="60"></circle>
                <polygon id="Path" fill="#FFFFFF" fill-rule="nonzero" points="406.644911 28.9424278 387 41.7690296 400.583555 52.6465809 420.390984 40.4157078"></polygon>
                <polygon id="Path" fill="#FFFFFF" fill-rule="nonzero" points="387 63.5248557 406.644911 76.3513878 420.390984 64.8774678 400.583555 52.6465809"></polygon>
                <polygon id="Path" fill="#FFFFFF" fill-rule="nonzero" points="420.390984 64.8774678 434.137697 76.3513878 453.782609 63.5248557 440.199054 52.6465809"></polygon>
                <polygon id="Path" fill="#FFFFFF" fill-rule="nonzero" points="453.782609 41.7690296 434.137697 28.9424278 420.390984 40.4157078 440.199054 52.6465809"></polygon>
                <polygon id="Path" fill="#FFFFFF" fill-rule="nonzero" points="420.431624 67.3459339 406.644911 78.7860591 400.745433 74.9343861 400.745433 79.2524104 420.431624 91.0575861 440.11776 79.2524104 440.11776 74.9343861 434.218282 78.7860591"></polygon>
                <circle id="Oval-Copy-11" fill="url(#linearGradient-5)" cx="564" cy="376" r="60"></circle>
                <g id="logo-wordpress" transform="translate(532.000000, 344.000000)" fill="#FFFFFF" fill-rule="nonzero">
                    <path d="M0,32 C0,44.6666667 7.33333333,55.6 18,60.8 L2.8,18.9333333 C0.933333333,22.9333333 0,27.3333333 0,32 Z" id="Path"></path>
                    <path d="M53.6,30.4 C53.6,26.4 52.1333333,23.7333333 50.9333333,21.6 C49.3333333,18.9333333 47.7333333,16.6666667 47.7333333,14.1333333 C47.7333333,11.2 50,8.4 53.0666667,8.4 C53.2,8.4 53.3333333,8.4 53.4666667,8.4 C47.8666667,3.2 40.2666667,0 32,0 C20.8,0 10.9333333,5.73333333 5.2,14.4 C6,14.4 6.66666667,14.4 7.2,14.4 C10.5333333,14.4 15.7333333,14 15.7333333,14 C17.4666667,13.8666667 17.6,16.4 16,16.6666667 C16,16.6666667 14.2666667,16.9333333 12.4,16.9333333 L24,51.6 L31.0666667,30.6666667 L26.1333333,17.0666667 C24.4,16.9333333 22.8,16.8 22.8,16.8 C21.0666667,16.6666667 21.3333333,14 23.0666667,14.1333333 C23.0666667,14.1333333 28.4,14.5333333 31.4666667,14.5333333 C34.8,14.5333333 40,14.1333333 40,14.1333333 C41.7333333,14 41.8666667,16.5333333 40.2666667,16.8 C40.2666667,16.8 38.5333333,17.0666667 36.6666667,17.0666667 L48,51.3333333 L51.2,40.6666667 C52.5333333,36.2666667 53.6,33.0666667 53.6,30.4 Z" id="Path"></path>
                    <path d="M32.5333333,34.8 L22.9333333,62.6666667 C25.8666667,63.4666667 28.8,64 32,64 C35.7333333,64 39.3333333,63.3333333 42.6666667,62.1333333 C42.5333333,62 42.5333333,61.8666667 42.4,61.7333333 L32.5333333,34.8 Z" id="Path"></path>
                    <path d="M60.1333333,16.6666667 C60.2666667,17.7333333 60.4,18.8 60.4,20 C60.4,23.2 59.7333333,26.9333333 58,31.4666667 L48.2666667,59.7333333 C57.6,54.1333333 64,43.8666667 64,32 C64,26.4 62.5333333,21.2 60.1333333,16.6666667 Z" id="Path"></path>
                </g>
                <circle id="Oval-Copy-12" fill="url(#linearGradient-6)" cx="211" cy="540" r="60"></circle>
                <path d="M183.125288,568 L187.063278,553.620343 C184.634232,549.412317 183.356043,544.638247 183.358038,539.747533 C183.364175,524.447493 195.816463,512 211.116387,512 C218.541928,512.002952 225.511478,514.892995 230.752168,520.138048 C235.992998,525.38309 238.877593,532.355078 238.874714,539.769688 C238.868517,555.069728 226.415108,567.518855 211.11676,567.518855 L211.11669,567.518855 L211.105327,567.518855 C206.459508,567.516942 201.894715,566.351908 197.840385,564.141297 L183.125288,568 Z" id="Path" fill="#FFFFFF" fill-rule="nonzero"></path>
                <path d="M204.17892,528.147682 C203.615968,526.795632 203.04415,526.978565 202.618398,526.957367 C202.214312,526.937253 201.75146,526.933007 201.289087,526.933007 C200.826713,526.933007 200.075333,527.106525 199.43957,527.80061 C198.80383,528.49473 197.012122,530.172222 197.012122,533.584943 C197.012122,536.997665 199.497378,540.294677 199.844182,540.757458 C200.19095,541.22024 204.734895,548.22367 211.692487,551.227032 C213.34724,551.941382 214.63923,552.367915 215.646425,552.687628 C217.308027,553.215218 218.820015,553.140808 220.015078,552.962308 C221.347598,552.763287 224.118583,551.28491 224.696585,549.665297 C225.274517,548.045683 225.274517,546.657432 225.101115,546.368203 C224.927795,546.079057 224.465387,545.905503 223.77185,545.558397 C223.078243,545.211372 219.668287,543.533892 219.032465,543.302542 C218.396737,543.07118 217.934398,542.955505 217.47199,543.649637 C217.009663,544.343698 215.680457,545.905503 215.275845,546.368203 C214.871315,546.830985 214.466703,546.888852 213.773167,546.541757 C213.079548,546.194732 210.84474,545.46252 208.195567,543.100347 C206.133775,541.261937 204.741685,538.991172 204.337108,538.29704 C203.932543,537.60292 204.29407,537.227615 204.641293,536.88199 C204.953248,536.571353 205.33483,536.072183 205.681633,535.66728 C206.028402,535.262377 206.144007,534.973148 206.37517,534.510448 C206.60638,534.047667 206.490775,533.642775 206.317362,533.295703 C206.144007,532.948667 204.756922,529.535898 204.17892,528.147682 Z" id="Path" fill="#8DC23A"></path>
                <circle id="Oval-Copy" fill="url(#linearGradient-7)" cx="285" cy="148" r="33"></circle>
                <circle id="Oval-Copy-2" fill="url(#linearGradient-7)" cx="453" cy="265" r="33"></circle>
                <g id="logo-slack" transform="translate(438.000000, 249.000000)" fill-rule="nonzero">
                    <path d="M11.7330909,0 C9.96577971,0 8.53309091,1.4326888 8.53309091,3.2 C8.53309091,4.9673112 9.96577971,6.4 11.7330909,6.4 L14.9330909,6.4 L14.9330909,3.2 C14.9330909,1.4326888 13.5004021,0 11.7330909,0" id="Path" fill="#36C5F0"></path>
                    <path d="M11.7330909,8.53309091 L3.2,8.53309091 C1.4326888,8.53309091 0,9.96577971 0,11.7330909 C0,13.5004021 1.4326888,14.9330909 3.2,14.9330909 L11.7338182,14.9330909 C13.5011294,14.9330909 14.9338182,13.5004021 14.9338182,11.7330909 C14.9338182,9.96577971 13.5011294,8.53309091 11.7338182,8.53309091" id="Path" fill="#36C5F0"></path>
                    <path d="M32,11.7338182 C32,9.96650698 30.5673112,8.53381818 28.8,8.53381818 C27.0326888,8.53381818 25.6,9.96650698 25.6,11.7338182 L25.6,14.9338182 L28.8,14.9338182 C30.5673112,14.9338182 32,13.5011294 32,11.7338182" id="Path" fill="#2EB67D"></path>
                    <path d="M23.4669091,11.7338182 L23.4669091,3.2 C23.4669091,1.4326888 22.0342203,0 20.2669091,0 C18.4995979,0 17.0669091,1.4326888 17.0669091,3.2 L17.0669091,11.7330909 C17.0669091,13.5004021 18.4995979,14.9330909 20.2669091,14.9330909 C22.0342203,14.9330909 23.4669091,13.5004021 23.4669091,11.7330909" id="Path" fill="#2EB67D"></path>
                    <path d="M20.2661818,32 C22.033493,32 23.4661818,30.5673112 23.4661818,28.8 C23.4661818,27.0326888 22.033493,25.6 20.2661818,25.6 L17.0661818,25.6 L17.0661818,28.8 C17.0661818,30.5673112 18.4988706,32 20.2661818,32" id="Path" fill="#ECB22E"></path>
                    <path d="M20.2661818,23.4669091 L28.8,23.4669091 C30.5673112,23.4669091 32,22.0342203 32,20.2669091 C32,18.4995979 30.5673112,17.0669091 28.8,17.0669091 L20.2661818,17.0669091 C18.4988706,17.0669091 17.0661818,18.4995979 17.0661818,20.2669091 C17.0661818,22.0342203 18.4988706,23.4669091 20.2661818,23.4669091 L20.2661818,23.4669091" id="Path" fill="#ECB22E"></path>
                    <path d="M0,20.2661818 C0,22.033493 1.4326888,23.4661818 3.2,23.4661818 L3.2,23.4661818 C4.9673112,23.4661818 6.4,22.033493 6.4,20.2661818 L6.4,17.0661818 L3.2,17.0661818 C1.4326888,17.0661818 0,18.4988706 0,20.2661818" id="Path" fill="#E01E5A"></path>
                    <path d="M8.53309091,20.2661818 L8.53309091,28.8 C8.53309091,30.5673112 9.96577971,32 11.7330909,32 C13.5004021,32 14.9330909,30.5673112 14.9330909,28.8 L14.9330909,20.2661818 C14.9330909,18.4988706 13.5004021,17.0661818 11.7330909,17.0661818 L11.7330909,17.0661818 C9.96577971,17.0661818 8.53309091,18.4988706 8.53309091,20.2661818" id="Path" fill="#E01E5A"></path>
                </g>
                <circle id="Oval-Copy-3" fill="url(#linearGradient-7)" cx="152" cy="316" r="33"></circle>
                <g id="logo-messenger" transform="translate(136.000000, 300.000000)" fill-rule="nonzero">
                    <path d="M16,0 C7.25266667,0 0.161333333,6.63133333 0.161333333,14.8106667 C0.161333333,19.464 2.45666667,23.616 6.04533333,26.3313333 L6.04533333,32 L11.4506667,29.002 C12.8913333,29.4053333 14.4186667,29.622 16,29.622 C24.7473333,29.622 31.8386667,22.9906667 31.8386667,14.8106667 C31.8386667,6.63066667 24.7473333,0 16,0 Z M17.668,19.8613333 L13.5713333,15.6053333 L5.68266667,19.9686667 L14.332,10.79 L18.4286667,15.046 L26.318,10.6833333 L17.668,19.8613333 Z" id="Shape" fill="#0086FF"></path>
                    <polygon id="Path" fill="#FFFFFF" points="17.668 19.8613333 13.5713333 15.6053333 5.68266667 19.9686667 14.332 10.79 18.4286667 15.046 26.318 10.6833333"></polygon>
                </g>
                <circle id="Oval-Copy-4" fill="url(#linearGradient-7)" cx="333.5" cy="449.5" r="38.5"></circle>
                <g id="logo-blogger" transform="translate(269.000000, 130.000000)" fill="#FF6600">
                    <path d="M31.1286333,12.3808867 C30.4551733,12.0922267 27.5683333,12.41296 26.76646,11.6859333 C26.1998067,11.16204 26.1640067,10.2135 25.9432067,8.94888 C25.5733267,6.83042667 25.4193133,6.35082 25.03442,5.51687333 C23.6338133,2.5446 20.27778,0 17.2295333,0 L10.16238,0 C4.60274,0 0.0588,4.55462667 0.0588,10.1142667 L0.0588,21.90712 C0.0588,27.4560667 4.60274,32 10.16238,32 L21.7734667,32 C27.3331067,32 31.8449733,27.4560667 31.8770467,21.90712 L31.9412,13.7387267 C31.9412,13.7387267 31.9412,12.7291667 31.1286333,12.3808867 Z M10,8 L15.3333333,8 C16.4379,8 17.3333333,8.89542667 17.3333333,10 L17.3333333,10 C17.3333333,11.1045667 16.4379,12 15.3333333,12 L10,12 C8.89543333,12 8,11.1045733 8,10 L8,10 C8,8.89543333 8.89543333,8 10,8 Z M22,24 L10,24 C8.89543333,24 8,23.1045733 8,22 L8,22 C8,20.8954333 8.89542667,20 10,20 L22,20 C23.1045667,20 24,20.8954333 24,22 L24,22 C24,23.1045733 23.1045733,24 22,24 Z" id="Shape"></path>
                </g>
                <circle id="Oval-Copy-5" fill="url(#linearGradient-8)" cx="542.5" cy="177.5" r="38.5"></circle>
                <g id="logo-youtube" transform="translate(525.000000, 165.000000)" fill-rule="nonzero">
                    <path d="M35.6405025,5.5522425 C35.6405025,5.5522425 35.288715,3.0714375 34.2093675,1.9789725 C32.8404225,0.545115 31.3059675,0.5380125 30.6022875,0.45408 C25.56459,0.089925 18.0078225,0.089925 18.0078225,0.089925 L17.9921775,0.089925 C17.9921775,0.089925 10.43556,0.089925 5.397705,0.45408 C4.69398,0.5380125 3.1600725,0.545115 1.790625,1.9789725 C0.7112625,3.0714375 0.3600225,5.5522425 0.3600225,5.5522425 C0.3600225,5.5522425 0,8.46549 0,11.37873 L0,14.1099075 C0,17.0231175 0.36003,19.936365 0.36003,19.936365 C0.36003,19.936365 0.71127,22.417185 1.7906325,23.5096425 C3.16008,24.9435 4.9589325,24.8981625 5.760135,25.04844 C8.6402025,25.3246125 18.00003,25.410075 18.00003,25.410075 C18.00003,25.410075 25.5645975,25.3986825 30.602295,25.034535 C31.3059675,24.9505875 32.84043,24.9435 34.209375,23.5096425 C35.2887225,22.4171775 35.64051,19.936365 35.64051,19.936365 C35.64051,19.936365 36,17.0231175 36,14.1099075 L36,11.37873 C36,8.46549 35.6405025,5.5522425 35.6405025,5.5522425 Z" id="Path" fill="#DC2217" opacity="0.300000012"></path>
                    <polygon id="Path" fill="#FFFFFF" points="14.2834275 17.4195825 14.2817775 7.304535 24.0091425 12.37968"></polygon>
                </g>
                <circle id="Oval-Copy-6" fill="url(#linearGradient-9)" cx="458.5" cy="513.5" r="38.5"></circle>
                <g id="logo-buysellads" transform="translate(442.000000, 496.000000)" fill="#FFFFFF" fill-rule="nonzero">
                    <polygon id="Path" points="9.89757913 0.398288696 23.4937252 0.398288696 33.3913043 31.6017113 24.1188383 31.6017113 16.7737878 5.34708174 11.98128 21.8604104 21.3579339 21.8604104 9.68921043 31.6017113 0 31.6017113"></polygon>
                </g>
                <circle id="Oval-Copy-7" fill="url(#linearGradient-10)" cx="72.5" cy="411.5" r="38.5"></circle>
                <g id="browser-ie" transform="translate(55.000000, 394.000000)" fill="#22243E" fill-rule="nonzero">
                    <path d="M33.2945217,8.04756522 C36.6253043,-0.595565217 30.1554783,0.00939130435 30.1554783,0.00939130435 C26.0045217,0.00939130435 20.8158261,3.7893913 20.8158261,3.7893913 C20.8158261,3.7893913 14.6269565,2.12165217 8.43730435,5.86486957 C1.692,10.1637391 1.91426087,17.7988696 1.91426087,17.7988696 C7.39956522,9.94147826 15.033913,6.75469565 15.033913,6.75469565 L15.033913,7.27356522 C3.76747826,14.9775652 1.09956522,26.2486957 0.432,28.5464348 C-0.234782609,30.8441739 0.20973913,36 4.95391304,36 C9.69808696,36 14.5158261,32.1785217 14.5158261,32.1785217 C14.5158261,32.1785217 15.5535652,32.4007826 18.3701739,32.4007826 C30.2298261,32.4007826 33.0464348,21.9130435 33.0464348,21.9130435 L22.5211304,21.9130435 C22.5211304,21.9130435 21.78,25.3596522 18,25.3596522 C12.8113043,25.3596522 13.107913,19.9486957 13.107913,19.9486957 L33.1951304,19.9486957 C34.1585217,6.01356522 22.0022609,4.01165217 22.0022609,4.01165217 C22.0022609,4.01165217 26.298,0.972782609 30.0075652,0.972782609 C35.8865217,0.972782609 33.1066957,7.85973913 33.1066957,7.85973913 L33.2945217,8.04756522 Z M13.9273043,32.0243478 C13.9273043,32.0243478 6.68817391,36.417913 3.438,33.3735652 C1.69669565,30.3292174 4.52582609,26.0178261 4.52582609,26.0178261 C4.52582609,26.0178261 6.91982609,30.4575652 13.9273043,32.0243478 Z M22.6353913,15.206087 L13.082087,15.206087 C13.082087,15.206087 12.9607826,10.5503478 17.9796522,10.5503478 C22.8263478,10.5503478 22.6353913,15.206087 22.6353913,15.206087 Z" id="Shape"></path>
                </g>
                <g id="logo-paypal" transform="translate(320.000000, 434.000000)">
                    <path d="M12.0406067,7.53121333 L21.0670533,7.53121333 C25.91286,7.53121333 27.73756,9.98427333 27.4558267,13.5941533 C26.9912267,19.5451 23.3932333,22.83568 18.6209067,22.83568 L16.2115067,22.83568 C15.5574533,22.83568 15.1173667,23.2680333 14.9393733,24.44302 L13.9056667,31.2651067 C13.8385667,31.7082467 13.6055,31.9685067 13.2552933,32 L7.5954,32 C7.06284,32 6.87336667,31.5925267 7.01277333,30.7101133 L10.46912,8.82581333 C10.6076,7.9488 11.0873867,7.53121333 12.0406067,7.53121333 Z" id="Path" fill="#009DE2"></path>
                    <path d="M6.39748667,0 L15.4329,0 C17.9777533,0 20.9958533,0.0826133333 23.01502,1.86333333 C24.36376,3.0529 25.07158,4.94812667 24.9081267,6.98274667 C24.3540467,13.8820867 20.2271467,17.7463667 14.6930467,17.7463667 L10.2368,17.7463667 C9.47832667,17.7463667 8.97556667,18.24894 8.76165333,19.61014 L7.51812667,27.52068 C7.43749333,28.0339467 7.215,28.3363467 6.80886,28.3728067 L1.24299333,28.3728067 C0.62538,28.3728067 0.4058,27.9004267 0.567413333,26.8771267 L4.5753,1.50114667 C4.73591333,0.484213333 5.29216,0 6.39748667,0 Z" id="Path" fill="#113984"></path>
                    <path d="M8.89116,18.8126467 L10.46912,8.82574 C10.6076,7.94872667 11.0873867,7.53121333 12.0406067,7.53121333 L21.0671,7.53121333 C22.5613267,7.53121333 23.7684867,7.76446667 24.7146933,8.19444667 C23.8077,14.3345467 19.8363867,17.7463667 14.6355267,17.7463667 L10.17928,17.7463667 C9.59257333,17.7463667 9.15439333,18.0460667 8.89116,18.8126467 Z" id="Path" fill="#172C70"></path>
                </g>
                <g id="logo-evernote" transform="translate(144.000000, 49.000000)"></g>
                <g id="logo-deviantart" transform="translate(43.000000, 181.000000)"></g>
                <g id="logo-dropbox" transform="translate(387.000000, 28.000000)"></g>
                <g id="logo-whatsapp" transform="translate(183.000000, 512.000000)"></g>
                <g id="logo" transform="translate(288.000000, 282.000000)" fill="#FFFFFF">
                    <polygon id="Rectangle--Rectangle--Rectangle" points="16 10.9266954 16 17.2767328 0 6.35003737 0 0 16 10.9266954"></polygon>
                    <path d="M5.33333333,5.2578362 L5.33333333,19.5623629 C5.33333333,25.3079426 10.1089627,29.9656551 16,29.9656551 C21.8910373,29.9656551 26.6666667,25.3079426 26.6666667,19.5623629 L26.6666667,5.2578362 L32,5.2578362 L32,19.5623629 C32,28.1807324 24.836556,35.1673012 16,35.1673012 C7.163444,35.1673012 0,28.1807324 0,19.5623629 L0,5.2578362 L5.33333333,5.2578362 Z" id="Rectangle--Rectangle--Rectangle"></path>
                    <polygon id="Rectangle--Rectangle--Rectangle-Copy" transform="translate(24.000000, 8.694556) scale(1, -1) translate(-24.000000, -8.694556) " points="32 10.9828855 32 17.3329229 16 6.40622748 16 0.0561901098 32 10.9828855"></polygon>
                </g>
            </g>
        </g>
    </g>
</svg>