<?xml version="1.0" encoding="UTF-8"?>
<svg width="128px" height="51px" viewBox="0 0 128 51" version="1.1" xmlns="http://www.w3.org/2000/svg" xmlns:xlink="http://www.w3.org/1999/xlink">
    <title>a4</title>
    <defs>
        <path d="M3.536,9.135 C5.057,9.135 5.894,8.118 5.894,7.119 C5.894,6.21 5.264,5.427 4.049,5.202 L3.194,5.04 C2.753,4.959 2.564,4.734 2.564,4.428 C2.564,4.077 2.906,3.744 3.437,3.744 C4.211,3.744 4.454,4.248 4.499,4.545 L5.777,4.185 C5.642,3.438 5.039,2.484 3.446,2.484 C2.222,2.484 1.16,3.33 1.16,4.536 C1.16,5.481 1.817,6.201 2.897,6.408 L3.77,6.57 C4.193,6.651 4.454,6.885 4.454,7.209 C4.454,7.605 4.112,7.875 3.554,7.875 C2.681,7.875 2.285,7.362 2.231,6.777 L0.926,7.092 C1.016,7.992 1.772,9.135 3.536,9.135 Z M10.916,9 L10.916,7.65 L8.288,7.65 L8.288,6.426 L10.664,6.426 L10.664,5.175 L8.288,5.175 L8.288,3.96 L10.907,3.96 L10.907,2.619 L6.866,2.619 L6.866,9 L10.916,9 Z M15.056,9.135 C16.847,9.135 18.368,7.83 18.368,5.814 C18.368,3.789 16.847,2.484 15.056,2.484 C13.256,2.484 11.735,3.789 11.735,5.814 C11.735,7.83 13.256,9.135 15.056,9.135 Z M15.056,7.731 C14.165,7.731 13.211,7.137 13.211,5.805 C13.211,4.473 14.165,3.87 15.056,3.87 C15.938,3.87 16.892,4.473 16.892,5.805 C16.892,7.137 15.938,7.731 15.056,7.731 Z M22.49,9 L22.949,7.704 L25.415,7.704 L25.874,9 L27.422,9 L25.046,2.619 L23.399,2.619 L20.996,9 L22.49,9 Z M24.965,6.408 L23.417,6.408 L24.2,4.203 L24.965,6.408 Z M30.473,9 L31.841,4.77 L33.2,9 L34.667,9 L36.404,2.619 L34.946,2.619 L33.911,6.714 L32.588,2.619 L31.13,2.619 L29.807,6.705 L28.754,2.619 L27.242,2.619 L28.979,9 L30.473,9 Z M37.709,9 L38.168,7.704 L40.634,7.704 L41.093,9 L42.641,9 L40.265,2.619 L38.618,2.619 L36.215,9 L37.709,9 Z M40.184,6.408 L38.636,6.408 L39.419,4.203 L40.184,6.408 Z M44.846,9 L44.846,6.624 L45.35,6.624 L46.493,9 L48.059,9 L46.763,6.417 C47.546,6.138 48.023,5.481 48.023,4.617 C48.023,3.483 47.213,2.619 45.953,2.619 L43.424,2.619 L43.424,9 L44.846,9 Z M45.683,5.4 L44.846,5.4 L44.846,3.852 L45.683,3.852 C46.268,3.852 46.583,4.149 46.583,4.626 C46.583,5.076 46.268,5.4 45.683,5.4 Z M51.38,9 C53.306,9 54.593,7.785 54.593,5.814 C54.593,3.843 53.306,2.619 51.389,2.619 L49.076,2.619 L49.076,9 L51.38,9 Z M51.326,7.659 L50.498,7.659 L50.498,3.96 L51.326,3.96 C52.307,3.96 53.108,4.536 53.108,5.814 C53.108,7.092 52.307,7.659 51.326,7.659 Z M61.847,9 L61.847,7.812 L59.147,7.812 C59.228,7.641 59.372,7.524 59.543,7.416 L60.65,6.759 C61.397,6.318 61.802,5.697 61.802,4.941 C61.802,3.897 60.974,3.024 59.633,3.024 C58.229,3.024 57.446,3.96 57.446,5.004 C57.446,5.184 57.473,5.418 57.5,5.49 L58.832,5.499 C58.796,5.382 58.778,5.256 58.778,5.139 C58.778,4.653 59.048,4.275 59.597,4.275 C60.119,4.275 60.38,4.599 60.38,4.968 C60.38,5.355 60.2,5.598 59.741,5.868 L58.787,6.426 C57.716,7.047 57.41,7.929 57.41,9 L61.847,9 Z M64.916,9.144 C65.87,9.144 66.518,8.721 66.905,8.145 C67.31,7.533 67.418,6.804 67.418,6.084 C67.418,5.364 67.31,4.635 66.905,4.023 C66.518,3.438 65.87,3.024 64.916,3.024 C63.971,3.024 63.323,3.438 62.936,4.023 C62.531,4.635 62.423,5.364 62.423,6.084 C62.423,6.804 62.531,7.533 62.936,8.145 C63.323,8.721 63.971,9.144 64.916,9.144 Z M64.916,7.893 C64.484,7.893 64.223,7.677 64.061,7.353 C63.899,7.011 63.845,6.552 63.845,6.084 C63.845,5.616 63.899,5.157 64.061,4.815 C64.223,4.491 64.484,4.275 64.916,4.275 C65.357,4.275 65.609,4.491 65.771,4.815 C65.942,5.157 65.996,5.616 65.996,6.084 C65.996,6.552 65.942,7.011 65.771,7.353 C65.609,7.677 65.357,7.893 64.916,7.893 Z M72.413,9 L72.413,7.812 L69.713,7.812 C69.794,7.641 69.938,7.524 70.109,7.416 L71.216,6.759 C71.963,6.318 72.368,5.697 72.368,4.941 C72.368,3.897 71.54,3.024 70.199,3.024 C68.795,3.024 68.012,3.96 68.012,5.004 C68.012,5.184 68.039,5.418 68.066,5.49 L69.398,5.499 C69.362,5.382 69.344,5.256 69.344,5.139 C69.344,4.653 69.614,4.275 70.163,4.275 C70.685,4.275 70.946,4.599 70.946,4.968 C70.946,5.355 70.766,5.598 70.307,5.868 L69.353,6.426 C68.282,7.047 67.976,7.929 67.976,9 L72.413,9 Z M75.482,9.144 C76.436,9.144 77.084,8.721 77.471,8.145 C77.876,7.533 77.984,6.804 77.984,6.084 C77.984,5.364 77.876,4.635 77.471,4.023 C77.084,3.438 76.436,3.024 75.482,3.024 C74.537,3.024 73.889,3.438 73.502,4.023 C73.097,4.635 72.989,5.364 72.989,6.084 C72.989,6.804 73.097,7.533 73.502,8.145 C73.889,8.721 74.537,9.144 75.482,9.144 Z M75.482,7.893 C75.05,7.893 74.789,7.677 74.627,7.353 C74.465,7.011 74.411,6.552 74.411,6.084 C74.411,5.616 74.465,5.157 74.627,4.815 C74.789,4.491 75.05,4.275 75.482,4.275 C75.923,4.275 76.175,4.491 76.337,4.815 C76.508,5.157 76.562,5.616 76.562,6.084 C76.562,6.552 76.508,7.011 76.337,7.353 C76.175,7.677 75.923,7.893 75.482,7.893 Z" id="path-1"></path>
        <path d="M2.9,10.845 C3.29,10.845 3.6305,10.785 3.9215,10.665 C4.2125,10.545 4.439,10.38 4.601,10.17 C4.763,9.96 4.8815,9.7305 4.9565,9.4815 C5.0315,9.2325 5.069,8.964 5.069,8.676 L5.069,8.676 L5.069,4.671 L4.232,4.671 L4.232,5.274 C4.004,4.818 3.56,4.59 2.9,4.59 C2.318,4.59 1.841,4.7925 1.469,5.1975 C1.097,5.6025 0.911,6.102 0.911,6.696 C0.911,7.308 1.0985,7.8105 1.4735,8.2035 C1.8485,8.5965 2.324,8.793 2.9,8.793 C3.212,8.793 3.4835,8.727 3.7145,8.595 C3.9455,8.463 4.115,8.292 4.223,8.082 L4.223,8.082 L4.223,8.703 C4.223,9.639 3.782,10.107 2.9,10.107 C2.576,10.107 2.306,10.0065 2.09,9.8055 C1.874,9.6045 1.751,9.351 1.721,9.045 L1.721,9.045 L0.902,9.234 C0.956,9.702 1.169,10.0875 1.541,10.3905 C1.913,10.6935 2.366,10.845 2.9,10.845 Z M3.026,8.082 C2.642,8.082 2.3375,7.9575 2.1125,7.7085 C1.8875,7.4595 1.775,7.122 1.775,6.696 C1.775,6.276 1.8905,5.94 2.1215,5.688 C2.3525,5.436 2.654,5.31 3.026,5.31 C3.392,5.31 3.689,5.4375 3.917,5.6925 C4.145,5.9475 4.259,6.282 4.259,6.696 C4.259,7.11 4.145,7.4445 3.917,7.6995 C3.689,7.9545 3.392,8.082 3.026,8.082 Z M8.273,9.135 C8.921,9.135 9.452,8.9175 9.866,8.4825 C10.28,8.0475 10.487,7.497 10.487,6.831 C10.487,6.171 10.2785,5.6235 9.8615,5.1885 C9.4445,4.7535 8.915,4.536 8.273,4.536 C7.631,4.536 7.1,4.755 6.68,5.193 C6.266,5.625 6.059,6.171 6.059,6.831 C6.059,7.497 6.266,8.0475 6.68,8.4825 C7.094,8.9175 7.625,9.135 8.273,9.135 Z M8.273,8.379 C7.895,8.379 7.574,8.244 7.31,7.974 C7.052,7.698 6.923,7.317 6.923,6.831 C6.923,6.351 7.0535,5.9745 7.3145,5.7015 C7.5755,5.4285 7.895,5.292 8.273,5.292 C8.651,5.292 8.9705,5.4285 9.2315,5.7015 C9.4925,5.9745 9.623,6.351 9.623,6.831 C9.623,7.317 9.4925,7.6965 9.2315,7.9695 C8.9705,8.2425 8.651,8.379 8.273,8.379 Z M13.421,9.135 C14.069,9.135 14.6,8.9175 15.014,8.4825 C15.428,8.0475 15.635,7.497 15.635,6.831 C15.635,6.171 15.4265,5.6235 15.0095,5.1885 C14.5925,4.7535 14.063,4.536 13.421,4.536 C12.779,4.536 12.248,4.755 11.828,5.193 C11.414,5.625 11.207,6.171 11.207,6.831 C11.207,7.497 11.414,8.0475 11.828,8.4825 C12.242,8.9175 12.773,9.135 13.421,9.135 Z M13.421,8.379 C13.043,8.379 12.722,8.244 12.458,7.974 C12.2,7.698 12.071,7.317 12.071,6.831 C12.071,6.351 12.2015,5.9745 12.4625,5.7015 C12.7235,5.4285 13.043,5.292 13.421,5.292 C13.799,5.292 14.1185,5.4285 14.3795,5.7015 C14.6405,5.9745 14.771,6.351 14.771,6.831 C14.771,7.317 14.6405,7.6965 14.3795,7.9695 C14.1185,8.2425 13.799,8.379 13.421,8.379 Z M18.398,10.845 C18.788,10.845 19.1285,10.785 19.4195,10.665 C19.7105,10.545 19.937,10.38 20.099,10.17 C20.261,9.96 20.3795,9.7305 20.4545,9.4815 C20.5295,9.2325 20.567,8.964 20.567,8.676 L20.567,8.676 L20.567,4.671 L19.73,4.671 L19.73,5.274 C19.502,4.818 19.058,4.59 18.398,4.59 C17.816,4.59 17.339,4.7925 16.967,5.1975 C16.595,5.6025 16.409,6.102 16.409,6.696 C16.409,7.308 16.5965,7.8105 16.9715,8.2035 C17.3465,8.5965 17.822,8.793 18.398,8.793 C18.71,8.793 18.9815,8.727 19.2125,8.595 C19.4435,8.463 19.613,8.292 19.721,8.082 L19.721,8.082 L19.721,8.703 C19.721,9.639 19.28,10.107 18.398,10.107 C18.074,10.107 17.804,10.0065 17.588,9.8055 C17.372,9.6045 17.249,9.351 17.219,9.045 L17.219,9.045 L16.4,9.234 C16.454,9.702 16.667,10.0875 17.039,10.3905 C17.411,10.6935 17.864,10.845 18.398,10.845 Z M18.524,8.082 C18.14,8.082 17.8355,7.9575 17.6105,7.7085 C17.3855,7.4595 17.273,7.122 17.273,6.696 C17.273,6.276 17.3885,5.94 17.6195,5.688 C17.8505,5.436 18.152,5.31 18.524,5.31 C18.89,5.31 19.187,5.4375 19.415,5.6925 C19.643,5.9475 19.757,6.282 19.757,6.696 C19.757,7.11 19.643,7.4445 19.415,7.6995 C19.187,7.9545 18.89,8.082 18.524,8.082 Z M22.763,9 L22.763,2.484 L21.917,2.484 L21.917,9 L22.763,9 Z M26.03,9.135 C26.516,9.135 26.93,9.0075 27.272,8.7525 C27.614,8.4975 27.848,8.169 27.974,7.767 L27.974,7.767 L27.245,7.515 C27.053,8.097 26.648,8.388 26.03,8.388 C25.664,8.388 25.3565,8.265 25.1075,8.019 C24.8585,7.773 24.731,7.458 24.725,7.074 L24.725,7.074 L27.983,7.074 C27.995,7.002 28.001,6.912 28.001,6.804 C28.001,6.114 27.818,5.5635 27.452,5.1525 C27.086,4.7415 26.576,4.536 25.922,4.536 C25.358,4.536 24.872,4.752 24.464,5.184 C24.056,5.616 23.852,6.162 23.852,6.822 C23.852,7.53 24.0635,8.0925 24.4865,8.5095 C24.9095,8.9265 25.424,9.135 26.03,9.135 Z M27.119,6.39 L24.752,6.39 C24.77,6.09 24.887,5.8305 25.103,5.6115 C25.319,5.3925 25.595,5.283 25.931,5.283 C26.303,5.283 26.591,5.3865 26.795,5.5935 C26.999,5.8005 27.107,6.066 27.119,6.39 L27.119,6.39 Z M29.477,9.045 C29.651,9.045 29.7995,8.985 29.9225,8.865 C30.0455,8.745 30.107,8.598 30.107,8.424 C30.107,8.25 30.0455,8.1015 29.9225,7.9785 C29.7995,7.8555 29.651,7.794 29.477,7.794 C29.303,7.794 29.156,7.8555 29.036,7.9785 C28.916,8.1015 28.856,8.25 28.856,8.424 C28.856,8.598 28.916,8.745 29.036,8.865 C29.156,8.985 29.303,9.045 29.477,9.045 Z M33.149,9.135 C33.665,9.135 34.0895,9 34.4225,8.73 C34.7555,8.46 34.982,8.145 35.102,7.785 L35.102,7.785 L34.355,7.461 C34.289,7.695 34.1615,7.902 33.9725,8.082 C33.7835,8.262 33.509,8.352 33.149,8.352 C32.777,8.352 32.4635,8.217 32.2085,7.947 C31.9535,7.677 31.826,7.305 31.826,6.831 C31.826,6.351 31.9535,5.979 32.2085,5.715 C32.4635,5.451 32.774,5.319 33.14,5.319 C33.476,5.319 33.737,5.409 33.923,5.589 C34.109,5.769 34.235,5.985 34.301,6.237 L34.301,6.237 L35.066,5.913 C34.964,5.535 34.7495,5.211 34.4225,4.941 C34.0955,4.671 33.668,4.536 33.14,4.536 C32.516,4.536 31.997,4.7505 31.583,5.1795 C31.169,5.6085 30.962,6.159 30.962,6.831 C30.962,7.491 31.169,8.04 31.583,8.478 C31.997,8.916 32.519,9.135 33.149,9.135 Z M37.901,9.135 C38.549,9.135 39.08,8.9175 39.494,8.4825 C39.908,8.0475 40.115,7.497 40.115,6.831 C40.115,6.171 39.9065,5.6235 39.4895,5.1885 C39.0725,4.7535 38.543,4.536 37.901,4.536 C37.259,4.536 36.728,4.755 36.308,5.193 C35.894,5.625 35.687,6.171 35.687,6.831 C35.687,7.497 35.894,8.0475 36.308,8.4825 C36.722,8.9175 37.253,9.135 37.901,9.135 Z M37.901,8.379 C37.523,8.379 37.202,8.244 36.938,7.974 C36.68,7.698 36.551,7.317 36.551,6.831 C36.551,6.351 36.6815,5.9745 36.9425,5.7015 C37.2035,5.4285 37.523,5.292 37.901,5.292 C38.279,5.292 38.5985,5.4285 38.8595,5.7015 C39.1205,5.9745 39.251,6.351 39.251,6.831 C39.251,7.317 39.1205,7.6965 38.8595,7.9695 C38.5985,8.2425 38.279,8.379 37.901,8.379 Z M42.032,9 L42.032,6.39 C42.032,6.066 42.125,5.802 42.311,5.598 C42.497,5.394 42.74,5.292 43.04,5.292 C43.346,5.292 43.5755,5.382 43.7285,5.562 C43.8815,5.742 43.958,5.982 43.958,6.282 L43.958,6.282 L43.958,9 L44.804,9 L44.804,6.381 C44.804,6.069 44.897,5.8095 45.083,5.6025 C45.269,5.3955 45.509,5.292 45.803,5.292 C46.109,5.292 46.3385,5.382 46.4915,5.562 C46.6445,5.742 46.721,5.982 46.721,6.282 L46.721,6.282 L46.721,9 L47.558,9 L47.558,6.192 C47.558,5.658 47.4125,5.25 47.1215,4.968 C46.8305,4.686 46.478,4.545 46.064,4.545 C45.398,4.545 44.915,4.818 44.615,5.364 C44.501,5.094 44.327,4.89 44.093,4.752 C43.859,4.614 43.601,4.545 43.319,4.545 C43.055,4.545 42.803,4.605 42.563,4.725 C42.323,4.845 42.137,5.019 42.005,5.247 L42.005,5.247 L42.005,4.671 L41.195,4.671 L41.195,9 L42.032,9 Z" id="path-2"></path>
    </defs>
    <g id="Page-1" stroke="none" stroke-width="1" fill="none" fill-rule="evenodd">
        <g id="a4" fill-rule="nonzero">
            <g id="awards-web-construction-2019" transform="translate(0.000000, 1.000000)">
                <path d="M4.67321361,26 C2.83548497,25.9094175 1.51654307,25.3118414 0.716387908,24.2072719 C-0.083767249,23.1027024 -0.213634422,21.7002785 0.326786388,20 C2.16451503,20.0905825 3.48345693,20.6881586 4.28361209,21.7927281 C5.08376725,22.8972976 5.21363442,24.2997215 4.67321361,26 Z M6.35073884,26 C5.78806562,24.3401231 5.90239431,22.9578981 6.6937249,21.8533251 C7.48506652,20.7487591 8.80357861,20.1309841 10.6492612,20 C11.2119344,21.6598769 11.0976057,23.0421019 10.3062751,24.1466749 C9.51493348,25.2512409 8.19642139,25.8690159 6.35073884,26 Z M5.63086017,17 C4.1495842,16.1153371 3.29280806,14.9366259 3.06053176,13.4638666 C2.82825546,11.9911073 3.26445815,10.5031517 4.36913983,9 C5.8504158,9.88466294 6.70719194,11.0633741 6.93946824,12.5361334 C7.17174454,14.0088927 6.73554185,15.4968483 5.63086017,17 Z M10.2024486,8 C9.17230482,6.46774578 8.80405806,4.965239 9.09770836,3.49247967 C9.39135866,2.01972033 10.2913063,0.855560444 11.7975514,0 C12.8276952,1.53225422 13.1959419,3.034761 12.9022916,4.50752033 C12.6086413,5.98027967 11.7086937,7.14443956 10.2024486,8 Z M23,46.2919586 C22.3735794,48.1977859 21.4160368,49.3730939 20.1273724,49.8178824 C18.838708,50.262671 17.4629172,49.892724 16,48.7080414 C16.6264206,46.8022141 17.5839632,45.6269061 18.8726276,45.1821176 C20.161292,44.737329 21.5370828,45.107276 23,46.2919586 Z M14,43.0674369 C12.8037103,44.5387588 11.5612332,45.1699575 10.2725688,44.961033 C8.98390434,44.7521085 7.89304808,43.7426185 7,41.9325631 C8.19628975,40.4612412 9.43876683,39.8300425 10.7274312,40.038967 C12.0160957,40.2478915 13.1069519,41.2573815 14,43.0674369 Z M8,35.5277009 C6.42518499,36.1948961 5.08549274,36.1552043 3.98092324,35.4086254 C2.87635374,34.6620466 2.216046,33.3499378 2,31.4722991 C3.57481501,30.8051039 4.91450726,30.8447957 6.01907676,31.5913746 C7.12364626,32.3379534 7.783954,33.6500622 8,35.5277009 Z M7,17.5509392 C7.17558401,15.6784673 7.81565873,14.3646602 8.92022417,13.6095181 C10.0247977,12.8543903 11.384723,12.8009045 13,13.4490608 C12.824416,15.3215327 12.1843413,16.6353398 11.0797758,17.3904819 C9.97520227,18.1456097 8.615277,18.1990955 7,17.5509392 Z M11,8.45418661 C11.8455815,7.00609329 12.9127045,6.19843319 14.2013689,6.0312063 C15.4900333,5.86397941 16.7562437,6.36884844 18,7.54581339 C17.1544185,8.99390671 16.0872955,9.80156681 14.7986311,9.9687937 C13.5099667,10.1360206 12.2437563,9.63115156 11,8.45418661 Z M23.7773934,44.9999984 C21.9832141,45.0007656 20.6668678,44.4488647 19.8283547,43.3442958 C18.9898416,42.2397269 18.7879256,40.7916288 19.2226066,38.9999984 C21.0167859,38.9992344 22.3331322,39.5511353 23.1716453,40.6557042 C24.0101584,41.7602731 24.2120744,43.2083712 23.7773934,44.9999984 Z M15.8020909,42 C14.2952569,41.1986535 13.3941791,40.0616006 13.0988574,38.5888413 C12.8035357,37.116082 13.1698862,35.5864682 14.1979091,34 C15.7047431,34.8013465 16.6058209,35.9383994 16.9011426,37.4111587 C17.1964643,38.883918 16.8301138,40.4135318 15.8020909,42 Z M9.37130554,35 C8.26569697,33.5510816 7.82863214,32.0902428 8.06011105,30.6174834 C8.29158995,29.1447241 9.14778443,27.9388963 10.6286945,27 C11.734303,28.4489184 12.1713679,29.9097572 11.939889,31.3825166 C11.70841,32.8552759 10.8522156,34.0611037 9.37130554,35 Z" id="Shape" fill="#6B7C93"></path>
                <path d="M123.326786,26 C122.786366,24.2997215 122.916233,22.8972976 123.716388,21.7927281 C124.516543,20.6881586 125.835485,20.0905825 127.673214,20 C128.213634,21.7002785 128.083767,23.1027024 127.283612,24.2072719 C126.483457,25.3118414 125.164515,25.9094175 123.326786,26 Z M121.649261,26 C119.803579,25.8690159 118.485067,25.2512409 117.693725,24.1466749 C116.902394,23.0421019 116.788066,21.6598769 117.350739,20 C119.196421,20.1309841 120.514934,20.7487591 121.306275,21.8533251 C122.097606,22.9578981 122.211934,24.3401231 121.649261,26 Z M122.36914,17 C121.264458,15.4968483 120.828256,14.0088927 121.060532,12.5361334 C121.292808,11.0633741 122.149584,9.88466294 123.63086,9 C124.735542,10.5031517 125.171745,11.9911073 124.939468,13.4638666 C124.707192,14.9366259 123.850416,16.1153371 122.36914,17 Z M117.797551,8 C116.291306,7.14443956 115.391359,5.98027967 115.097708,4.50752033 C114.804058,3.034761 115.172305,1.53225422 116.202449,0 C117.708694,0.855560444 118.608641,2.01972033 118.902292,3.49247967 C119.195942,4.965239 118.827695,6.46774578 117.797551,8 Z M105,46.2919586 C106.462917,45.107276 107.838708,44.737329 109.127372,45.1821176 C110.416037,45.6269061 111.373579,46.8022141 112,48.7080414 C110.537083,49.892724 109.161292,50.262671 107.872628,49.8178824 C106.583963,49.3730939 105.626421,48.1977859 105,46.2919586 Z M114,43.0674369 C114.893048,41.2573815 115.983904,40.2478915 117.272569,40.038967 C118.561233,39.8300425 119.80371,40.4612412 121,41.9325631 C120.106952,43.7426185 119.016096,44.7521085 117.727431,44.961033 C116.438767,45.1699575 115.19629,44.5387588 114,43.0674369 Z M120,35.5277009 C120.216046,33.6500622 120.876354,32.3379534 121.980923,31.5913746 C123.085493,30.8447957 124.425185,30.8051039 126,31.4722991 C125.783954,33.3499378 125.123646,34.6620466 124.019077,35.4086254 C122.914507,36.1552043 121.574815,36.1948961 120,35.5277009 Z M121,17.5509392 C119.384723,18.1990955 118.024798,18.1456097 116.920224,17.3904819 C115.815659,16.6353398 115.175584,15.3215327 115,13.4490608 C116.615277,12.8009045 117.975202,12.8543903 119.079776,13.6095181 C120.184341,14.3646602 120.824416,15.6784673 121,17.5509392 Z M117,8.45418661 C115.756244,9.63115156 114.490033,10.1360206 113.201369,9.9687937 C111.912704,9.80156681 110.845582,8.99390671 110,7.54581339 C111.243756,6.36884844 112.509967,5.86397941 113.798631,6.0312063 C115.087296,6.19843319 116.154419,7.00609329 117,8.45418661 Z M104.222607,44.9999984 C103.787926,43.2083712 103.989842,41.7602731 104.828355,40.6557042 C105.666868,39.5511353 106.983214,38.9992344 108.777393,38.9999984 C109.212074,40.7916288 109.010158,42.2397269 108.171645,43.3442958 C107.333132,44.4488647 106.016786,45.0007656 104.222607,44.9999984 Z M112.197909,42 C111.169886,40.4135318 110.803536,38.883918 111.098857,37.4111587 C111.394179,35.9383994 112.295257,34.8013465 113.802091,34 C114.830114,35.5864682 115.196464,37.116082 114.901143,38.5888413 C114.605821,40.0616006 113.704743,41.1986535 112.197909,42 Z M118.628695,35 C117.147784,34.0611037 116.29159,32.8552759 116.060111,31.3825166 C115.828632,29.9097572 116.265697,28.4489184 117.371306,27 C118.852216,27.9388963 119.70841,29.1447241 119.939889,30.6174834 C120.171368,32.0902428 119.734303,33.5510816 118.628695,35 Z" id="Shape" fill="#6B7C93"></path>
                <rect id="Rectangle" fill="#6B7C93" x="24" y="32" width="80" height="1"></rect>
                <g id="SEO-award-2020" transform="translate(21.000000, 17.000000)">
                    <g id="SEOAWARD2020">
                        <use fill="#000000" xlink:href="#path-1"></use>
                        <use fill="#6B7C93" xlink:href="#path-1"></use>
                    </g>
                </g>
                <g id="google.com" transform="translate(40.000000, 35.000000)">
                    <g>
                        <use fill="#000000" xlink:href="#path-2"></use>
                        <use fill="#6B7C93" xlink:href="#path-2"></use>
                    </g>
                </g>
            </g>
            <g id="medal" transform="translate(58.000000, 0.000000)" fill="#6B7C93">
                <path d="M5.43020833,3.27654167 L3.79166667,0 L0,0 L2.32916667,4.65833333 C3.18708627,3.87582891 4.2747028,3.39119838 5.43020833,3.27654167 L5.43020833,3.27654167 Z" id="Path"></path>
                <path d="M6.48645833,3.27654167 L8.125,0 L11.9166667,0 L9.5875,4.65833333 C8.7295804,3.87582891 7.64196387,3.39119838 6.48645833,3.27654167 L6.48645833,3.27654167 Z" id="Path"></path>
                <path d="M5.95833333,4.33333333 C3.56509942,4.33333333 1.625,6.27343275 1.625,8.66666667 C1.625,11.0599006 3.56509942,13 5.95833333,13 C8.35156725,13 10.2916667,11.0599006 10.2916667,8.66666667 C10.2916667,7.51739521 9.83512036,6.41519492 9.02246272,5.60253728 C8.20980508,4.78987964 7.10760479,4.33333333 5.95833333,4.33333333 Z M7.23179167,10.6264167 L5.95833333,9.95691667 L4.684875,10.6264167 L4.92916667,9.20833333 L3.9,8.20408333 L5.3235,7.99716667 L5.95833333,6.70691667 L6.59533333,7.99716667 L8.01883333,8.20408333 L6.9875,9.20833333 L7.23179167,10.6264167 Z" id="Shape"></path>
            </g>
        </g>
    </g>
</svg>