<?xml version="1.0" encoding="UTF-8"?>
<svg width="128px" height="51px" viewBox="0 0 128 51" version="1.1" xmlns="http://www.w3.org/2000/svg" xmlns:xlink="http://www.w3.org/1999/xlink">
    <title>a5</title>
    <defs>
        <path d="M3.068,9.135 C4.589,9.135 5.426,8.118 5.426,7.119 C5.426,6.21 4.796,5.427 3.581,5.202 L2.726,5.04 C2.285,4.959 2.096,4.734 2.096,4.428 C2.096,4.077 2.438,3.744 2.969,3.744 C3.743,3.744 3.986,4.248 4.031,4.545 L5.309,4.185 C5.174,3.438 4.571,2.484 2.978,2.484 C1.754,2.484 0.692,3.33 0.692,4.536 C0.692,5.481 1.349,6.201 2.429,6.408 L3.302,6.57 C3.725,6.651 3.986,6.885 3.986,7.209 C3.986,7.605 3.644,7.875 3.086,7.875 C2.213,7.875 1.817,7.362 1.763,6.777 L0.458,7.092 C0.548,7.992 1.304,9.135 3.068,9.135 Z M7.838,9 L7.838,2.619 L6.398,2.619 L6.398,9 L7.838,9 Z M12.077,9 L12.077,3.978 L14.048,3.978 L14.048,2.619 L8.693,2.619 L8.693,3.978 L10.655,3.978 L10.655,9 L12.077,9 Z M18.962,9 L18.962,7.65 L16.334,7.65 L16.334,6.426 L18.71,6.426 L18.71,5.175 L16.334,5.175 L16.334,3.96 L18.953,3.96 L18.953,2.619 L14.912,2.619 L14.912,9 L18.962,9 Z M25.325,9.135 C27.116,9.135 28.637,7.83 28.637,5.814 C28.637,3.789 27.116,2.484 25.325,2.484 C23.525,2.484 22.004,3.789 22.004,5.814 C22.004,7.83 23.525,9.135 25.325,9.135 Z M25.325,7.731 C24.434,7.731 23.48,7.137 23.48,5.805 C23.48,4.473 24.434,3.87 25.325,3.87 C26.207,3.87 27.161,4.473 27.161,5.805 C27.161,7.137 26.207,7.731 25.325,7.731 Z M31.085,9 L31.085,6.615 L33.443,6.615 L33.443,5.319 L31.076,5.319 L31.076,3.969 L33.767,3.969 L33.767,2.619 L29.654,2.619 L29.654,9 L31.085,9 Z M39.842,9 L39.842,3.978 L41.813,3.978 L41.813,2.619 L36.458,2.619 L36.458,3.978 L38.42,3.978 L38.42,9 L39.842,9 Z M44.099,9 L44.099,6.462 L46.646,6.462 L46.646,9 L48.077,9 L48.077,2.619 L46.646,2.619 L46.646,5.121 L44.099,5.121 L44.099,2.619 L42.677,2.619 L42.677,9 L44.099,9 Z M53.504,9 L53.504,7.65 L50.876,7.65 L50.876,6.426 L53.252,6.426 L53.252,5.175 L50.876,5.175 L50.876,3.96 L53.495,3.96 L53.495,2.619 L49.454,2.619 L49.454,9 L53.504,9 Z M59.219,9 C61.145,9 62.432,7.785 62.432,5.814 C62.432,3.843 61.145,2.619 59.228,2.619 L56.915,2.619 L56.915,9 L59.219,9 Z M59.165,7.659 L58.337,7.659 L58.337,3.96 L59.165,3.96 C60.146,3.96 60.947,4.536 60.947,5.814 C60.947,7.092 60.146,7.659 59.165,7.659 Z M63.989,9 L64.448,7.704 L66.914,7.704 L67.373,9 L68.921,9 L66.545,2.619 L64.898,2.619 L62.495,9 L63.989,9 Z M66.464,6.408 L64.916,6.408 L65.699,4.203 L66.464,6.408 Z M71.945,9 L71.945,6.336 L74.186,2.619 L72.602,2.619 L71.279,4.986 L69.974,2.619 L68.309,2.619 L70.523,6.336 L70.523,9 L71.945,9 Z" id="path-1"></path>
        <path d="M1.9215,9 L1.9215,2.484 L1.0755,2.484 L1.0755,9 L1.9215,9 Z M3.7755,3.636 C3.9435,3.636 4.0875,3.5775 4.2075,3.4605 C4.3275,3.3435 4.3875,3.201 4.3875,3.033 C4.3875,2.859 4.3275,2.7135 4.2075,2.5965 C4.0875,2.4795 3.9435,2.421 3.7755,2.421 C3.6075,2.421 3.465,2.481 3.348,2.601 C3.231,2.721 3.1725,2.865 3.1725,3.033 C3.1725,3.201 3.2295,3.345 3.3435,3.465 C3.4635,3.579 3.6075,3.636 3.7755,3.636 Z M4.1985,9 L4.1985,4.671 L3.3615,4.671 L3.3615,9 L4.1985,9 Z M6.4845,9 L6.4845,6.498 C6.4845,6.156 6.573,5.8725 6.75,5.6475 C6.927,5.4225 7.1745,5.31 7.4925,5.31 C8.1645,5.31 8.5005,5.673 8.5005,6.399 L8.5005,6.399 L8.5005,9 L9.3465,9 L9.3465,6.255 C9.3465,5.751 9.213,5.34 8.946,5.022 C8.679,4.704 8.2965,4.545 7.7985,4.545 C7.1985,4.545 6.7545,4.794 6.4665,5.292 L6.4665,5.292 L6.4665,4.671 L5.6385,4.671 L5.6385,9 L6.4845,9 Z M12.5235,9.135 C13.0095,9.135 13.4235,9.0075 13.7655,8.7525 C14.1075,8.4975 14.3415,8.169 14.4675,7.767 L14.4675,7.767 L13.7385,7.515 C13.5465,8.097 13.1415,8.388 12.5235,8.388 C12.1575,8.388 11.85,8.265 11.601,8.019 C11.352,7.773 11.2245,7.458 11.2185,7.074 L11.2185,7.074 L14.4765,7.074 C14.4885,7.002 14.4945,6.912 14.4945,6.804 C14.4945,6.114 14.3115,5.5635 13.9455,5.1525 C13.5795,4.7415 13.0695,4.536 12.4155,4.536 C11.8515,4.536 11.3655,4.752 10.9575,5.184 C10.5495,5.616 10.3455,6.162 10.3455,6.822 C10.3455,7.53 10.557,8.0925 10.98,8.5095 C11.403,8.9265 11.9175,9.135 12.5235,9.135 Z M13.6125,6.39 L11.2455,6.39 C11.2635,6.09 11.3805,5.8305 11.5965,5.6115 C11.8125,5.3925 12.0885,5.283 12.4245,5.283 C12.7965,5.283 13.0845,5.3865 13.2885,5.5935 C13.4925,5.8005 13.6005,6.066 13.6125,6.39 L13.6125,6.39 Z M17.0685,9.045 C17.3085,9.045 17.5005,9.018 17.6445,8.964 L17.6445,8.964 L17.6445,8.244 C17.5485,8.268 17.4375,8.28 17.3115,8.28 C17.0955,8.28 16.941,8.232 16.848,8.136 C16.755,8.04 16.7085,7.89 16.7085,7.686 L16.7085,7.686 L16.7085,5.436 L17.6445,5.436 L17.6445,4.671 L16.7085,4.671 L16.7085,3.303 L15.9345,3.303 L15.9345,4.005 C15.9345,4.203 15.879,4.3635 15.768,4.4865 C15.657,4.6095 15.4905,4.671 15.2685,4.671 L15.2685,4.671 L15.0345,4.671 L15.0345,5.436 L15.8625,5.436 L15.8625,7.812 C15.8625,8.202 15.9705,8.505 16.1865,8.721 C16.4025,8.937 16.6965,9.045 17.0685,9.045 Z M19.6155,9 L19.6155,6.453 C19.6275,6.117 19.7205,5.8425 19.8945,5.6295 C20.0685,5.4165 20.3115,5.31 20.6235,5.31 C21.2955,5.31 21.6315,5.673 21.6315,6.399 L21.6315,6.399 L21.6315,9 L22.4775,9 L22.4775,6.255 C22.4775,5.751 22.344,5.34 22.077,5.022 C21.81,4.704 21.4275,4.545 20.9295,4.545 C20.3415,4.545 19.9035,4.755 19.6155,5.175 L19.6155,5.175 L19.6155,2.484 L18.7695,2.484 L18.7695,9 L19.6155,9 Z M25.6545,9.135 C26.1405,9.135 26.5545,9.0075 26.8965,8.7525 C27.2385,8.4975 27.4725,8.169 27.5985,7.767 L27.5985,7.767 L26.8695,7.515 C26.6775,8.097 26.2725,8.388 25.6545,8.388 C25.2885,8.388 24.981,8.265 24.732,8.019 C24.483,7.773 24.3555,7.458 24.3495,7.074 L24.3495,7.074 L27.6075,7.074 C27.6195,7.002 27.6255,6.912 27.6255,6.804 C27.6255,6.114 27.4425,5.5635 27.0765,5.1525 C26.7105,4.7415 26.2005,4.536 25.5465,4.536 C24.9825,4.536 24.4965,4.752 24.0885,5.184 C23.6805,5.616 23.4765,6.162 23.4765,6.822 C23.4765,7.53 23.688,8.0925 24.111,8.5095 C24.534,8.9265 25.0485,9.135 25.6545,9.135 Z M26.7435,6.39 L24.3765,6.39 C24.3945,6.09 24.5115,5.8305 24.7275,5.6115 C24.9435,5.3925 25.2195,5.283 25.5555,5.283 C25.9275,5.283 26.2155,5.3865 26.4195,5.5935 C26.6235,5.8005 26.7315,6.066 26.7435,6.39 L26.7435,6.39 Z M29.5425,9 L29.5425,6.39 C29.5425,6.066 29.6355,5.802 29.8215,5.598 C30.0075,5.394 30.2505,5.292 30.5505,5.292 C30.8565,5.292 31.086,5.382 31.239,5.562 C31.392,5.742 31.4685,5.982 31.4685,6.282 L31.4685,6.282 L31.4685,9 L32.3145,9 L32.3145,6.381 C32.3145,6.069 32.4075,5.8095 32.5935,5.6025 C32.7795,5.3955 33.0195,5.292 33.3135,5.292 C33.6195,5.292 33.849,5.382 34.002,5.562 C34.155,5.742 34.2315,5.982 34.2315,6.282 L34.2315,6.282 L34.2315,9 L35.0685,9 L35.0685,6.192 C35.0685,5.658 34.923,5.25 34.632,4.968 C34.341,4.686 33.9885,4.545 33.5745,4.545 C32.9085,4.545 32.4255,4.818 32.1255,5.364 C32.0115,5.094 31.8375,4.89 31.6035,4.752 C31.3695,4.614 31.1115,4.545 30.8295,4.545 C30.5655,4.545 30.3135,4.605 30.0735,4.725 C29.8335,4.845 29.6475,5.019 29.5155,5.247 L29.5155,5.247 L29.5155,4.671 L28.7055,4.671 L28.7055,9 L29.5425,9 Z M38.2455,9.135 C38.7315,9.135 39.1455,9.0075 39.4875,8.7525 C39.8295,8.4975 40.0635,8.169 40.1895,7.767 L40.1895,7.767 L39.4605,7.515 C39.2685,8.097 38.8635,8.388 38.2455,8.388 C37.8795,8.388 37.572,8.265 37.323,8.019 C37.074,7.773 36.9465,7.458 36.9405,7.074 L36.9405,7.074 L40.1985,7.074 C40.2105,7.002 40.2165,6.912 40.2165,6.804 C40.2165,6.114 40.0335,5.5635 39.6675,5.1525 C39.3015,4.7415 38.7915,4.536 38.1375,4.536 C37.5735,4.536 37.0875,4.752 36.6795,5.184 C36.2715,5.616 36.0675,6.162 36.0675,6.822 C36.0675,7.53 36.279,8.0925 36.702,8.5095 C37.125,8.9265 37.6395,9.135 38.2455,9.135 Z M39.3345,6.39 L36.9675,6.39 C36.9855,6.09 37.1025,5.8305 37.3185,5.6115 C37.5345,5.3925 37.8105,5.283 38.1465,5.283 C38.5185,5.283 38.8065,5.3865 39.0105,5.5935 C39.2145,5.8005 39.3225,6.066 39.3345,6.39 L39.3345,6.39 Z M42.6555,9.135 C43.1535,9.135 43.542,8.997 43.821,8.721 C44.1,8.445 44.2395,8.136 44.2395,7.794 C44.2395,7.47 44.136,7.1955 43.929,6.9705 C43.722,6.7455 43.4265,6.591 43.0425,6.507 L43.0425,6.507 L42.3405,6.354 C42.0105,6.282 41.8455,6.108 41.8455,5.832 C41.8455,5.676 41.913,5.541 42.048,5.427 C42.183,5.313 42.3555,5.256 42.5655,5.256 C42.7275,5.256 42.8685,5.2815 42.9885,5.3325 C43.1085,5.3835 43.2,5.451 43.263,5.535 C43.326,5.619 43.3725,5.6955 43.4025,5.7645 C43.4325,5.8335 43.4535,5.904 43.4655,5.976 L43.4655,5.976 L44.2125,5.697 C44.1825,5.577 44.1375,5.46 44.0775,5.346 C44.0175,5.232 43.9275,5.109 43.8075,4.977 C43.6875,4.845 43.5195,4.7385 43.3035,4.6575 C43.0875,4.5765 42.8415,4.536 42.5655,4.536 C42.1455,4.536 41.784,4.671 41.481,4.941 C41.178,5.211 41.0265,5.532 41.0265,5.904 C41.0265,6.21 41.1225,6.471 41.3145,6.687 C41.5065,6.903 41.7705,7.047 42.1065,7.119 L42.1065,7.119 L42.8445,7.281 C43.2165,7.365 43.4025,7.551 43.4025,7.839 C43.4025,8.001 43.3365,8.1375 43.2045,8.2485 C43.0725,8.3595 42.8925,8.415 42.6645,8.415 C42.3705,8.415 42.1365,8.3385 41.9625,8.1855 C41.7885,8.0325 41.6865,7.839 41.6565,7.605 L41.6565,7.605 L40.8915,7.875 C40.9335,8.181 41.1045,8.4675 41.4045,8.7345 C41.7045,9.0015 42.1215,9.135 42.6555,9.135 Z" id="path-2"></path>
    </defs>
    <g id="Page-1" stroke="none" stroke-width="1" fill="none" fill-rule="evenodd">
        <g id="a5" fill-rule="nonzero">
            <g id="awards-web-construction-2019" transform="translate(0.000000, 1.000000)">
                <path d="M4.67321361,26 C2.83548497,25.9094175 1.51654307,25.3118414 0.716387908,24.2072719 C-0.083767249,23.1027024 -0.213634422,21.7002785 0.326786388,20 C2.16451503,20.0905825 3.48345693,20.6881586 4.28361209,21.7927281 C5.08376725,22.8972976 5.21363442,24.2997215 4.67321361,26 Z M6.35073884,26 C5.78806562,24.3401231 5.90239431,22.9578981 6.6937249,21.8533251 C7.48506652,20.7487591 8.80357861,20.1309841 10.6492612,20 C11.2119344,21.6598769 11.0976057,23.0421019 10.3062751,24.1466749 C9.51493348,25.2512409 8.19642139,25.8690159 6.35073884,26 Z M5.63086017,17 C4.1495842,16.1153371 3.29280806,14.9366259 3.06053176,13.4638666 C2.82825546,11.9911073 3.26445815,10.5031517 4.36913983,9 C5.8504158,9.88466294 6.70719194,11.0633741 6.93946824,12.5361334 C7.17174454,14.0088927 6.73554185,15.4968483 5.63086017,17 Z M10.2024486,8 C9.17230482,6.46774578 8.80405806,4.965239 9.09770836,3.49247967 C9.39135866,2.01972033 10.2913063,0.855560444 11.7975514,0 C12.8276952,1.53225422 13.1959419,3.034761 12.9022916,4.50752033 C12.6086413,5.98027967 11.7086937,7.14443956 10.2024486,8 Z M23,46.2919586 C22.3735794,48.1977859 21.4160368,49.3730939 20.1273724,49.8178824 C18.838708,50.262671 17.4629172,49.892724 16,48.7080414 C16.6264206,46.8022141 17.5839632,45.6269061 18.8726276,45.1821176 C20.161292,44.737329 21.5370828,45.107276 23,46.2919586 Z M14,43.0674369 C12.8037103,44.5387588 11.5612332,45.1699575 10.2725688,44.961033 C8.98390434,44.7521085 7.89304808,43.7426185 7,41.9325631 C8.19628975,40.4612412 9.43876683,39.8300425 10.7274312,40.038967 C12.0160957,40.2478915 13.1069519,41.2573815 14,43.0674369 Z M8,35.5277009 C6.42518499,36.1948961 5.08549274,36.1552043 3.98092324,35.4086254 C2.87635374,34.6620466 2.216046,33.3499378 2,31.4722991 C3.57481501,30.8051039 4.91450726,30.8447957 6.01907676,31.5913746 C7.12364626,32.3379534 7.783954,33.6500622 8,35.5277009 Z M7,17.5509392 C7.17558401,15.6784673 7.81565873,14.3646602 8.92022417,13.6095181 C10.0247977,12.8543903 11.384723,12.8009045 13,13.4490608 C12.824416,15.3215327 12.1843413,16.6353398 11.0797758,17.3904819 C9.97520227,18.1456097 8.615277,18.1990955 7,17.5509392 Z M11,8.45418661 C11.8455815,7.00609329 12.9127045,6.19843319 14.2013689,6.0312063 C15.4900333,5.86397941 16.7562437,6.36884844 18,7.54581339 C17.1544185,8.99390671 16.0872955,9.80156681 14.7986311,9.9687937 C13.5099667,10.1360206 12.2437563,9.63115156 11,8.45418661 Z M23.7773934,44.9999984 C21.9832141,45.0007656 20.6668678,44.4488647 19.8283547,43.3442958 C18.9898416,42.2397269 18.7879256,40.7916288 19.2226066,38.9999984 C21.0167859,38.9992344 22.3331322,39.5511353 23.1716453,40.6557042 C24.0101584,41.7602731 24.2120744,43.2083712 23.7773934,44.9999984 Z M15.8020909,42 C14.2952569,41.1986535 13.3941791,40.0616006 13.0988574,38.5888413 C12.8035357,37.116082 13.1698862,35.5864682 14.1979091,34 C15.7047431,34.8013465 16.6058209,35.9383994 16.9011426,37.4111587 C17.1964643,38.883918 16.8301138,40.4135318 15.8020909,42 Z M9.37130554,35 C8.26569697,33.5510816 7.82863214,32.0902428 8.06011105,30.6174834 C8.29158995,29.1447241 9.14778443,27.9388963 10.6286945,27 C11.734303,28.4489184 12.1713679,29.9097572 11.939889,31.3825166 C11.70841,32.8552759 10.8522156,34.0611037 9.37130554,35 Z" id="Shape" fill="#6B7C93"></path>
                <path d="M123.326786,26 C122.786366,24.2997215 122.916233,22.8972976 123.716388,21.7927281 C124.516543,20.6881586 125.835485,20.0905825 127.673214,20 C128.213634,21.7002785 128.083767,23.1027024 127.283612,24.2072719 C126.483457,25.3118414 125.164515,25.9094175 123.326786,26 Z M121.649261,26 C119.803579,25.8690159 118.485067,25.2512409 117.693725,24.1466749 C116.902394,23.0421019 116.788066,21.6598769 117.350739,20 C119.196421,20.1309841 120.514934,20.7487591 121.306275,21.8533251 C122.097606,22.9578981 122.211934,24.3401231 121.649261,26 Z M122.36914,17 C121.264458,15.4968483 120.828256,14.0088927 121.060532,12.5361334 C121.292808,11.0633741 122.149584,9.88466294 123.63086,9 C124.735542,10.5031517 125.171745,11.9911073 124.939468,13.4638666 C124.707192,14.9366259 123.850416,16.1153371 122.36914,17 Z M117.797551,8 C116.291306,7.14443956 115.391359,5.98027967 115.097708,4.50752033 C114.804058,3.034761 115.172305,1.53225422 116.202449,0 C117.708694,0.855560444 118.608641,2.01972033 118.902292,3.49247967 C119.195942,4.965239 118.827695,6.46774578 117.797551,8 Z M105,46.2919586 C106.462917,45.107276 107.838708,44.737329 109.127372,45.1821176 C110.416037,45.6269061 111.373579,46.8022141 112,48.7080414 C110.537083,49.892724 109.161292,50.262671 107.872628,49.8178824 C106.583963,49.3730939 105.626421,48.1977859 105,46.2919586 Z M114,43.0674369 C114.893048,41.2573815 115.983904,40.2478915 117.272569,40.038967 C118.561233,39.8300425 119.80371,40.4612412 121,41.9325631 C120.106952,43.7426185 119.016096,44.7521085 117.727431,44.961033 C116.438767,45.1699575 115.19629,44.5387588 114,43.0674369 Z M120,35.5277009 C120.216046,33.6500622 120.876354,32.3379534 121.980923,31.5913746 C123.085493,30.8447957 124.425185,30.8051039 126,31.4722991 C125.783954,33.3499378 125.123646,34.6620466 124.019077,35.4086254 C122.914507,36.1552043 121.574815,36.1948961 120,35.5277009 Z M121,17.5509392 C119.384723,18.1990955 118.024798,18.1456097 116.920224,17.3904819 C115.815659,16.6353398 115.175584,15.3215327 115,13.4490608 C116.615277,12.8009045 117.975202,12.8543903 119.079776,13.6095181 C120.184341,14.3646602 120.824416,15.6784673 121,17.5509392 Z M117,8.45418661 C115.756244,9.63115156 114.490033,10.1360206 113.201369,9.9687937 C111.912704,9.80156681 110.845582,8.99390671 110,7.54581339 C111.243756,6.36884844 112.509967,5.86397941 113.798631,6.0312063 C115.087296,6.19843319 116.154419,7.00609329 117,8.45418661 Z M104.222607,44.9999984 C103.787926,43.2083712 103.989842,41.7602731 104.828355,40.6557042 C105.666868,39.5511353 106.983214,38.9992344 108.777393,38.9999984 C109.212074,40.7916288 109.010158,42.2397269 108.171645,43.3442958 C107.333132,44.4488647 106.016786,45.0007656 104.222607,44.9999984 Z M112.197909,42 C111.169886,40.4135318 110.803536,38.883918 111.098857,37.4111587 C111.394179,35.9383994 112.295257,34.8013465 113.802091,34 C114.830114,35.5864682 115.196464,37.116082 114.901143,38.5888413 C114.605821,40.0616006 113.704743,41.1986535 112.197909,42 Z M118.628695,35 C117.147784,34.0611037 116.29159,32.8552759 116.060111,31.3825166 C115.828632,29.9097572 116.265697,28.4489184 117.371306,27 C118.852216,27.9388963 119.70841,29.1447241 119.939889,30.6174834 C120.171368,32.0902428 119.734303,33.5510816 118.628695,35 Z" id="Shape" fill="#6B7C93"></path>
                <rect id="Rectangle" fill="#6B7C93" x="24" y="32" width="80" height="1"></rect>
                <g id="Site-of-the-day" transform="translate(23.000000, 17.000000)">
                    <g id="SITEOFTHEDAY">
                        <use fill="#000000" xlink:href="#path-1"></use>
                        <use fill="#6B7C93" xlink:href="#path-1"></use>
                    </g>
                </g>
                <g id="linethemes" transform="translate(42.000000, 35.000000)">
                    <g>
                        <use fill="#000000" xlink:href="#path-2"></use>
                        <use fill="#6B7C93" xlink:href="#path-2"></use>
                    </g>
                </g>
            </g>
            <g id="line" transform="translate(57.000000, 0.000000)">
                <path d="M1.12015881,10.1490598 L10.4581511,11.6562859 C9.36200477,12.4989857 7.98951146,13 6.5,13 C4.26277203,13 2.28953319,11.8697282 1.12015881,10.1490598 L1.12015881,10.1490598 Z M0.749707511,9.5333342 C0.27103418,8.62778959 0,7.5955465 0,6.5 C0,2.91014913 2.91014913,0 6.5,0 C10.0898509,0 13,2.91014913 13,6.5 C13,7.5955465 12.7289659,8.62778959 12.2502925,9.5333342 L0.749707048,9.5333342 L0.749707511,9.5333342 Z" id="Oval--Rectangle" fill="#6B7C93"></path>
                <path d="M1.16133333,3.23266667 L2.626,3.23266667 L2.07133333,7.73933333 L3.91733333,7.73933333 L3.75266667,9.01333333 L0.450666667,9.01333333 L1.16133333,3.23266667 Z M4.20911111,5.13933333 L5.63911111,5.13933333 L5.16244445,9.01333333 L3.73244445,9.01333333 L4.20911111,5.13933333 Z M4.27844445,3.52733333 C4.27844445,3.094 4.62511111,2.74733333 5.05844445,2.74733333 C5.49177778,2.74733333 5.83844445,3.094 5.83844445,3.52733333 C5.83844445,3.96066667 5.49177778,4.30733333 5.05844445,4.30733333 C4.62511111,4.30733333 4.27844445,3.96066667 4.27844445,3.52733333 Z M5.83555555,5.13933333 L7.26555555,5.13933333 L7.14422222,5.642 C7.67288889,5.174 8.01955555,5.02666667 8.54822222,5.02666667 C9.33688886,5.02666667 9.77022219,5.44266667 9.77022219,6.20533333 C9.77022219,6.37 9.76155553,6.56933333 9.72688886,6.838 L9.45822219,9.01333333 L8.02822222,9.01333333 L8.24488889,7.306 C8.27088889,7.08066667 8.27955555,6.968 8.27955555,6.82933333 C8.27955555,6.43066667 8.08888889,6.214 7.75955555,6.214 C7.30022222,6.214 7.10088889,6.49133333 7.00555555,7.26266667 L6.78888889,9.01333333 L5.35888889,9.01333333 L5.83555555,5.13933333 Z M14.0486667,7.36666667 L11.154,7.36666667 C11.154,7.50533333 11.154,7.84333333 11.3533333,8.02533333 C11.4226667,8.09466667 11.5613333,8.17266667 11.7953333,8.17266667 C11.9166667,8.17266667 12.0466667,8.14666667 12.1593333,8.06866667 C12.272,7.99066667 12.324,7.89533333 12.35,7.80866667 L13.91,7.80866667 C13.8146667,8.09466667 13.6586667,8.33733333 13.4853333,8.51066667 C12.9913333,9.022 12.2633333,9.126 11.804,9.126 C10.9893333,9.126 10.5386667,8.814 10.322,8.61466667 C10.0706667,8.372 9.79333333,7.93866667 9.79333333,7.24533333 C9.79333333,6.5 10.0966667,5.96266667 10.426,5.642 C10.764,5.31266667 11.2926667,5.02666667 12.0813333,5.02666667 C12.8093333,5.02666667 13.2686667,5.28666667 13.546,5.564 C13.9446667,5.96266667 14.066,6.53466667 14.066,7.03733333 C14.066,7.15 14.0573333,7.26266667 14.0486667,7.36666667 Z M11.2493333,6.56066667 L12.6013333,6.56066667 C12.5926667,6.37866667 12.5146667,6.20533333 12.402,6.10133333 C12.298,6.006 12.142,5.94533333 11.9513333,5.94533333 C11.752,5.94533333 11.57,6.02333333 11.4573333,6.136 C11.3446667,6.24866667 11.2753333,6.422 11.2493333,6.56066667 Z" id="Line" fill="#FFFFFF"></path>
            </g>
        </g>
    </g>
</svg>