<?xml version="1.0" encoding="UTF-8"?>
<svg width="1680px" height="764px" viewBox="0 0 1680 764" version="1.1" xmlns="http://www.w3.org/2000/svg" xmlns:xlink="http://www.w3.org/1999/xlink">
    <title>Group 4</title>
    <defs>
        <rect id="path-1" x="0" y="0" width="1680" height="764"></rect>
    </defs>
    <g id="Business" stroke="none" stroke-width="1" fill="none" fill-rule="evenodd">
        <g id="services">
            <g id="Group-4">
                <mask id="mask-2" fill="white">
                    <use xlink:href="#path-1"></use>
                </mask>
                <g id="Rectangle"></g>
                <polygon id="Rectangle" stroke="#D3DBE6" mask="url(#mask-2)" points="-41 188 189 145 189 215 -41 258"></polygon>
                <polygon id="Rectangle-Copy-11" fill="#EAEEF3" mask="url(#mask-2)" points="64 694 294 651 294 721 64 764"></polygon>
                <polygon id="Rectangle-Copy-13" fill="#3A416F" mask="url(#mask-2)" points="1355 556 1585 513 1585 583 1355 626"></polygon>
                <polygon id="Rectangle-Copy-7" stroke="#D3DBE6" mask="url(#mask-2)" points="1336 244 1566 201 1566 271 1336 314"></polygon>
                <polygon id="Rectangle-Copy-10" stroke="#D3DBE6" mask="url(#mask-2)" points="1392 687 1622 644 1622 714 1392 757"></polygon>
                <polygon id="Rectangle-Copy-8" fill="#5468FF" mask="url(#mask-2)" points="1566 131 1796 88 1796 158 1566 201"></polygon>
                <polygon id="Rectangle-Copy-9" fill="#848AB8" mask="url(#mask-2)" points="1481 398 1711 355 1711 425 1481 468"></polygon>
                <path d="M-322,697 L-322,627 L138,541 L138,611 L-322,697 Z" id="Combined-Shape-Copy" fill="#54C8EF" mask="url(#mask-2)"></path>
                <path d="M-51,716 L-51,646 L409,560 L409,630 L-51,716 Z" id="Combined-Shape" fill="#3A416F" mask="url(#mask-2)"></path>
                <path d="M1221,581 L1221,511 L1681,425 L1681,495 L1221,581 Z" id="Combined-Shape-Copy-3" fill="#EAEEF3" mask="url(#mask-2)"></path>
            </g>
        </g>
    </g>
</svg>