<?xml version="1.0" encoding="UTF-8"?>
<svg width="103px" height="103px" viewBox="0 0 103 103" version="1.1" xmlns="http://www.w3.org/2000/svg" xmlns:xlink="http://www.w3.org/1999/xlink">
    <title>Artboard</title>
    <g id="Artboard" stroke="none" stroke-width="1" fill="none" fill-rule="evenodd">
        <g id="Group" transform="translate(-12.681440, -12.995927)" fill-rule="nonzero">
            <circle id="Oval" fill="#DFE8F4" transform="translate(64.404211, 64.410743) rotate(-73.150000) translate(-64.404211, -64.410743) " cx="64.4042105" cy="64.4107431" r="50.9305263"></circle>
            <circle id="Oval" fill="#0795FF" transform="translate(64.409354, 64.393164) rotate(-80.780000) translate(-64.409354, -64.393164) " cx="64.4093544" cy="64.3931636" r="40.7578947"></circle>
            <circle id="Oval" fill="#DFE8F4" cx="64.4074441" cy="64.3950646" r="28.3621053"></circle>
            <circle id="Oval" fill="#0795FF" transform="translate(64.594279, 64.167808) rotate(-80.819458) translate(-64.594279, -64.167808) " cx="64.5942792" cy="64.1678085" r="22.0471284"></circle>
            <path d="M73.8839354,64.3950646 C73.8839354,69.6287862 69.6411657,73.8715558 64.4074441,73.8715558 C59.1737225,73.8715558 54.9309529,69.6287862 54.9309529,64.3950646 C54.9309529,59.161343 59.1737225,54.9185734 64.4074441,54.9185734 C69.6411657,54.9185734 73.8839354,59.161343 73.8839354,64.3950646 Z" id="Path" fill="#FFFFFF"></path>
            <path d="M73.6818301,66.371205 C73.8167968,65.7211666 73.8845218,65.0589663 73.8839391,64.3950646 C73.859518,61.9425497 72.876161,59.5970014 71.1442862,57.8603278 L64.4074441,66.371205 L73.6818301,66.371205 Z" id="Path" fill="#DFE8F4"></path>
            <path d="M106.018672,25.6582225 L65.9120055,65.7648892 C65.5354221,66.1545848 65.016733,66.3746501 64.4748126,66.3746501 C63.9328921,66.3746501 63.414203,66.1545848 63.0376196,65.7648892 L63.0376196,65.7648892 C62.2499054,64.968663 62.2499054,63.6867294 63.0376196,62.8905032 L103.144286,22.7838365 L106.018672,25.6582225 Z" id="Path" fill="#156CDD"></path>
            <path d="M101.662181,17.5066436 L93.824988,25.3438365 C93.5237708,25.6516423 93.4046408,26.0941251 93.510602,26.5115558 L95.1948126,32.7543629 C95.2988397,33.1751353 95.6273734,33.5036691 96.0481459,33.6076962 L102.290953,35.2919067 C102.708369,35.4125187 103.158235,35.2914011 103.458672,34.9775208 L111.295865,27.1403278 C111.598232,26.8343706 111.715882,26.3911267 111.605046,25.9754935 C111.494211,25.5598602 111.17148,25.2340512 110.756918,25.1192751 L105.839023,23.816819 C105.427761,23.6963535 105.106155,23.3747477 104.98569,22.9634857 L103.683234,17.9557664 C103.546582,17.5557065 103.211444,17.2556912 102.798757,17.1639828 C102.386069,17.0722745 101.955408,17.2021123 101.662181,17.5066436 Z" id="Path" fill="#0795FF"></path>
            <path d="M105.344988,13.8238365 L97.507795,21.6610295 C97.2144211,21.9640841 97.1033616,22.3997791 97.2158652,22.8062927 L98.8776196,29.1838365 C98.9902807,29.5996721 99.3151174,29.9245088 99.7309529,30.0371699 L105.996216,31.7213804 C106.413604,31.8228999 106.853937,31.7043487 107.163935,31.4069944 L114.978672,23.5698015 C115.281039,23.2638443 115.398689,22.8206004 115.287853,22.4049672 C115.177018,21.9893339 114.854287,21.6635249 114.439725,21.5487488 L109.544286,20.2013804 C109.128451,20.0887193 108.803614,19.7638826 108.690953,19.3480471 L107.366041,14.3627839 C107.251265,13.9482216 106.925456,13.6254908 106.509822,13.5146553 C106.094189,13.4038197 105.650945,13.5214697 105.344988,13.8238365 L105.344988,13.8238365 Z" id="Path" fill="#0795FF"></path>
        </g>
    </g>
</svg>