<?xml version="1.0" encoding="UTF-8"?>
<svg width="128px" height="128px" viewBox="0 0 128 128" version="1.1" xmlns="http://www.w3.org/2000/svg" xmlns:xlink="http://www.w3.org/1999/xlink">
    <title>Artboard</title>
    <g id="Artboard" stroke="none" stroke-width="1" fill="none" fill-rule="evenodd">
        <g id="Group" transform="translate(13.000000, 0.000000)" fill-rule="nonzero">
            <circle id="Oval" fill="#156CDD" cx="49.7923117" cy="115.243636" r="10.2138776"></circle>
            <path d="M99.5817422,49.859146 C99.6118547,26.7080828 83.6806912,6.59086329 61.1387766,1.31500064 C38.596862,-3.96086202 15.3927079,6.99686214 5.14565912,27.7566943 C-5.10138963,48.5165265 0.312726949,73.600223 18.2102709,88.2852685 C24.8304122,93.7466051 28.6629313,101.881127 28.6592505,110.463228 L28.6592505,113.571799 C28.6592377,115.460778 29.4114151,117.272011 30.7495737,118.605268 C32.0877322,119.938524 33.9017127,120.68405 35.7906791,120.677153 L63.715577,120.677153 C65.6045434,120.68405 67.4185239,119.938524 68.7566824,118.605268 C70.094841,117.272011 70.8470184,115.460778 70.8470056,113.571799 L70.8470056,110.463228 C70.836789,101.894455 74.6720562,93.7732771 81.2959852,88.3375134 C92.8658521,78.9125485 99.5817422,64.7820071 99.5817422,49.859146 Z" id="Path" fill="#DFE8F4"></path>
            <path d="M35.5033321,99.9620032 C33.5076563,99.9691235 31.6106273,100.830785 30.2922198,102.328975 C28.9738122,103.827166 28.3603348,105.818352 28.6070056,107.798738 C28.6993075,108.666363 28.7429133,109.538478 28.7376178,110.410983 L28.7376178,113.519554 C28.7376051,115.408533 29.4897825,117.219766 30.827941,118.553023 C32.1660995,119.886279 33.9800801,120.631805 35.8690464,120.624908 L63.715577,120.624908 C65.6045434,120.631805 67.4185239,119.886279 68.7566824,118.553023 C70.094841,117.219766 70.8470184,115.408533 70.8470056,113.519554 L70.8470056,110.463228 C70.7982679,109.593161 70.7982679,108.721049 70.8470056,107.850983 C71.0936764,105.870597 70.480199,103.879411 69.1617914,102.38122 C67.8433839,100.88303 65.9463549,100.021368 63.9506791,100.014248 L35.5033321,99.9620032 Z" id="Path" fill="#CCD8E5"></path>
            <path d="M28.5808831,107.433024 C28.6858822,108.439671 28.7381985,109.451119 28.7376178,110.463228 L28.7376178,113.571799 C28.7376051,115.460778 29.4897825,117.272011 30.827941,118.605268 C32.1660995,119.938524 33.9800801,120.68405 35.8690464,120.677153 L63.715577,120.677153 C65.6045434,120.68405 67.4185239,119.938524 68.7566824,118.605268 C70.094841,117.272011 70.8470184,115.460778 70.8470056,113.571799 L70.8470056,110.463228 C70.846425,109.451119 70.8987412,108.439671 71.0037403,107.433024 L28.5808831,107.433024 Z" id="Path" fill="#0795FF"></path>
            <path d="M49.9490464,46.6983297 L49.9490464,46.6983297 C48.7752303,46.6899584 47.7317105,45.9490594 47.3368015,44.8436358 C46.9891432,44.0048925 47.1019354,43.0457894 47.6346926,42.3105844 C48.1674498,41.5753794 49.0437463,41.1695403 49.9490464,41.2387379 C50.7932652,41.238306 51.591564,41.6230283 52.1172097,42.2836358 C52.843388,43.3002092 54.0031412,43.9187442 55.2519036,43.9554726 L55.7221076,43.9554726 C57.1534765,43.9776601 58.4814994,43.2123338 59.1799579,41.9627479 C59.8784164,40.713162 59.8345656,39.1810242 59.0657811,37.9734317 C58.0422528,36.442454 56.6498128,35.1937497 55.0168015,34.3424113 C54.3626129,34.0030241 53.9502595,33.3291783 53.9457811,32.5922073 L53.9457811,32.5922073 C53.9458701,31.4953821 53.5066137,30.4442232 52.7261481,29.6735748 C51.9456825,28.9029264 50.8890479,28.4770105 49.7923117,28.4906495 L49.7923117,28.4906495 C47.527268,28.4906495 45.6910872,30.3271635 45.6910872,32.5922073 L45.6910872,32.5922073 C45.6917337,33.3235323 45.2902638,33.9959944 44.6461893,34.3424113 C40.2148518,36.6712495 37.9347304,41.7151212 39.1139722,46.5802654 C40.293214,51.4454095 44.6297279,54.8855028 49.635577,54.9269011 L49.7923117,54.9269011 C50.6976119,54.8577036 51.5739083,55.2635427 52.1066655,55.9987477 C52.6394228,56.7339527 52.7522149,57.6930558 52.4045566,58.5317991 C52.1549245,59.3497955 51.5206875,59.9937899 50.7065974,60.2558807 C49.5647547,60.6269799 48.3134757,60.2274118 47.598026,59.2632277 C46.9587689,58.1983632 45.8098186,57.54465 44.5678219,57.539146 L44.0976178,57.539146 C42.5738648,57.5341827 41.1780896,58.3905589 40.4922216,59.7512327 C39.8063535,61.1119064 39.9481272,62.7433072 40.8584342,63.9652685 C41.8345358,65.3179636 43.1022542,66.4339129 44.5678219,67.2305746 C45.2160871,67.5725915 45.619228,68.2478524 45.6127199,68.9807787 L45.6127199,68.9807787 C45.5766921,70.1046759 46.0037093,71.1940693 46.793879,71.9941161 C47.5840487,72.7941629 48.6680537,73.2346795 49.7923117,73.2126154 L49.7923117,73.2126154 C52.0573555,73.2126154 53.8935362,71.3764347 53.8935362,69.1113909 L53.8935362,69.1113909 C53.8870281,68.3784646 54.290169,67.7032037 54.9384342,67.3611868 C59.3128254,65.0064255 61.5462912,59.9956131 60.3732132,55.1681823 C59.2001353,50.3407515 54.9162408,46.9136742 49.9490464,46.8289419 L49.9490464,46.6983297 Z" id="Path" fill="#0795FF"></path>
            <path d="M52.4045566,13.4705746 C52.4045566,14.9132776 51.2350147,16.0828195 49.7923117,16.0828195 C48.3496087,16.0828195 47.1800668,14.9132776 47.1800668,13.4705746 C47.1800668,12.0278716 48.3496087,10.8583297 49.7923117,10.8583297 C51.2350147,10.8583297 52.4045566,12.0278716 52.4045566,13.4705746 Z" id="Path" fill="#FFFFFF"></path>
            <path d="M52.4045566,88.1024113 C52.4045566,89.5451144 51.2350147,90.7146562 49.7923117,90.7146562 C48.3496087,90.7146562 47.1800668,89.5451144 47.1800668,88.1024113 C47.1800668,86.6597083 48.3496087,85.4901664 49.7923117,85.4901664 C51.2350147,85.4901664 52.4045566,86.6597083 52.4045566,88.1024113 Z" id="Path" fill="#FFFFFF"></path>
            <path d="M33.4657811,17.1277175 C33.8381148,17.7398517 33.942679,18.4780481 33.7549971,19.1695076 C33.5673153,19.8609671 33.1038636,20.4449877 32.473128,20.7848603 C31.2186818,21.4608203 29.6539488,21.0067197 28.9562551,19.7642299 C28.2585614,18.5217402 28.6853558,16.9493398 29.9155125,16.2301237 C31.1456692,15.5109076 32.7252606,15.9102665 33.4657811,17.1277175 Z" id="Path" fill="#FFFFFF"></path>
            <path d="M70.6902709,81.7546562 C71.0713643,82.3689079 71.1808896,83.1136151 70.9927857,83.8115795 C70.8046818,84.5095438 70.3357674,85.0983595 69.6976178,85.4379215 C68.8623455,85.9045542 67.8415764,85.8901281 67.0198245,85.4000773 C66.1980725,84.9100265 65.7001814,84.0188015 65.713702,83.062118 C65.7272225,82.1054346 66.2501005,81.2286357 67.0853729,80.7620032 C67.6930621,80.4068481 68.4183592,80.3119534 69.0969635,80.4988154 C69.7755679,80.6856775 70.3500492,81.1384822 70.6902709,81.7546562 L70.6902709,81.7546562 Z" id="Path" fill="#FFFFFF"></path>
            <path d="M18.8110872,29.7971052 C20.0179006,30.5458353 20.4054268,32.1215585 19.6835474,33.3446224 C18.961668,34.5676863 17.394893,34.9899377 16.1561758,34.2952616 C14.9174587,33.6005854 14.4606882,32.0435237 15.1278219,30.7897583 C15.4673839,30.1516087 16.0561997,29.6826943 16.754164,29.4945904 C17.4521283,29.3064866 18.1968356,29.4160118 18.8110872,29.7971052 Z" id="Path" fill="#FFFFFF"></path>
            <path d="M83.4641485,67.0999624 C84.7553676,67.8213139 85.2173366,69.4528248 84.4959851,70.7440439 C83.7746336,72.0352631 82.1431228,72.4972322 80.8519036,71.7758807 C80.1699501,71.4531833 79.6608171,70.8514027 79.4555384,70.1254173 C79.2502598,69.3994319 79.3688848,68.6201473 79.7808831,67.9881256 C80.1385742,67.367505 80.7354276,66.9209981 81.4317873,66.7530815 C82.128147,66.585165 82.862909,66.7105733 83.4641485,67.0999624 Z" id="Path" fill="#FFFFFF"></path>
            <path d="M12.4633321,48.0828195 C13.9060351,48.0828195 15.075577,49.2523614 15.075577,50.6950644 C15.075577,52.1377674 13.9060351,53.3073093 12.4633321,53.3073093 C11.0206291,53.3073093 9.85108723,52.1377674 9.85108723,50.6950644 C9.85108723,49.2523614 11.0206291,48.0828195 12.4633321,48.0828195 Z" id="Path" fill="#FFFFFF"></path>
            <path d="M87.1212913,48.0828195 C88.5639943,48.0828195 89.7335362,49.2523614 89.7335362,50.6950644 C89.7335362,52.1377674 88.5639943,53.3073093 87.1212913,53.3073093 C85.6785883,53.3073093 84.5090464,52.1377674 84.5090464,50.6950644 C84.5090464,49.2523614 85.6785883,48.0828195 87.1212913,48.0828195 Z" id="Path" fill="#FFFFFF"></path>
            <path d="M16.120475,67.0999624 C16.7347266,66.7188689 17.4794339,66.6093437 18.1773982,66.7974476 C18.8753625,66.9855514 19.4641783,67.4544658 19.8037403,68.0926154 C20.1848337,68.7068671 20.2943589,69.4515743 20.1062551,70.1495386 C19.9181512,70.847503 19.4492368,71.4363187 18.8110872,71.7758807 C17.9758149,72.2425134 16.9550458,72.2280872 16.1332939,71.7380365 C15.311542,71.2479857 14.8136509,70.3567606 14.8271714,69.4000772 C14.8406919,68.4433938 15.3635699,67.5665949 16.1988423,67.0999624 L16.120475,67.0999624 Z" id="Path" fill="#FFFFFF"></path>
            <path d="M80.7735362,29.7971052 C82.0273016,29.1299715 83.5843633,29.586742 84.2790395,30.8254591 C84.9737157,32.0641762 84.5514642,33.6309513 83.3284003,34.3528307 C82.1053364,35.07471 80.5296132,34.6871839 79.7808831,33.4803705 C79.3997897,32.8661189 79.2902645,32.1214116 79.4783684,31.4234473 C79.6664722,30.725483 80.1353866,30.1366672 80.7735362,29.7971052 L80.7735362,29.7971052 Z" id="Path" fill="#FFFFFF"></path>
            <path d="M28.8943525,81.7546562 C29.3609851,80.9193838 30.2377839,80.3965058 31.1944674,80.3829853 C32.1511508,80.3694648 33.0423758,80.8673559 33.5324266,81.6891078 C34.0224774,82.5108597 34.0369036,83.5316288 33.5702709,84.3669011 C33.2307089,85.0050507 32.6418932,85.4739651 31.9439288,85.662069 C31.2459645,85.8501728 30.5012572,85.7406476 29.8870056,85.3595542 C29.2708315,85.0193325 28.8180269,84.4448512 28.6311648,83.7662468 C28.4443027,83.0876425 28.5391974,82.3623454 28.8943525,81.7546562 L28.8943525,81.7546562 Z" id="Path" fill="#FFFFFF"></path>
            <path d="M66.1188423,17.1277175 C66.4584044,16.4895679 67.0472201,16.0206535 67.7451844,15.8325496 C68.4431488,15.6444458 69.187856,15.753971 69.8021076,16.1350644 C70.6327137,16.601697 71.1512798,17.4760064 71.1624671,18.4286486 C71.1736544,19.3812908 70.6757634,20.2675369 69.8563447,20.7535466 C69.0369259,21.2395562 68.0204688,21.2514929 67.1898627,20.7848603 C66.5457671,20.4589283 66.0652565,19.880995 65.862374,19.1882255 C65.6594915,18.495456 65.7523252,17.7496146 66.1188423,17.1277175 Z" id="Path" fill="#FFFFFF"></path>
        </g>
    </g>
</svg>