<svg id="Layer_1" data-name="Layer 1" xmlns="http://www.w3.org/2000/svg" viewBox="0 0 64 64"><defs><style>.cls-1{fill:#0795ff;}.cls-2{fill:#156cdd;}.cls-3{fill:#ccd8e5;}.cls-4{fill:#dfe8f4;}</style></defs><title>startup, start up, business, announcement, megaphone, notification, newsletter, marketing</title><path class="cls-1" d="M55.93,32.21A5.18,5.18,0,1,1,50.76,27,5.16,5.16,0,0,1,55.93,32.21Z"/><path class="cls-1" d="M25.34,36.86l-11,3.82v8.83a2.83,2.83,0,0,0,2.83,2.82h0a2.79,2.79,0,0,0,2.44-1.41l1.74-3a7,7,0,0,1,3.73-3.1l4.1-1.45Z"/><path class="cls-2" d="M21.64,45.59a2.63,2.63,0,0,0,2.3-.22,6.67,6.67,0,0,1,1.15-.53l4.1-1.45-3.85-6.53-11,3.82v2Z"/><path class="cls-3" d="M49.35,10.07a2.64,2.64,0,0,0-2.13.72,21.49,21.49,0,0,1-7.3,4.33L18,23.73v17l22,8.62a21.63,21.63,0,0,1,7.3,4.32,2.57,2.57,0,0,0,2.13.72,2.72,2.72,0,0,0,2.32-2.75V12.83A2.73,2.73,0,0,0,49.35,10.07Z"/><rect class="cls-1" x="8" y="21.57" width="6.35" height="21.27" rx="2.08"/><rect class="cls-2" x="14.35" y="23.73" width="3.61" height="16.95"/><path class="cls-4" d="M49,54.36h0a2.63,2.63,0,0,1-2.63-2.63v-39A2.63,2.63,0,0,1,49,10.05h0a2.63,2.63,0,0,1,2.63,2.63V51.73A2.63,2.63,0,0,1,49,54.36Z"/></svg>